%TF.GenerationSoftware,KiCad,Pcbnew,9.0.3-9.0.3-0~ubuntu24.04.1*%
%TF.CreationDate,2025-08-13T18:32:02-04:00*%
%TF.ProjectId,EngineControlModule_2025_08,456e6769-6e65-4436-9f6e-74726f6c4d6f,rev?*%
%TF.SameCoordinates,Original*%
%TF.FileFunction,Legend,Top*%
%TF.FilePolarity,Positive*%
%FSLAX46Y46*%
G04 Gerber Fmt 4.6, Leading zero omitted, Abs format (unit mm)*
G04 Created by KiCad (PCBNEW 9.0.3-9.0.3-0~ubuntu24.04.1) date 2025-08-13 18:32:02*
%MOMM*%
%LPD*%
G01*
G04 APERTURE LIST*
%ADD10C,0.100000*%
%ADD11C,0.150000*%
%ADD12C,0.120000*%
G04 APERTURE END LIST*
D10*
X105661027Y-80372419D02*
X105994360Y-81372419D01*
X105994360Y-81372419D02*
X106327693Y-80372419D01*
X107994360Y-81372419D02*
X107661027Y-80896228D01*
X107422932Y-81372419D02*
X107422932Y-80372419D01*
X107422932Y-80372419D02*
X107803884Y-80372419D01*
X107803884Y-80372419D02*
X107899122Y-80420038D01*
X107899122Y-80420038D02*
X107946741Y-80467657D01*
X107946741Y-80467657D02*
X107994360Y-80562895D01*
X107994360Y-80562895D02*
X107994360Y-80705752D01*
X107994360Y-80705752D02*
X107946741Y-80800990D01*
X107946741Y-80800990D02*
X107899122Y-80848609D01*
X107899122Y-80848609D02*
X107803884Y-80896228D01*
X107803884Y-80896228D02*
X107422932Y-80896228D01*
X108803884Y-81324800D02*
X108708646Y-81372419D01*
X108708646Y-81372419D02*
X108518170Y-81372419D01*
X108518170Y-81372419D02*
X108422932Y-81324800D01*
X108422932Y-81324800D02*
X108375313Y-81229561D01*
X108375313Y-81229561D02*
X108375313Y-80848609D01*
X108375313Y-80848609D02*
X108422932Y-80753371D01*
X108422932Y-80753371D02*
X108518170Y-80705752D01*
X108518170Y-80705752D02*
X108708646Y-80705752D01*
X108708646Y-80705752D02*
X108803884Y-80753371D01*
X108803884Y-80753371D02*
X108851503Y-80848609D01*
X108851503Y-80848609D02*
X108851503Y-80943847D01*
X108851503Y-80943847D02*
X108375313Y-81039085D01*
X109708646Y-80705752D02*
X109708646Y-81515276D01*
X109708646Y-81515276D02*
X109661027Y-81610514D01*
X109661027Y-81610514D02*
X109613408Y-81658133D01*
X109613408Y-81658133D02*
X109518170Y-81705752D01*
X109518170Y-81705752D02*
X109375313Y-81705752D01*
X109375313Y-81705752D02*
X109280075Y-81658133D01*
X109708646Y-81324800D02*
X109613408Y-81372419D01*
X109613408Y-81372419D02*
X109422932Y-81372419D01*
X109422932Y-81372419D02*
X109327694Y-81324800D01*
X109327694Y-81324800D02*
X109280075Y-81277180D01*
X109280075Y-81277180D02*
X109232456Y-81181942D01*
X109232456Y-81181942D02*
X109232456Y-80896228D01*
X109232456Y-80896228D02*
X109280075Y-80800990D01*
X109280075Y-80800990D02*
X109327694Y-80753371D01*
X109327694Y-80753371D02*
X109422932Y-80705752D01*
X109422932Y-80705752D02*
X109613408Y-80705752D01*
X109613408Y-80705752D02*
X109708646Y-80753371D01*
X126208646Y-89372419D02*
X126827693Y-89372419D01*
X126827693Y-89372419D02*
X126494360Y-89753371D01*
X126494360Y-89753371D02*
X126637217Y-89753371D01*
X126637217Y-89753371D02*
X126732455Y-89800990D01*
X126732455Y-89800990D02*
X126780074Y-89848609D01*
X126780074Y-89848609D02*
X126827693Y-89943847D01*
X126827693Y-89943847D02*
X126827693Y-90181942D01*
X126827693Y-90181942D02*
X126780074Y-90277180D01*
X126780074Y-90277180D02*
X126732455Y-90324800D01*
X126732455Y-90324800D02*
X126637217Y-90372419D01*
X126637217Y-90372419D02*
X126351503Y-90372419D01*
X126351503Y-90372419D02*
X126256265Y-90324800D01*
X126256265Y-90324800D02*
X126208646Y-90277180D01*
X127303884Y-90372419D02*
X127494360Y-90372419D01*
X127494360Y-90372419D02*
X127589598Y-90324800D01*
X127589598Y-90324800D02*
X127637217Y-90277180D01*
X127637217Y-90277180D02*
X127732455Y-90134323D01*
X127732455Y-90134323D02*
X127780074Y-89943847D01*
X127780074Y-89943847D02*
X127780074Y-89562895D01*
X127780074Y-89562895D02*
X127732455Y-89467657D01*
X127732455Y-89467657D02*
X127684836Y-89420038D01*
X127684836Y-89420038D02*
X127589598Y-89372419D01*
X127589598Y-89372419D02*
X127399122Y-89372419D01*
X127399122Y-89372419D02*
X127303884Y-89420038D01*
X127303884Y-89420038D02*
X127256265Y-89467657D01*
X127256265Y-89467657D02*
X127208646Y-89562895D01*
X127208646Y-89562895D02*
X127208646Y-89800990D01*
X127208646Y-89800990D02*
X127256265Y-89896228D01*
X127256265Y-89896228D02*
X127303884Y-89943847D01*
X127303884Y-89943847D02*
X127399122Y-89991466D01*
X127399122Y-89991466D02*
X127589598Y-89991466D01*
X127589598Y-89991466D02*
X127684836Y-89943847D01*
X127684836Y-89943847D02*
X127732455Y-89896228D01*
X127732455Y-89896228D02*
X127780074Y-89800990D01*
X128399122Y-89372419D02*
X128494360Y-89372419D01*
X128494360Y-89372419D02*
X128589598Y-89420038D01*
X128589598Y-89420038D02*
X128637217Y-89467657D01*
X128637217Y-89467657D02*
X128684836Y-89562895D01*
X128684836Y-89562895D02*
X128732455Y-89753371D01*
X128732455Y-89753371D02*
X128732455Y-89991466D01*
X128732455Y-89991466D02*
X128684836Y-90181942D01*
X128684836Y-90181942D02*
X128637217Y-90277180D01*
X128637217Y-90277180D02*
X128589598Y-90324800D01*
X128589598Y-90324800D02*
X128494360Y-90372419D01*
X128494360Y-90372419D02*
X128399122Y-90372419D01*
X128399122Y-90372419D02*
X128303884Y-90324800D01*
X128303884Y-90324800D02*
X128256265Y-90277180D01*
X128256265Y-90277180D02*
X128208646Y-90181942D01*
X128208646Y-90181942D02*
X128161027Y-89991466D01*
X128161027Y-89991466D02*
X128161027Y-89753371D01*
X128161027Y-89753371D02*
X128208646Y-89562895D01*
X128208646Y-89562895D02*
X128256265Y-89467657D01*
X128256265Y-89467657D02*
X128303884Y-89420038D01*
X128303884Y-89420038D02*
X128399122Y-89372419D01*
X129351503Y-89372419D02*
X129446741Y-89372419D01*
X129446741Y-89372419D02*
X129541979Y-89420038D01*
X129541979Y-89420038D02*
X129589598Y-89467657D01*
X129589598Y-89467657D02*
X129637217Y-89562895D01*
X129637217Y-89562895D02*
X129684836Y-89753371D01*
X129684836Y-89753371D02*
X129684836Y-89991466D01*
X129684836Y-89991466D02*
X129637217Y-90181942D01*
X129637217Y-90181942D02*
X129589598Y-90277180D01*
X129589598Y-90277180D02*
X129541979Y-90324800D01*
X129541979Y-90324800D02*
X129446741Y-90372419D01*
X129446741Y-90372419D02*
X129351503Y-90372419D01*
X129351503Y-90372419D02*
X129256265Y-90324800D01*
X129256265Y-90324800D02*
X129208646Y-90277180D01*
X129208646Y-90277180D02*
X129161027Y-90181942D01*
X129161027Y-90181942D02*
X129113408Y-89991466D01*
X129113408Y-89991466D02*
X129113408Y-89753371D01*
X129113408Y-89753371D02*
X129161027Y-89562895D01*
X129161027Y-89562895D02*
X129208646Y-89467657D01*
X129208646Y-89467657D02*
X129256265Y-89420038D01*
X129256265Y-89420038D02*
X129351503Y-89372419D01*
X134744360Y-89738665D02*
X134994360Y-89738665D01*
X135101503Y-90262475D02*
X134744360Y-90262475D01*
X134744360Y-90262475D02*
X134744360Y-89262475D01*
X134744360Y-89262475D02*
X135101503Y-89262475D01*
X135422931Y-89595808D02*
X135422931Y-90262475D01*
X135422931Y-89691046D02*
X135458645Y-89643427D01*
X135458645Y-89643427D02*
X135530074Y-89595808D01*
X135530074Y-89595808D02*
X135637217Y-89595808D01*
X135637217Y-89595808D02*
X135708645Y-89643427D01*
X135708645Y-89643427D02*
X135744360Y-89738665D01*
X135744360Y-89738665D02*
X135744360Y-90262475D01*
X136422931Y-89595808D02*
X136422931Y-90405332D01*
X136422931Y-90405332D02*
X136387216Y-90500570D01*
X136387216Y-90500570D02*
X136351502Y-90548189D01*
X136351502Y-90548189D02*
X136280073Y-90595808D01*
X136280073Y-90595808D02*
X136172931Y-90595808D01*
X136172931Y-90595808D02*
X136101502Y-90548189D01*
X136422931Y-90214856D02*
X136351502Y-90262475D01*
X136351502Y-90262475D02*
X136208645Y-90262475D01*
X136208645Y-90262475D02*
X136137216Y-90214856D01*
X136137216Y-90214856D02*
X136101502Y-90167236D01*
X136101502Y-90167236D02*
X136065788Y-90071998D01*
X136065788Y-90071998D02*
X136065788Y-89786284D01*
X136065788Y-89786284D02*
X136101502Y-89691046D01*
X136101502Y-89691046D02*
X136137216Y-89643427D01*
X136137216Y-89643427D02*
X136208645Y-89595808D01*
X136208645Y-89595808D02*
X136351502Y-89595808D01*
X136351502Y-89595808D02*
X136422931Y-89643427D01*
X136780073Y-90262475D02*
X136780073Y-89595808D01*
X136780073Y-89262475D02*
X136744359Y-89310094D01*
X136744359Y-89310094D02*
X136780073Y-89357713D01*
X136780073Y-89357713D02*
X136815787Y-89310094D01*
X136815787Y-89310094D02*
X136780073Y-89262475D01*
X136780073Y-89262475D02*
X136780073Y-89357713D01*
X137137216Y-89595808D02*
X137137216Y-90262475D01*
X137137216Y-89691046D02*
X137172930Y-89643427D01*
X137172930Y-89643427D02*
X137244359Y-89595808D01*
X137244359Y-89595808D02*
X137351502Y-89595808D01*
X137351502Y-89595808D02*
X137422930Y-89643427D01*
X137422930Y-89643427D02*
X137458645Y-89738665D01*
X137458645Y-89738665D02*
X137458645Y-90262475D01*
X138101501Y-90214856D02*
X138030073Y-90262475D01*
X138030073Y-90262475D02*
X137887216Y-90262475D01*
X137887216Y-90262475D02*
X137815787Y-90214856D01*
X137815787Y-90214856D02*
X137780073Y-90119617D01*
X137780073Y-90119617D02*
X137780073Y-89738665D01*
X137780073Y-89738665D02*
X137815787Y-89643427D01*
X137815787Y-89643427D02*
X137887216Y-89595808D01*
X137887216Y-89595808D02*
X138030073Y-89595808D01*
X138030073Y-89595808D02*
X138101501Y-89643427D01*
X138101501Y-89643427D02*
X138137216Y-89738665D01*
X138137216Y-89738665D02*
X138137216Y-89833903D01*
X138137216Y-89833903D02*
X137780073Y-89929141D01*
X139458644Y-90167236D02*
X139422930Y-90214856D01*
X139422930Y-90214856D02*
X139315787Y-90262475D01*
X139315787Y-90262475D02*
X139244359Y-90262475D01*
X139244359Y-90262475D02*
X139137216Y-90214856D01*
X139137216Y-90214856D02*
X139065787Y-90119617D01*
X139065787Y-90119617D02*
X139030073Y-90024379D01*
X139030073Y-90024379D02*
X138994359Y-89833903D01*
X138994359Y-89833903D02*
X138994359Y-89691046D01*
X138994359Y-89691046D02*
X139030073Y-89500570D01*
X139030073Y-89500570D02*
X139065787Y-89405332D01*
X139065787Y-89405332D02*
X139137216Y-89310094D01*
X139137216Y-89310094D02*
X139244359Y-89262475D01*
X139244359Y-89262475D02*
X139315787Y-89262475D01*
X139315787Y-89262475D02*
X139422930Y-89310094D01*
X139422930Y-89310094D02*
X139458644Y-89357713D01*
X139887216Y-90262475D02*
X139815787Y-90214856D01*
X139815787Y-90214856D02*
X139780073Y-90167236D01*
X139780073Y-90167236D02*
X139744359Y-90071998D01*
X139744359Y-90071998D02*
X139744359Y-89786284D01*
X139744359Y-89786284D02*
X139780073Y-89691046D01*
X139780073Y-89691046D02*
X139815787Y-89643427D01*
X139815787Y-89643427D02*
X139887216Y-89595808D01*
X139887216Y-89595808D02*
X139994359Y-89595808D01*
X139994359Y-89595808D02*
X140065787Y-89643427D01*
X140065787Y-89643427D02*
X140101502Y-89691046D01*
X140101502Y-89691046D02*
X140137216Y-89786284D01*
X140137216Y-89786284D02*
X140137216Y-90071998D01*
X140137216Y-90071998D02*
X140101502Y-90167236D01*
X140101502Y-90167236D02*
X140065787Y-90214856D01*
X140065787Y-90214856D02*
X139994359Y-90262475D01*
X139994359Y-90262475D02*
X139887216Y-90262475D01*
X140458644Y-89595808D02*
X140458644Y-90262475D01*
X140458644Y-89691046D02*
X140494358Y-89643427D01*
X140494358Y-89643427D02*
X140565787Y-89595808D01*
X140565787Y-89595808D02*
X140672930Y-89595808D01*
X140672930Y-89595808D02*
X140744358Y-89643427D01*
X140744358Y-89643427D02*
X140780073Y-89738665D01*
X140780073Y-89738665D02*
X140780073Y-90262475D01*
X141030072Y-89595808D02*
X141315786Y-89595808D01*
X141137215Y-89262475D02*
X141137215Y-90119617D01*
X141137215Y-90119617D02*
X141172929Y-90214856D01*
X141172929Y-90214856D02*
X141244358Y-90262475D01*
X141244358Y-90262475D02*
X141315786Y-90262475D01*
X141565786Y-90262475D02*
X141565786Y-89595808D01*
X141565786Y-89786284D02*
X141601500Y-89691046D01*
X141601500Y-89691046D02*
X141637215Y-89643427D01*
X141637215Y-89643427D02*
X141708643Y-89595808D01*
X141708643Y-89595808D02*
X141780072Y-89595808D01*
X142137215Y-90262475D02*
X142065786Y-90214856D01*
X142065786Y-90214856D02*
X142030072Y-90167236D01*
X142030072Y-90167236D02*
X141994358Y-90071998D01*
X141994358Y-90071998D02*
X141994358Y-89786284D01*
X141994358Y-89786284D02*
X142030072Y-89691046D01*
X142030072Y-89691046D02*
X142065786Y-89643427D01*
X142065786Y-89643427D02*
X142137215Y-89595808D01*
X142137215Y-89595808D02*
X142244358Y-89595808D01*
X142244358Y-89595808D02*
X142315786Y-89643427D01*
X142315786Y-89643427D02*
X142351501Y-89691046D01*
X142351501Y-89691046D02*
X142387215Y-89786284D01*
X142387215Y-89786284D02*
X142387215Y-90071998D01*
X142387215Y-90071998D02*
X142351501Y-90167236D01*
X142351501Y-90167236D02*
X142315786Y-90214856D01*
X142315786Y-90214856D02*
X142244358Y-90262475D01*
X142244358Y-90262475D02*
X142137215Y-90262475D01*
X142815786Y-90262475D02*
X142744357Y-90214856D01*
X142744357Y-90214856D02*
X142708643Y-90119617D01*
X142708643Y-90119617D02*
X142708643Y-89262475D01*
X143565786Y-89262475D02*
X143815786Y-90262475D01*
X143815786Y-90262475D02*
X144065786Y-89262475D01*
X144244357Y-89262475D02*
X144708643Y-89262475D01*
X144708643Y-89262475D02*
X144458643Y-89643427D01*
X144458643Y-89643427D02*
X144565786Y-89643427D01*
X144565786Y-89643427D02*
X144637215Y-89691046D01*
X144637215Y-89691046D02*
X144672929Y-89738665D01*
X144672929Y-89738665D02*
X144708643Y-89833903D01*
X144708643Y-89833903D02*
X144708643Y-90071998D01*
X144708643Y-90071998D02*
X144672929Y-90167236D01*
X144672929Y-90167236D02*
X144637215Y-90214856D01*
X144637215Y-90214856D02*
X144565786Y-90262475D01*
X144565786Y-90262475D02*
X144351500Y-90262475D01*
X144351500Y-90262475D02*
X144280072Y-90214856D01*
X144280072Y-90214856D02*
X144244357Y-90167236D01*
X145030072Y-90167236D02*
X145065786Y-90214856D01*
X145065786Y-90214856D02*
X145030072Y-90262475D01*
X145030072Y-90262475D02*
X144994358Y-90214856D01*
X144994358Y-90214856D02*
X145030072Y-90167236D01*
X145030072Y-90167236D02*
X145030072Y-90262475D01*
X145780072Y-90262475D02*
X145351501Y-90262475D01*
X145565786Y-90262475D02*
X145565786Y-89262475D01*
X145565786Y-89262475D02*
X145494358Y-89405332D01*
X145494358Y-89405332D02*
X145422929Y-89500570D01*
X145422929Y-89500570D02*
X145351501Y-89548189D01*
X134708646Y-90967657D02*
X134744360Y-90920038D01*
X134744360Y-90920038D02*
X134815789Y-90872419D01*
X134815789Y-90872419D02*
X134994360Y-90872419D01*
X134994360Y-90872419D02*
X135065789Y-90920038D01*
X135065789Y-90920038D02*
X135101503Y-90967657D01*
X135101503Y-90967657D02*
X135137217Y-91062895D01*
X135137217Y-91062895D02*
X135137217Y-91158133D01*
X135137217Y-91158133D02*
X135101503Y-91300990D01*
X135101503Y-91300990D02*
X134672931Y-91872419D01*
X134672931Y-91872419D02*
X135137217Y-91872419D01*
X135601503Y-90872419D02*
X135672932Y-90872419D01*
X135672932Y-90872419D02*
X135744360Y-90920038D01*
X135744360Y-90920038D02*
X135780075Y-90967657D01*
X135780075Y-90967657D02*
X135815789Y-91062895D01*
X135815789Y-91062895D02*
X135851503Y-91253371D01*
X135851503Y-91253371D02*
X135851503Y-91491466D01*
X135851503Y-91491466D02*
X135815789Y-91681942D01*
X135815789Y-91681942D02*
X135780075Y-91777180D01*
X135780075Y-91777180D02*
X135744360Y-91824800D01*
X135744360Y-91824800D02*
X135672932Y-91872419D01*
X135672932Y-91872419D02*
X135601503Y-91872419D01*
X135601503Y-91872419D02*
X135530075Y-91824800D01*
X135530075Y-91824800D02*
X135494360Y-91777180D01*
X135494360Y-91777180D02*
X135458646Y-91681942D01*
X135458646Y-91681942D02*
X135422932Y-91491466D01*
X135422932Y-91491466D02*
X135422932Y-91253371D01*
X135422932Y-91253371D02*
X135458646Y-91062895D01*
X135458646Y-91062895D02*
X135494360Y-90967657D01*
X135494360Y-90967657D02*
X135530075Y-90920038D01*
X135530075Y-90920038D02*
X135601503Y-90872419D01*
X136137218Y-90967657D02*
X136172932Y-90920038D01*
X136172932Y-90920038D02*
X136244361Y-90872419D01*
X136244361Y-90872419D02*
X136422932Y-90872419D01*
X136422932Y-90872419D02*
X136494361Y-90920038D01*
X136494361Y-90920038D02*
X136530075Y-90967657D01*
X136530075Y-90967657D02*
X136565789Y-91062895D01*
X136565789Y-91062895D02*
X136565789Y-91158133D01*
X136565789Y-91158133D02*
X136530075Y-91300990D01*
X136530075Y-91300990D02*
X136101503Y-91872419D01*
X136101503Y-91872419D02*
X136565789Y-91872419D01*
X137244361Y-90872419D02*
X136887218Y-90872419D01*
X136887218Y-90872419D02*
X136851504Y-91348609D01*
X136851504Y-91348609D02*
X136887218Y-91300990D01*
X136887218Y-91300990D02*
X136958647Y-91253371D01*
X136958647Y-91253371D02*
X137137218Y-91253371D01*
X137137218Y-91253371D02*
X137208647Y-91300990D01*
X137208647Y-91300990D02*
X137244361Y-91348609D01*
X137244361Y-91348609D02*
X137280075Y-91443847D01*
X137280075Y-91443847D02*
X137280075Y-91681942D01*
X137280075Y-91681942D02*
X137244361Y-91777180D01*
X137244361Y-91777180D02*
X137208647Y-91824800D01*
X137208647Y-91824800D02*
X137137218Y-91872419D01*
X137137218Y-91872419D02*
X136958647Y-91872419D01*
X136958647Y-91872419D02*
X136887218Y-91824800D01*
X136887218Y-91824800D02*
X136851504Y-91777180D01*
X138315790Y-90872419D02*
X138387219Y-90872419D01*
X138387219Y-90872419D02*
X138458647Y-90920038D01*
X138458647Y-90920038D02*
X138494362Y-90967657D01*
X138494362Y-90967657D02*
X138530076Y-91062895D01*
X138530076Y-91062895D02*
X138565790Y-91253371D01*
X138565790Y-91253371D02*
X138565790Y-91491466D01*
X138565790Y-91491466D02*
X138530076Y-91681942D01*
X138530076Y-91681942D02*
X138494362Y-91777180D01*
X138494362Y-91777180D02*
X138458647Y-91824800D01*
X138458647Y-91824800D02*
X138387219Y-91872419D01*
X138387219Y-91872419D02*
X138315790Y-91872419D01*
X138315790Y-91872419D02*
X138244362Y-91824800D01*
X138244362Y-91824800D02*
X138208647Y-91777180D01*
X138208647Y-91777180D02*
X138172933Y-91681942D01*
X138172933Y-91681942D02*
X138137219Y-91491466D01*
X138137219Y-91491466D02*
X138137219Y-91253371D01*
X138137219Y-91253371D02*
X138172933Y-91062895D01*
X138172933Y-91062895D02*
X138208647Y-90967657D01*
X138208647Y-90967657D02*
X138244362Y-90920038D01*
X138244362Y-90920038D02*
X138315790Y-90872419D01*
X138994362Y-91300990D02*
X138922933Y-91253371D01*
X138922933Y-91253371D02*
X138887219Y-91205752D01*
X138887219Y-91205752D02*
X138851505Y-91110514D01*
X138851505Y-91110514D02*
X138851505Y-91062895D01*
X138851505Y-91062895D02*
X138887219Y-90967657D01*
X138887219Y-90967657D02*
X138922933Y-90920038D01*
X138922933Y-90920038D02*
X138994362Y-90872419D01*
X138994362Y-90872419D02*
X139137219Y-90872419D01*
X139137219Y-90872419D02*
X139208648Y-90920038D01*
X139208648Y-90920038D02*
X139244362Y-90967657D01*
X139244362Y-90967657D02*
X139280076Y-91062895D01*
X139280076Y-91062895D02*
X139280076Y-91110514D01*
X139280076Y-91110514D02*
X139244362Y-91205752D01*
X139244362Y-91205752D02*
X139208648Y-91253371D01*
X139208648Y-91253371D02*
X139137219Y-91300990D01*
X139137219Y-91300990D02*
X138994362Y-91300990D01*
X138994362Y-91300990D02*
X138922933Y-91348609D01*
X138922933Y-91348609D02*
X138887219Y-91396228D01*
X138887219Y-91396228D02*
X138851505Y-91491466D01*
X138851505Y-91491466D02*
X138851505Y-91681942D01*
X138851505Y-91681942D02*
X138887219Y-91777180D01*
X138887219Y-91777180D02*
X138922933Y-91824800D01*
X138922933Y-91824800D02*
X138994362Y-91872419D01*
X138994362Y-91872419D02*
X139137219Y-91872419D01*
X139137219Y-91872419D02*
X139208648Y-91824800D01*
X139208648Y-91824800D02*
X139244362Y-91777180D01*
X139244362Y-91777180D02*
X139280076Y-91681942D01*
X139280076Y-91681942D02*
X139280076Y-91491466D01*
X139280076Y-91491466D02*
X139244362Y-91396228D01*
X139244362Y-91396228D02*
X139208648Y-91348609D01*
X139208648Y-91348609D02*
X139137219Y-91300990D01*
X140565791Y-91872419D02*
X140137220Y-91872419D01*
X140351505Y-91872419D02*
X140351505Y-90872419D01*
X140351505Y-90872419D02*
X140280077Y-91015276D01*
X140280077Y-91015276D02*
X140208648Y-91110514D01*
X140208648Y-91110514D02*
X140137220Y-91158133D01*
X140815791Y-90872419D02*
X141280077Y-90872419D01*
X141280077Y-90872419D02*
X141030077Y-91253371D01*
X141030077Y-91253371D02*
X141137220Y-91253371D01*
X141137220Y-91253371D02*
X141208649Y-91300990D01*
X141208649Y-91300990D02*
X141244363Y-91348609D01*
X141244363Y-91348609D02*
X141280077Y-91443847D01*
X141280077Y-91443847D02*
X141280077Y-91681942D01*
X141280077Y-91681942D02*
X141244363Y-91777180D01*
X141244363Y-91777180D02*
X141208649Y-91824800D01*
X141208649Y-91824800D02*
X141137220Y-91872419D01*
X141137220Y-91872419D02*
X140922934Y-91872419D01*
X140922934Y-91872419D02*
X140851506Y-91824800D01*
X140851506Y-91824800D02*
X140815791Y-91777180D01*
X143315793Y-91872419D02*
X143315793Y-90872419D01*
X143315793Y-90872419D02*
X143601507Y-90872419D01*
X143601507Y-90872419D02*
X143672936Y-90920038D01*
X143672936Y-90920038D02*
X143708650Y-90967657D01*
X143708650Y-90967657D02*
X143744364Y-91062895D01*
X143744364Y-91062895D02*
X143744364Y-91205752D01*
X143744364Y-91205752D02*
X143708650Y-91300990D01*
X143708650Y-91300990D02*
X143672936Y-91348609D01*
X143672936Y-91348609D02*
X143601507Y-91396228D01*
X143601507Y-91396228D02*
X143315793Y-91396228D01*
X144315793Y-91348609D02*
X144065793Y-91348609D01*
X144065793Y-91872419D02*
X144065793Y-90872419D01*
X144065793Y-90872419D02*
X144422936Y-90872419D01*
X145137221Y-91872419D02*
X144887221Y-91396228D01*
X144708650Y-91872419D02*
X144708650Y-90872419D01*
X144708650Y-90872419D02*
X144994364Y-90872419D01*
X144994364Y-90872419D02*
X145065793Y-90920038D01*
X145065793Y-90920038D02*
X145101507Y-90967657D01*
X145101507Y-90967657D02*
X145137221Y-91062895D01*
X145137221Y-91062895D02*
X145137221Y-91205752D01*
X145137221Y-91205752D02*
X145101507Y-91300990D01*
X145101507Y-91300990D02*
X145065793Y-91348609D01*
X145065793Y-91348609D02*
X144994364Y-91396228D01*
X144994364Y-91396228D02*
X144708650Y-91396228D01*
X107601503Y-68262475D02*
X107244360Y-68262475D01*
X107244360Y-68262475D02*
X107244360Y-67262475D01*
X107851503Y-68262475D02*
X107851503Y-67595808D01*
X107851503Y-67262475D02*
X107815789Y-67310094D01*
X107815789Y-67310094D02*
X107851503Y-67357713D01*
X107851503Y-67357713D02*
X107887217Y-67310094D01*
X107887217Y-67310094D02*
X107851503Y-67262475D01*
X107851503Y-67262475D02*
X107851503Y-67357713D01*
X108530075Y-67595808D02*
X108530075Y-68405332D01*
X108530075Y-68405332D02*
X108494360Y-68500570D01*
X108494360Y-68500570D02*
X108458646Y-68548189D01*
X108458646Y-68548189D02*
X108387217Y-68595808D01*
X108387217Y-68595808D02*
X108280075Y-68595808D01*
X108280075Y-68595808D02*
X108208646Y-68548189D01*
X108530075Y-68214856D02*
X108458646Y-68262475D01*
X108458646Y-68262475D02*
X108315789Y-68262475D01*
X108315789Y-68262475D02*
X108244360Y-68214856D01*
X108244360Y-68214856D02*
X108208646Y-68167236D01*
X108208646Y-68167236D02*
X108172932Y-68071998D01*
X108172932Y-68071998D02*
X108172932Y-67786284D01*
X108172932Y-67786284D02*
X108208646Y-67691046D01*
X108208646Y-67691046D02*
X108244360Y-67643427D01*
X108244360Y-67643427D02*
X108315789Y-67595808D01*
X108315789Y-67595808D02*
X108458646Y-67595808D01*
X108458646Y-67595808D02*
X108530075Y-67643427D01*
X108887217Y-68262475D02*
X108887217Y-67262475D01*
X109208646Y-68262475D02*
X109208646Y-67738665D01*
X109208646Y-67738665D02*
X109172931Y-67643427D01*
X109172931Y-67643427D02*
X109101503Y-67595808D01*
X109101503Y-67595808D02*
X108994360Y-67595808D01*
X108994360Y-67595808D02*
X108922931Y-67643427D01*
X108922931Y-67643427D02*
X108887217Y-67691046D01*
X109458645Y-67595808D02*
X109744359Y-67595808D01*
X109565788Y-67262475D02*
X109565788Y-68119617D01*
X109565788Y-68119617D02*
X109601502Y-68214856D01*
X109601502Y-68214856D02*
X109672931Y-68262475D01*
X109672931Y-68262475D02*
X109744359Y-68262475D01*
X109958645Y-68214856D02*
X110030073Y-68262475D01*
X110030073Y-68262475D02*
X110172930Y-68262475D01*
X110172930Y-68262475D02*
X110244359Y-68214856D01*
X110244359Y-68214856D02*
X110280073Y-68119617D01*
X110280073Y-68119617D02*
X110280073Y-68071998D01*
X110280073Y-68071998D02*
X110244359Y-67976760D01*
X110244359Y-67976760D02*
X110172930Y-67929141D01*
X110172930Y-67929141D02*
X110065788Y-67929141D01*
X110065788Y-67929141D02*
X109994359Y-67881522D01*
X109994359Y-67881522D02*
X109958645Y-67786284D01*
X109958645Y-67786284D02*
X109958645Y-67738665D01*
X109958645Y-67738665D02*
X109994359Y-67643427D01*
X109994359Y-67643427D02*
X110065788Y-67595808D01*
X110065788Y-67595808D02*
X110172930Y-67595808D01*
X110172930Y-67595808D02*
X110244359Y-67643427D01*
X107244360Y-69872419D02*
X107244360Y-68872419D01*
X107244360Y-69348609D02*
X107672931Y-69348609D01*
X107672931Y-69872419D02*
X107672931Y-68872419D01*
X108458645Y-69872419D02*
X108208645Y-69396228D01*
X108030074Y-69872419D02*
X108030074Y-68872419D01*
X108030074Y-68872419D02*
X108315788Y-68872419D01*
X108315788Y-68872419D02*
X108387217Y-68920038D01*
X108387217Y-68920038D02*
X108422931Y-68967657D01*
X108422931Y-68967657D02*
X108458645Y-69062895D01*
X108458645Y-69062895D02*
X108458645Y-69205752D01*
X108458645Y-69205752D02*
X108422931Y-69300990D01*
X108422931Y-69300990D02*
X108387217Y-69348609D01*
X108387217Y-69348609D02*
X108315788Y-69396228D01*
X108315788Y-69396228D02*
X108030074Y-69396228D01*
X108780074Y-69872419D02*
X108780074Y-68872419D01*
X108780074Y-68872419D02*
X108958645Y-68872419D01*
X108958645Y-68872419D02*
X109065788Y-68920038D01*
X109065788Y-68920038D02*
X109137217Y-69015276D01*
X109137217Y-69015276D02*
X109172931Y-69110514D01*
X109172931Y-69110514D02*
X109208645Y-69300990D01*
X109208645Y-69300990D02*
X109208645Y-69443847D01*
X109208645Y-69443847D02*
X109172931Y-69634323D01*
X109172931Y-69634323D02*
X109137217Y-69729561D01*
X109137217Y-69729561D02*
X109065788Y-69824800D01*
X109065788Y-69824800D02*
X108958645Y-69872419D01*
X108958645Y-69872419D02*
X108780074Y-69872419D01*
X109530074Y-69872419D02*
X109530074Y-68872419D01*
X109530074Y-68872419D02*
X109708645Y-68872419D01*
X109708645Y-68872419D02*
X109815788Y-68920038D01*
X109815788Y-68920038D02*
X109887217Y-69015276D01*
X109887217Y-69015276D02*
X109922931Y-69110514D01*
X109922931Y-69110514D02*
X109958645Y-69300990D01*
X109958645Y-69300990D02*
X109958645Y-69443847D01*
X109958645Y-69443847D02*
X109922931Y-69634323D01*
X109922931Y-69634323D02*
X109887217Y-69729561D01*
X109887217Y-69729561D02*
X109815788Y-69824800D01*
X109815788Y-69824800D02*
X109708645Y-69872419D01*
X109708645Y-69872419D02*
X109530074Y-69872419D01*
X110315788Y-69824800D02*
X110315788Y-69872419D01*
X110315788Y-69872419D02*
X110280074Y-69967657D01*
X110280074Y-69967657D02*
X110244360Y-70015276D01*
X110994360Y-68872419D02*
X110637217Y-68872419D01*
X110637217Y-68872419D02*
X110601503Y-69348609D01*
X110601503Y-69348609D02*
X110637217Y-69300990D01*
X110637217Y-69300990D02*
X110708646Y-69253371D01*
X110708646Y-69253371D02*
X110887217Y-69253371D01*
X110887217Y-69253371D02*
X110958646Y-69300990D01*
X110958646Y-69300990D02*
X110994360Y-69348609D01*
X110994360Y-69348609D02*
X111030074Y-69443847D01*
X111030074Y-69443847D02*
X111030074Y-69681942D01*
X111030074Y-69681942D02*
X110994360Y-69777180D01*
X110994360Y-69777180D02*
X110958646Y-69824800D01*
X110958646Y-69824800D02*
X110887217Y-69872419D01*
X110887217Y-69872419D02*
X110708646Y-69872419D01*
X110708646Y-69872419D02*
X110637217Y-69824800D01*
X110637217Y-69824800D02*
X110601503Y-69777180D01*
X111280074Y-69205752D02*
X111458646Y-69872419D01*
X111458646Y-69872419D02*
X111637217Y-69205752D01*
X139327693Y-79372419D02*
X138756265Y-79372419D01*
X139041979Y-79372419D02*
X139041979Y-78372419D01*
X139041979Y-78372419D02*
X138946741Y-78515276D01*
X138946741Y-78515276D02*
X138851503Y-78610514D01*
X138851503Y-78610514D02*
X138756265Y-78658133D01*
X139708646Y-78467657D02*
X139756265Y-78420038D01*
X139756265Y-78420038D02*
X139851503Y-78372419D01*
X139851503Y-78372419D02*
X140089598Y-78372419D01*
X140089598Y-78372419D02*
X140184836Y-78420038D01*
X140184836Y-78420038D02*
X140232455Y-78467657D01*
X140232455Y-78467657D02*
X140280074Y-78562895D01*
X140280074Y-78562895D02*
X140280074Y-78658133D01*
X140280074Y-78658133D02*
X140232455Y-78800990D01*
X140232455Y-78800990D02*
X139661027Y-79372419D01*
X139661027Y-79372419D02*
X140280074Y-79372419D01*
X140899122Y-78372419D02*
X140994360Y-78372419D01*
X140994360Y-78372419D02*
X141089598Y-78420038D01*
X141089598Y-78420038D02*
X141137217Y-78467657D01*
X141137217Y-78467657D02*
X141184836Y-78562895D01*
X141184836Y-78562895D02*
X141232455Y-78753371D01*
X141232455Y-78753371D02*
X141232455Y-78991466D01*
X141232455Y-78991466D02*
X141184836Y-79181942D01*
X141184836Y-79181942D02*
X141137217Y-79277180D01*
X141137217Y-79277180D02*
X141089598Y-79324800D01*
X141089598Y-79324800D02*
X140994360Y-79372419D01*
X140994360Y-79372419D02*
X140899122Y-79372419D01*
X140899122Y-79372419D02*
X140803884Y-79324800D01*
X140803884Y-79324800D02*
X140756265Y-79277180D01*
X140756265Y-79277180D02*
X140708646Y-79181942D01*
X140708646Y-79181942D02*
X140661027Y-78991466D01*
X140661027Y-78991466D02*
X140661027Y-78753371D01*
X140661027Y-78753371D02*
X140708646Y-78562895D01*
X140708646Y-78562895D02*
X140756265Y-78467657D01*
X140756265Y-78467657D02*
X140803884Y-78420038D01*
X140803884Y-78420038D02*
X140899122Y-78372419D01*
X141851503Y-78372419D02*
X141946741Y-78372419D01*
X141946741Y-78372419D02*
X142041979Y-78420038D01*
X142041979Y-78420038D02*
X142089598Y-78467657D01*
X142089598Y-78467657D02*
X142137217Y-78562895D01*
X142137217Y-78562895D02*
X142184836Y-78753371D01*
X142184836Y-78753371D02*
X142184836Y-78991466D01*
X142184836Y-78991466D02*
X142137217Y-79181942D01*
X142137217Y-79181942D02*
X142089598Y-79277180D01*
X142089598Y-79277180D02*
X142041979Y-79324800D01*
X142041979Y-79324800D02*
X141946741Y-79372419D01*
X141946741Y-79372419D02*
X141851503Y-79372419D01*
X141851503Y-79372419D02*
X141756265Y-79324800D01*
X141756265Y-79324800D02*
X141708646Y-79277180D01*
X141708646Y-79277180D02*
X141661027Y-79181942D01*
X141661027Y-79181942D02*
X141613408Y-78991466D01*
X141613408Y-78991466D02*
X141613408Y-78753371D01*
X141613408Y-78753371D02*
X141661027Y-78562895D01*
X141661027Y-78562895D02*
X141708646Y-78467657D01*
X141708646Y-78467657D02*
X141756265Y-78420038D01*
X141756265Y-78420038D02*
X141851503Y-78372419D01*
X116827693Y-90372419D02*
X116256265Y-90372419D01*
X116541979Y-90372419D02*
X116541979Y-89372419D01*
X116541979Y-89372419D02*
X116446741Y-89515276D01*
X116446741Y-89515276D02*
X116351503Y-89610514D01*
X116351503Y-89610514D02*
X116256265Y-89658133D01*
X117399122Y-89800990D02*
X117303884Y-89753371D01*
X117303884Y-89753371D02*
X117256265Y-89705752D01*
X117256265Y-89705752D02*
X117208646Y-89610514D01*
X117208646Y-89610514D02*
X117208646Y-89562895D01*
X117208646Y-89562895D02*
X117256265Y-89467657D01*
X117256265Y-89467657D02*
X117303884Y-89420038D01*
X117303884Y-89420038D02*
X117399122Y-89372419D01*
X117399122Y-89372419D02*
X117589598Y-89372419D01*
X117589598Y-89372419D02*
X117684836Y-89420038D01*
X117684836Y-89420038D02*
X117732455Y-89467657D01*
X117732455Y-89467657D02*
X117780074Y-89562895D01*
X117780074Y-89562895D02*
X117780074Y-89610514D01*
X117780074Y-89610514D02*
X117732455Y-89705752D01*
X117732455Y-89705752D02*
X117684836Y-89753371D01*
X117684836Y-89753371D02*
X117589598Y-89800990D01*
X117589598Y-89800990D02*
X117399122Y-89800990D01*
X117399122Y-89800990D02*
X117303884Y-89848609D01*
X117303884Y-89848609D02*
X117256265Y-89896228D01*
X117256265Y-89896228D02*
X117208646Y-89991466D01*
X117208646Y-89991466D02*
X117208646Y-90181942D01*
X117208646Y-90181942D02*
X117256265Y-90277180D01*
X117256265Y-90277180D02*
X117303884Y-90324800D01*
X117303884Y-90324800D02*
X117399122Y-90372419D01*
X117399122Y-90372419D02*
X117589598Y-90372419D01*
X117589598Y-90372419D02*
X117684836Y-90324800D01*
X117684836Y-90324800D02*
X117732455Y-90277180D01*
X117732455Y-90277180D02*
X117780074Y-90181942D01*
X117780074Y-90181942D02*
X117780074Y-89991466D01*
X117780074Y-89991466D02*
X117732455Y-89896228D01*
X117732455Y-89896228D02*
X117684836Y-89848609D01*
X117684836Y-89848609D02*
X117589598Y-89800990D01*
X118399122Y-89372419D02*
X118494360Y-89372419D01*
X118494360Y-89372419D02*
X118589598Y-89420038D01*
X118589598Y-89420038D02*
X118637217Y-89467657D01*
X118637217Y-89467657D02*
X118684836Y-89562895D01*
X118684836Y-89562895D02*
X118732455Y-89753371D01*
X118732455Y-89753371D02*
X118732455Y-89991466D01*
X118732455Y-89991466D02*
X118684836Y-90181942D01*
X118684836Y-90181942D02*
X118637217Y-90277180D01*
X118637217Y-90277180D02*
X118589598Y-90324800D01*
X118589598Y-90324800D02*
X118494360Y-90372419D01*
X118494360Y-90372419D02*
X118399122Y-90372419D01*
X118399122Y-90372419D02*
X118303884Y-90324800D01*
X118303884Y-90324800D02*
X118256265Y-90277180D01*
X118256265Y-90277180D02*
X118208646Y-90181942D01*
X118208646Y-90181942D02*
X118161027Y-89991466D01*
X118161027Y-89991466D02*
X118161027Y-89753371D01*
X118161027Y-89753371D02*
X118208646Y-89562895D01*
X118208646Y-89562895D02*
X118256265Y-89467657D01*
X118256265Y-89467657D02*
X118303884Y-89420038D01*
X118303884Y-89420038D02*
X118399122Y-89372419D01*
X119351503Y-89372419D02*
X119446741Y-89372419D01*
X119446741Y-89372419D02*
X119541979Y-89420038D01*
X119541979Y-89420038D02*
X119589598Y-89467657D01*
X119589598Y-89467657D02*
X119637217Y-89562895D01*
X119637217Y-89562895D02*
X119684836Y-89753371D01*
X119684836Y-89753371D02*
X119684836Y-89991466D01*
X119684836Y-89991466D02*
X119637217Y-90181942D01*
X119637217Y-90181942D02*
X119589598Y-90277180D01*
X119589598Y-90277180D02*
X119541979Y-90324800D01*
X119541979Y-90324800D02*
X119446741Y-90372419D01*
X119446741Y-90372419D02*
X119351503Y-90372419D01*
X119351503Y-90372419D02*
X119256265Y-90324800D01*
X119256265Y-90324800D02*
X119208646Y-90277180D01*
X119208646Y-90277180D02*
X119161027Y-90181942D01*
X119161027Y-90181942D02*
X119113408Y-89991466D01*
X119113408Y-89991466D02*
X119113408Y-89753371D01*
X119113408Y-89753371D02*
X119161027Y-89562895D01*
X119161027Y-89562895D02*
X119208646Y-89467657D01*
X119208646Y-89467657D02*
X119256265Y-89420038D01*
X119256265Y-89420038D02*
X119351503Y-89372419D01*
X120303884Y-89372419D02*
X120399122Y-89372419D01*
X120399122Y-89372419D02*
X120494360Y-89420038D01*
X120494360Y-89420038D02*
X120541979Y-89467657D01*
X120541979Y-89467657D02*
X120589598Y-89562895D01*
X120589598Y-89562895D02*
X120637217Y-89753371D01*
X120637217Y-89753371D02*
X120637217Y-89991466D01*
X120637217Y-89991466D02*
X120589598Y-90181942D01*
X120589598Y-90181942D02*
X120541979Y-90277180D01*
X120541979Y-90277180D02*
X120494360Y-90324800D01*
X120494360Y-90324800D02*
X120399122Y-90372419D01*
X120399122Y-90372419D02*
X120303884Y-90372419D01*
X120303884Y-90372419D02*
X120208646Y-90324800D01*
X120208646Y-90324800D02*
X120161027Y-90277180D01*
X120161027Y-90277180D02*
X120113408Y-90181942D01*
X120113408Y-90181942D02*
X120065789Y-89991466D01*
X120065789Y-89991466D02*
X120065789Y-89753371D01*
X120065789Y-89753371D02*
X120113408Y-89562895D01*
X120113408Y-89562895D02*
X120161027Y-89467657D01*
X120161027Y-89467657D02*
X120208646Y-89420038D01*
X120208646Y-89420038D02*
X120303884Y-89372419D01*
X139827693Y-83872419D02*
X139256265Y-83872419D01*
X139541979Y-83872419D02*
X139541979Y-82872419D01*
X139541979Y-82872419D02*
X139446741Y-83015276D01*
X139446741Y-83015276D02*
X139351503Y-83110514D01*
X139351503Y-83110514D02*
X139256265Y-83158133D01*
X140208646Y-82967657D02*
X140256265Y-82920038D01*
X140256265Y-82920038D02*
X140351503Y-82872419D01*
X140351503Y-82872419D02*
X140589598Y-82872419D01*
X140589598Y-82872419D02*
X140684836Y-82920038D01*
X140684836Y-82920038D02*
X140732455Y-82967657D01*
X140732455Y-82967657D02*
X140780074Y-83062895D01*
X140780074Y-83062895D02*
X140780074Y-83158133D01*
X140780074Y-83158133D02*
X140732455Y-83300990D01*
X140732455Y-83300990D02*
X140161027Y-83872419D01*
X140161027Y-83872419D02*
X140780074Y-83872419D01*
X141399122Y-82872419D02*
X141494360Y-82872419D01*
X141494360Y-82872419D02*
X141589598Y-82920038D01*
X141589598Y-82920038D02*
X141637217Y-82967657D01*
X141637217Y-82967657D02*
X141684836Y-83062895D01*
X141684836Y-83062895D02*
X141732455Y-83253371D01*
X141732455Y-83253371D02*
X141732455Y-83491466D01*
X141732455Y-83491466D02*
X141684836Y-83681942D01*
X141684836Y-83681942D02*
X141637217Y-83777180D01*
X141637217Y-83777180D02*
X141589598Y-83824800D01*
X141589598Y-83824800D02*
X141494360Y-83872419D01*
X141494360Y-83872419D02*
X141399122Y-83872419D01*
X141399122Y-83872419D02*
X141303884Y-83824800D01*
X141303884Y-83824800D02*
X141256265Y-83777180D01*
X141256265Y-83777180D02*
X141208646Y-83681942D01*
X141208646Y-83681942D02*
X141161027Y-83491466D01*
X141161027Y-83491466D02*
X141161027Y-83253371D01*
X141161027Y-83253371D02*
X141208646Y-83062895D01*
X141208646Y-83062895D02*
X141256265Y-82967657D01*
X141256265Y-82967657D02*
X141303884Y-82920038D01*
X141303884Y-82920038D02*
X141399122Y-82872419D01*
X142351503Y-82872419D02*
X142446741Y-82872419D01*
X142446741Y-82872419D02*
X142541979Y-82920038D01*
X142541979Y-82920038D02*
X142589598Y-82967657D01*
X142589598Y-82967657D02*
X142637217Y-83062895D01*
X142637217Y-83062895D02*
X142684836Y-83253371D01*
X142684836Y-83253371D02*
X142684836Y-83491466D01*
X142684836Y-83491466D02*
X142637217Y-83681942D01*
X142637217Y-83681942D02*
X142589598Y-83777180D01*
X142589598Y-83777180D02*
X142541979Y-83824800D01*
X142541979Y-83824800D02*
X142446741Y-83872419D01*
X142446741Y-83872419D02*
X142351503Y-83872419D01*
X142351503Y-83872419D02*
X142256265Y-83824800D01*
X142256265Y-83824800D02*
X142208646Y-83777180D01*
X142208646Y-83777180D02*
X142161027Y-83681942D01*
X142161027Y-83681942D02*
X142113408Y-83491466D01*
X142113408Y-83491466D02*
X142113408Y-83253371D01*
X142113408Y-83253371D02*
X142161027Y-83062895D01*
X142161027Y-83062895D02*
X142208646Y-82967657D01*
X142208646Y-82967657D02*
X142256265Y-82920038D01*
X142256265Y-82920038D02*
X142351503Y-82872419D01*
X145803884Y-80372419D02*
X145803884Y-79372419D01*
X145803884Y-79372419D02*
X146041979Y-79372419D01*
X146041979Y-79372419D02*
X146184836Y-79420038D01*
X146184836Y-79420038D02*
X146280074Y-79515276D01*
X146280074Y-79515276D02*
X146327693Y-79610514D01*
X146327693Y-79610514D02*
X146375312Y-79800990D01*
X146375312Y-79800990D02*
X146375312Y-79943847D01*
X146375312Y-79943847D02*
X146327693Y-80134323D01*
X146327693Y-80134323D02*
X146280074Y-80229561D01*
X146280074Y-80229561D02*
X146184836Y-80324800D01*
X146184836Y-80324800D02*
X146041979Y-80372419D01*
X146041979Y-80372419D02*
X145803884Y-80372419D01*
X146803884Y-80372419D02*
X146803884Y-79705752D01*
X146803884Y-79372419D02*
X146756265Y-79420038D01*
X146756265Y-79420038D02*
X146803884Y-79467657D01*
X146803884Y-79467657D02*
X146851503Y-79420038D01*
X146851503Y-79420038D02*
X146803884Y-79372419D01*
X146803884Y-79372419D02*
X146803884Y-79467657D01*
X147280074Y-80372419D02*
X147280074Y-79705752D01*
X147280074Y-79896228D02*
X147327693Y-79800990D01*
X147327693Y-79800990D02*
X147375312Y-79753371D01*
X147375312Y-79753371D02*
X147470550Y-79705752D01*
X147470550Y-79705752D02*
X147565788Y-79705752D01*
X117803884Y-87872419D02*
X117803884Y-86872419D01*
X117803884Y-86872419D02*
X118184836Y-86872419D01*
X118184836Y-86872419D02*
X118280074Y-86920038D01*
X118280074Y-86920038D02*
X118327693Y-86967657D01*
X118327693Y-86967657D02*
X118375312Y-87062895D01*
X118375312Y-87062895D02*
X118375312Y-87205752D01*
X118375312Y-87205752D02*
X118327693Y-87300990D01*
X118327693Y-87300990D02*
X118280074Y-87348609D01*
X118280074Y-87348609D02*
X118184836Y-87396228D01*
X118184836Y-87396228D02*
X117803884Y-87396228D01*
X118803884Y-87872419D02*
X118803884Y-86872419D01*
X118803884Y-86872419D02*
X119375312Y-87872419D01*
X119375312Y-87872419D02*
X119375312Y-86872419D01*
X119803884Y-86967657D02*
X119851503Y-86920038D01*
X119851503Y-86920038D02*
X119946741Y-86872419D01*
X119946741Y-86872419D02*
X120184836Y-86872419D01*
X120184836Y-86872419D02*
X120280074Y-86920038D01*
X120280074Y-86920038D02*
X120327693Y-86967657D01*
X120327693Y-86967657D02*
X120375312Y-87062895D01*
X120375312Y-87062895D02*
X120375312Y-87158133D01*
X120375312Y-87158133D02*
X120327693Y-87300990D01*
X120327693Y-87300990D02*
X119756265Y-87872419D01*
X119756265Y-87872419D02*
X120375312Y-87872419D01*
X120756265Y-86967657D02*
X120803884Y-86920038D01*
X120803884Y-86920038D02*
X120899122Y-86872419D01*
X120899122Y-86872419D02*
X121137217Y-86872419D01*
X121137217Y-86872419D02*
X121232455Y-86920038D01*
X121232455Y-86920038D02*
X121280074Y-86967657D01*
X121280074Y-86967657D02*
X121327693Y-87062895D01*
X121327693Y-87062895D02*
X121327693Y-87158133D01*
X121327693Y-87158133D02*
X121280074Y-87300990D01*
X121280074Y-87300990D02*
X120708646Y-87872419D01*
X120708646Y-87872419D02*
X121327693Y-87872419D01*
X121708646Y-86967657D02*
X121756265Y-86920038D01*
X121756265Y-86920038D02*
X121851503Y-86872419D01*
X121851503Y-86872419D02*
X122089598Y-86872419D01*
X122089598Y-86872419D02*
X122184836Y-86920038D01*
X122184836Y-86920038D02*
X122232455Y-86967657D01*
X122232455Y-86967657D02*
X122280074Y-87062895D01*
X122280074Y-87062895D02*
X122280074Y-87158133D01*
X122280074Y-87158133D02*
X122232455Y-87300990D01*
X122232455Y-87300990D02*
X121661027Y-87872419D01*
X121661027Y-87872419D02*
X122280074Y-87872419D01*
X122661027Y-86967657D02*
X122708646Y-86920038D01*
X122708646Y-86920038D02*
X122803884Y-86872419D01*
X122803884Y-86872419D02*
X123041979Y-86872419D01*
X123041979Y-86872419D02*
X123137217Y-86920038D01*
X123137217Y-86920038D02*
X123184836Y-86967657D01*
X123184836Y-86967657D02*
X123232455Y-87062895D01*
X123232455Y-87062895D02*
X123232455Y-87158133D01*
X123232455Y-87158133D02*
X123184836Y-87300990D01*
X123184836Y-87300990D02*
X122613408Y-87872419D01*
X122613408Y-87872419D02*
X123232455Y-87872419D01*
X107327693Y-82920038D02*
X107232455Y-82872419D01*
X107232455Y-82872419D02*
X107089598Y-82872419D01*
X107089598Y-82872419D02*
X106946741Y-82920038D01*
X106946741Y-82920038D02*
X106851503Y-83015276D01*
X106851503Y-83015276D02*
X106803884Y-83110514D01*
X106803884Y-83110514D02*
X106756265Y-83300990D01*
X106756265Y-83300990D02*
X106756265Y-83443847D01*
X106756265Y-83443847D02*
X106803884Y-83634323D01*
X106803884Y-83634323D02*
X106851503Y-83729561D01*
X106851503Y-83729561D02*
X106946741Y-83824800D01*
X106946741Y-83824800D02*
X107089598Y-83872419D01*
X107089598Y-83872419D02*
X107184836Y-83872419D01*
X107184836Y-83872419D02*
X107327693Y-83824800D01*
X107327693Y-83824800D02*
X107375312Y-83777180D01*
X107375312Y-83777180D02*
X107375312Y-83443847D01*
X107375312Y-83443847D02*
X107184836Y-83443847D01*
X107803884Y-83872419D02*
X107803884Y-82872419D01*
X107803884Y-82872419D02*
X108375312Y-83872419D01*
X108375312Y-83872419D02*
X108375312Y-82872419D01*
X108851503Y-83872419D02*
X108851503Y-82872419D01*
X108851503Y-82872419D02*
X109089598Y-82872419D01*
X109089598Y-82872419D02*
X109232455Y-82920038D01*
X109232455Y-82920038D02*
X109327693Y-83015276D01*
X109327693Y-83015276D02*
X109375312Y-83110514D01*
X109375312Y-83110514D02*
X109422931Y-83300990D01*
X109422931Y-83300990D02*
X109422931Y-83443847D01*
X109422931Y-83443847D02*
X109375312Y-83634323D01*
X109375312Y-83634323D02*
X109327693Y-83729561D01*
X109327693Y-83729561D02*
X109232455Y-83824800D01*
X109232455Y-83824800D02*
X109089598Y-83872419D01*
X109089598Y-83872419D02*
X108851503Y-83872419D01*
X128827693Y-79372419D02*
X128256265Y-79372419D01*
X128541979Y-79372419D02*
X128541979Y-78372419D01*
X128541979Y-78372419D02*
X128446741Y-78515276D01*
X128446741Y-78515276D02*
X128351503Y-78610514D01*
X128351503Y-78610514D02*
X128256265Y-78658133D01*
X129208646Y-78467657D02*
X129256265Y-78420038D01*
X129256265Y-78420038D02*
X129351503Y-78372419D01*
X129351503Y-78372419D02*
X129589598Y-78372419D01*
X129589598Y-78372419D02*
X129684836Y-78420038D01*
X129684836Y-78420038D02*
X129732455Y-78467657D01*
X129732455Y-78467657D02*
X129780074Y-78562895D01*
X129780074Y-78562895D02*
X129780074Y-78658133D01*
X129780074Y-78658133D02*
X129732455Y-78800990D01*
X129732455Y-78800990D02*
X129161027Y-79372419D01*
X129161027Y-79372419D02*
X129780074Y-79372419D01*
X130399122Y-78372419D02*
X130494360Y-78372419D01*
X130494360Y-78372419D02*
X130589598Y-78420038D01*
X130589598Y-78420038D02*
X130637217Y-78467657D01*
X130637217Y-78467657D02*
X130684836Y-78562895D01*
X130684836Y-78562895D02*
X130732455Y-78753371D01*
X130732455Y-78753371D02*
X130732455Y-78991466D01*
X130732455Y-78991466D02*
X130684836Y-79181942D01*
X130684836Y-79181942D02*
X130637217Y-79277180D01*
X130637217Y-79277180D02*
X130589598Y-79324800D01*
X130589598Y-79324800D02*
X130494360Y-79372419D01*
X130494360Y-79372419D02*
X130399122Y-79372419D01*
X130399122Y-79372419D02*
X130303884Y-79324800D01*
X130303884Y-79324800D02*
X130256265Y-79277180D01*
X130256265Y-79277180D02*
X130208646Y-79181942D01*
X130208646Y-79181942D02*
X130161027Y-78991466D01*
X130161027Y-78991466D02*
X130161027Y-78753371D01*
X130161027Y-78753371D02*
X130208646Y-78562895D01*
X130208646Y-78562895D02*
X130256265Y-78467657D01*
X130256265Y-78467657D02*
X130303884Y-78420038D01*
X130303884Y-78420038D02*
X130399122Y-78372419D01*
X131351503Y-78372419D02*
X131446741Y-78372419D01*
X131446741Y-78372419D02*
X131541979Y-78420038D01*
X131541979Y-78420038D02*
X131589598Y-78467657D01*
X131589598Y-78467657D02*
X131637217Y-78562895D01*
X131637217Y-78562895D02*
X131684836Y-78753371D01*
X131684836Y-78753371D02*
X131684836Y-78991466D01*
X131684836Y-78991466D02*
X131637217Y-79181942D01*
X131637217Y-79181942D02*
X131589598Y-79277180D01*
X131589598Y-79277180D02*
X131541979Y-79324800D01*
X131541979Y-79324800D02*
X131446741Y-79372419D01*
X131446741Y-79372419D02*
X131351503Y-79372419D01*
X131351503Y-79372419D02*
X131256265Y-79324800D01*
X131256265Y-79324800D02*
X131208646Y-79277180D01*
X131208646Y-79277180D02*
X131161027Y-79181942D01*
X131161027Y-79181942D02*
X131113408Y-78991466D01*
X131113408Y-78991466D02*
X131113408Y-78753371D01*
X131113408Y-78753371D02*
X131161027Y-78562895D01*
X131161027Y-78562895D02*
X131208646Y-78467657D01*
X131208646Y-78467657D02*
X131256265Y-78420038D01*
X131256265Y-78420038D02*
X131351503Y-78372419D01*
X118327693Y-79372419D02*
X117756265Y-79372419D01*
X118041979Y-79372419D02*
X118041979Y-78372419D01*
X118041979Y-78372419D02*
X117946741Y-78515276D01*
X117946741Y-78515276D02*
X117851503Y-78610514D01*
X117851503Y-78610514D02*
X117756265Y-78658133D01*
X118708646Y-78467657D02*
X118756265Y-78420038D01*
X118756265Y-78420038D02*
X118851503Y-78372419D01*
X118851503Y-78372419D02*
X119089598Y-78372419D01*
X119089598Y-78372419D02*
X119184836Y-78420038D01*
X119184836Y-78420038D02*
X119232455Y-78467657D01*
X119232455Y-78467657D02*
X119280074Y-78562895D01*
X119280074Y-78562895D02*
X119280074Y-78658133D01*
X119280074Y-78658133D02*
X119232455Y-78800990D01*
X119232455Y-78800990D02*
X118661027Y-79372419D01*
X118661027Y-79372419D02*
X119280074Y-79372419D01*
X119899122Y-78372419D02*
X119994360Y-78372419D01*
X119994360Y-78372419D02*
X120089598Y-78420038D01*
X120089598Y-78420038D02*
X120137217Y-78467657D01*
X120137217Y-78467657D02*
X120184836Y-78562895D01*
X120184836Y-78562895D02*
X120232455Y-78753371D01*
X120232455Y-78753371D02*
X120232455Y-78991466D01*
X120232455Y-78991466D02*
X120184836Y-79181942D01*
X120184836Y-79181942D02*
X120137217Y-79277180D01*
X120137217Y-79277180D02*
X120089598Y-79324800D01*
X120089598Y-79324800D02*
X119994360Y-79372419D01*
X119994360Y-79372419D02*
X119899122Y-79372419D01*
X119899122Y-79372419D02*
X119803884Y-79324800D01*
X119803884Y-79324800D02*
X119756265Y-79277180D01*
X119756265Y-79277180D02*
X119708646Y-79181942D01*
X119708646Y-79181942D02*
X119661027Y-78991466D01*
X119661027Y-78991466D02*
X119661027Y-78753371D01*
X119661027Y-78753371D02*
X119708646Y-78562895D01*
X119708646Y-78562895D02*
X119756265Y-78467657D01*
X119756265Y-78467657D02*
X119803884Y-78420038D01*
X119803884Y-78420038D02*
X119899122Y-78372419D01*
X120851503Y-78372419D02*
X120946741Y-78372419D01*
X120946741Y-78372419D02*
X121041979Y-78420038D01*
X121041979Y-78420038D02*
X121089598Y-78467657D01*
X121089598Y-78467657D02*
X121137217Y-78562895D01*
X121137217Y-78562895D02*
X121184836Y-78753371D01*
X121184836Y-78753371D02*
X121184836Y-78991466D01*
X121184836Y-78991466D02*
X121137217Y-79181942D01*
X121137217Y-79181942D02*
X121089598Y-79277180D01*
X121089598Y-79277180D02*
X121041979Y-79324800D01*
X121041979Y-79324800D02*
X120946741Y-79372419D01*
X120946741Y-79372419D02*
X120851503Y-79372419D01*
X120851503Y-79372419D02*
X120756265Y-79324800D01*
X120756265Y-79324800D02*
X120708646Y-79277180D01*
X120708646Y-79277180D02*
X120661027Y-79181942D01*
X120661027Y-79181942D02*
X120613408Y-78991466D01*
X120613408Y-78991466D02*
X120613408Y-78753371D01*
X120613408Y-78753371D02*
X120661027Y-78562895D01*
X120661027Y-78562895D02*
X120708646Y-78467657D01*
X120708646Y-78467657D02*
X120756265Y-78420038D01*
X120756265Y-78420038D02*
X120851503Y-78372419D01*
X143803884Y-81872419D02*
X143803884Y-80872419D01*
X143803884Y-80872419D02*
X144184836Y-80872419D01*
X144184836Y-80872419D02*
X144280074Y-80920038D01*
X144280074Y-80920038D02*
X144327693Y-80967657D01*
X144327693Y-80967657D02*
X144375312Y-81062895D01*
X144375312Y-81062895D02*
X144375312Y-81205752D01*
X144375312Y-81205752D02*
X144327693Y-81300990D01*
X144327693Y-81300990D02*
X144280074Y-81348609D01*
X144280074Y-81348609D02*
X144184836Y-81396228D01*
X144184836Y-81396228D02*
X143803884Y-81396228D01*
X144708646Y-80872419D02*
X144946741Y-81872419D01*
X144946741Y-81872419D02*
X145137217Y-81158133D01*
X145137217Y-81158133D02*
X145327693Y-81872419D01*
X145327693Y-81872419D02*
X145565789Y-80872419D01*
X145946741Y-81872419D02*
X145946741Y-80872419D01*
X145946741Y-80872419D02*
X146280074Y-81586704D01*
X146280074Y-81586704D02*
X146613407Y-80872419D01*
X146613407Y-80872419D02*
X146613407Y-81872419D01*
X102086704Y-90743734D02*
X102086704Y-90267544D01*
X102372419Y-90838972D02*
X101372419Y-90505639D01*
X101372419Y-90505639D02*
X102372419Y-90172306D01*
X101372419Y-89648496D02*
X101372419Y-89553258D01*
X101372419Y-89553258D02*
X101420038Y-89458020D01*
X101420038Y-89458020D02*
X101467657Y-89410401D01*
X101467657Y-89410401D02*
X101562895Y-89362782D01*
X101562895Y-89362782D02*
X101753371Y-89315163D01*
X101753371Y-89315163D02*
X101991466Y-89315163D01*
X101991466Y-89315163D02*
X102181942Y-89362782D01*
X102181942Y-89362782D02*
X102277180Y-89410401D01*
X102277180Y-89410401D02*
X102324800Y-89458020D01*
X102324800Y-89458020D02*
X102372419Y-89553258D01*
X102372419Y-89553258D02*
X102372419Y-89648496D01*
X102372419Y-89648496D02*
X102324800Y-89743734D01*
X102324800Y-89743734D02*
X102277180Y-89791353D01*
X102277180Y-89791353D02*
X102181942Y-89838972D01*
X102181942Y-89838972D02*
X101991466Y-89886591D01*
X101991466Y-89886591D02*
X101753371Y-89886591D01*
X101753371Y-89886591D02*
X101562895Y-89838972D01*
X101562895Y-89838972D02*
X101467657Y-89791353D01*
X101467657Y-89791353D02*
X101420038Y-89743734D01*
X101420038Y-89743734D02*
X101372419Y-89648496D01*
X102086704Y-88172305D02*
X102086704Y-87696115D01*
X102372419Y-88267543D02*
X101372419Y-87934210D01*
X101372419Y-87934210D02*
X102372419Y-87600877D01*
X102372419Y-86743734D02*
X102372419Y-87315162D01*
X102372419Y-87029448D02*
X101372419Y-87029448D01*
X101372419Y-87029448D02*
X101515276Y-87124686D01*
X101515276Y-87124686D02*
X101610514Y-87219924D01*
X101610514Y-87219924D02*
X101658133Y-87315162D01*
X102086704Y-85600876D02*
X102086704Y-85124686D01*
X102372419Y-85696114D02*
X101372419Y-85362781D01*
X101372419Y-85362781D02*
X102372419Y-85029448D01*
X101467657Y-84743733D02*
X101420038Y-84696114D01*
X101420038Y-84696114D02*
X101372419Y-84600876D01*
X101372419Y-84600876D02*
X101372419Y-84362781D01*
X101372419Y-84362781D02*
X101420038Y-84267543D01*
X101420038Y-84267543D02*
X101467657Y-84219924D01*
X101467657Y-84219924D02*
X101562895Y-84172305D01*
X101562895Y-84172305D02*
X101658133Y-84172305D01*
X101658133Y-84172305D02*
X101800990Y-84219924D01*
X101800990Y-84219924D02*
X102372419Y-84791352D01*
X102372419Y-84791352D02*
X102372419Y-84172305D01*
X143994360Y-71689892D02*
X143744360Y-71689892D01*
X143744360Y-72108940D02*
X143744360Y-71308940D01*
X143744360Y-71308940D02*
X144101503Y-71308940D01*
X144494360Y-72108940D02*
X144422931Y-72070845D01*
X144422931Y-72070845D02*
X144387217Y-71994654D01*
X144387217Y-71994654D02*
X144387217Y-71308940D01*
X144708645Y-71575606D02*
X144887217Y-72108940D01*
X145065788Y-71575606D02*
X144887217Y-72108940D01*
X144887217Y-72108940D02*
X144815788Y-72299416D01*
X144815788Y-72299416D02*
X144780074Y-72337511D01*
X144780074Y-72337511D02*
X144708645Y-72375606D01*
X145280074Y-71575606D02*
X145422932Y-72108940D01*
X145422932Y-72108940D02*
X145565789Y-71727987D01*
X145565789Y-71727987D02*
X145708646Y-72108940D01*
X145708646Y-72108940D02*
X145851503Y-71575606D01*
X146137217Y-72108940D02*
X146137217Y-71308940D01*
X146458646Y-72108940D02*
X146458646Y-71689892D01*
X146458646Y-71689892D02*
X146422931Y-71613702D01*
X146422931Y-71613702D02*
X146351503Y-71575606D01*
X146351503Y-71575606D02*
X146244360Y-71575606D01*
X146244360Y-71575606D02*
X146172931Y-71613702D01*
X146172931Y-71613702D02*
X146137217Y-71651797D01*
X147101502Y-72070845D02*
X147030074Y-72108940D01*
X147030074Y-72108940D02*
X146887217Y-72108940D01*
X146887217Y-72108940D02*
X146815788Y-72070845D01*
X146815788Y-72070845D02*
X146780074Y-71994654D01*
X146780074Y-71994654D02*
X146780074Y-71689892D01*
X146780074Y-71689892D02*
X146815788Y-71613702D01*
X146815788Y-71613702D02*
X146887217Y-71575606D01*
X146887217Y-71575606D02*
X147030074Y-71575606D01*
X147030074Y-71575606D02*
X147101502Y-71613702D01*
X147101502Y-71613702D02*
X147137217Y-71689892D01*
X147137217Y-71689892D02*
X147137217Y-71766083D01*
X147137217Y-71766083D02*
X146780074Y-71842273D01*
X147744359Y-72070845D02*
X147672931Y-72108940D01*
X147672931Y-72108940D02*
X147530074Y-72108940D01*
X147530074Y-72108940D02*
X147458645Y-72070845D01*
X147458645Y-72070845D02*
X147422931Y-71994654D01*
X147422931Y-71994654D02*
X147422931Y-71689892D01*
X147422931Y-71689892D02*
X147458645Y-71613702D01*
X147458645Y-71613702D02*
X147530074Y-71575606D01*
X147530074Y-71575606D02*
X147672931Y-71575606D01*
X147672931Y-71575606D02*
X147744359Y-71613702D01*
X147744359Y-71613702D02*
X147780074Y-71689892D01*
X147780074Y-71689892D02*
X147780074Y-71766083D01*
X147780074Y-71766083D02*
X147422931Y-71842273D01*
X148208645Y-72108940D02*
X148137216Y-72070845D01*
X148137216Y-72070845D02*
X148101502Y-71994654D01*
X148101502Y-71994654D02*
X148101502Y-71308940D01*
X143744360Y-73396895D02*
X143744360Y-72596895D01*
X143744360Y-72596895D02*
X143922931Y-72596895D01*
X143922931Y-72596895D02*
X144030074Y-72634990D01*
X144030074Y-72634990D02*
X144101503Y-72711180D01*
X144101503Y-72711180D02*
X144137217Y-72787371D01*
X144137217Y-72787371D02*
X144172931Y-72939752D01*
X144172931Y-72939752D02*
X144172931Y-73054038D01*
X144172931Y-73054038D02*
X144137217Y-73206419D01*
X144137217Y-73206419D02*
X144101503Y-73282609D01*
X144101503Y-73282609D02*
X144030074Y-73358800D01*
X144030074Y-73358800D02*
X143922931Y-73396895D01*
X143922931Y-73396895D02*
X143744360Y-73396895D01*
X144887217Y-73396895D02*
X144458646Y-73396895D01*
X144672931Y-73396895D02*
X144672931Y-72596895D01*
X144672931Y-72596895D02*
X144601503Y-72711180D01*
X144601503Y-72711180D02*
X144530074Y-72787371D01*
X144530074Y-72787371D02*
X144458646Y-72825466D01*
X145172932Y-72673085D02*
X145208646Y-72634990D01*
X145208646Y-72634990D02*
X145280075Y-72596895D01*
X145280075Y-72596895D02*
X145458646Y-72596895D01*
X145458646Y-72596895D02*
X145530075Y-72634990D01*
X145530075Y-72634990D02*
X145565789Y-72673085D01*
X145565789Y-72673085D02*
X145601503Y-72749276D01*
X145601503Y-72749276D02*
X145601503Y-72825466D01*
X145601503Y-72825466D02*
X145565789Y-72939752D01*
X145565789Y-72939752D02*
X145137217Y-73396895D01*
X145137217Y-73396895D02*
X145601503Y-73396895D01*
X146422932Y-72596895D02*
X146887218Y-72596895D01*
X146887218Y-72596895D02*
X146637218Y-72901657D01*
X146637218Y-72901657D02*
X146744361Y-72901657D01*
X146744361Y-72901657D02*
X146815790Y-72939752D01*
X146815790Y-72939752D02*
X146851504Y-72977847D01*
X146851504Y-72977847D02*
X146887218Y-73054038D01*
X146887218Y-73054038D02*
X146887218Y-73244514D01*
X146887218Y-73244514D02*
X146851504Y-73320704D01*
X146851504Y-73320704D02*
X146815790Y-73358800D01*
X146815790Y-73358800D02*
X146744361Y-73396895D01*
X146744361Y-73396895D02*
X146530075Y-73396895D01*
X146530075Y-73396895D02*
X146458647Y-73358800D01*
X146458647Y-73358800D02*
X146422932Y-73320704D01*
X147137218Y-72863561D02*
X147315790Y-73396895D01*
X147315790Y-73396895D02*
X147494361Y-72863561D01*
X148744362Y-72634990D02*
X148672934Y-72596895D01*
X148672934Y-72596895D02*
X148565791Y-72596895D01*
X148565791Y-72596895D02*
X148458648Y-72634990D01*
X148458648Y-72634990D02*
X148387219Y-72711180D01*
X148387219Y-72711180D02*
X148351505Y-72787371D01*
X148351505Y-72787371D02*
X148315791Y-72939752D01*
X148315791Y-72939752D02*
X148315791Y-73054038D01*
X148315791Y-73054038D02*
X148351505Y-73206419D01*
X148351505Y-73206419D02*
X148387219Y-73282609D01*
X148387219Y-73282609D02*
X148458648Y-73358800D01*
X148458648Y-73358800D02*
X148565791Y-73396895D01*
X148565791Y-73396895D02*
X148637219Y-73396895D01*
X148637219Y-73396895D02*
X148744362Y-73358800D01*
X148744362Y-73358800D02*
X148780076Y-73320704D01*
X148780076Y-73320704D02*
X148780076Y-73054038D01*
X148780076Y-73054038D02*
X148637219Y-73054038D01*
X147827693Y-97372419D02*
X147256265Y-97372419D01*
X147541979Y-97372419D02*
X147541979Y-96372419D01*
X147541979Y-96372419D02*
X147446741Y-96515276D01*
X147446741Y-96515276D02*
X147351503Y-96610514D01*
X147351503Y-96610514D02*
X147256265Y-96658133D01*
X148208646Y-96467657D02*
X148256265Y-96420038D01*
X148256265Y-96420038D02*
X148351503Y-96372419D01*
X148351503Y-96372419D02*
X148589598Y-96372419D01*
X148589598Y-96372419D02*
X148684836Y-96420038D01*
X148684836Y-96420038D02*
X148732455Y-96467657D01*
X148732455Y-96467657D02*
X148780074Y-96562895D01*
X148780074Y-96562895D02*
X148780074Y-96658133D01*
X148780074Y-96658133D02*
X148732455Y-96800990D01*
X148732455Y-96800990D02*
X148161027Y-97372419D01*
X148161027Y-97372419D02*
X148780074Y-97372419D01*
X149065789Y-96372419D02*
X149399122Y-97372419D01*
X149399122Y-97372419D02*
X149732455Y-96372419D01*
X129303884Y-87872419D02*
X129303884Y-86872419D01*
X129303884Y-86872419D02*
X129684836Y-86872419D01*
X129684836Y-86872419D02*
X129780074Y-86920038D01*
X129780074Y-86920038D02*
X129827693Y-86967657D01*
X129827693Y-86967657D02*
X129875312Y-87062895D01*
X129875312Y-87062895D02*
X129875312Y-87205752D01*
X129875312Y-87205752D02*
X129827693Y-87300990D01*
X129827693Y-87300990D02*
X129780074Y-87348609D01*
X129780074Y-87348609D02*
X129684836Y-87396228D01*
X129684836Y-87396228D02*
X129303884Y-87396228D01*
X130303884Y-87872419D02*
X130303884Y-86872419D01*
X130303884Y-86872419D02*
X130875312Y-87872419D01*
X130875312Y-87872419D02*
X130875312Y-86872419D01*
X131303884Y-86967657D02*
X131351503Y-86920038D01*
X131351503Y-86920038D02*
X131446741Y-86872419D01*
X131446741Y-86872419D02*
X131684836Y-86872419D01*
X131684836Y-86872419D02*
X131780074Y-86920038D01*
X131780074Y-86920038D02*
X131827693Y-86967657D01*
X131827693Y-86967657D02*
X131875312Y-87062895D01*
X131875312Y-87062895D02*
X131875312Y-87158133D01*
X131875312Y-87158133D02*
X131827693Y-87300990D01*
X131827693Y-87300990D02*
X131256265Y-87872419D01*
X131256265Y-87872419D02*
X131875312Y-87872419D01*
X132256265Y-86967657D02*
X132303884Y-86920038D01*
X132303884Y-86920038D02*
X132399122Y-86872419D01*
X132399122Y-86872419D02*
X132637217Y-86872419D01*
X132637217Y-86872419D02*
X132732455Y-86920038D01*
X132732455Y-86920038D02*
X132780074Y-86967657D01*
X132780074Y-86967657D02*
X132827693Y-87062895D01*
X132827693Y-87062895D02*
X132827693Y-87158133D01*
X132827693Y-87158133D02*
X132780074Y-87300990D01*
X132780074Y-87300990D02*
X132208646Y-87872419D01*
X132208646Y-87872419D02*
X132827693Y-87872419D01*
X133208646Y-86967657D02*
X133256265Y-86920038D01*
X133256265Y-86920038D02*
X133351503Y-86872419D01*
X133351503Y-86872419D02*
X133589598Y-86872419D01*
X133589598Y-86872419D02*
X133684836Y-86920038D01*
X133684836Y-86920038D02*
X133732455Y-86967657D01*
X133732455Y-86967657D02*
X133780074Y-87062895D01*
X133780074Y-87062895D02*
X133780074Y-87158133D01*
X133780074Y-87158133D02*
X133732455Y-87300990D01*
X133732455Y-87300990D02*
X133161027Y-87872419D01*
X133161027Y-87872419D02*
X133780074Y-87872419D01*
X134161027Y-86967657D02*
X134208646Y-86920038D01*
X134208646Y-86920038D02*
X134303884Y-86872419D01*
X134303884Y-86872419D02*
X134541979Y-86872419D01*
X134541979Y-86872419D02*
X134637217Y-86920038D01*
X134637217Y-86920038D02*
X134684836Y-86967657D01*
X134684836Y-86967657D02*
X134732455Y-87062895D01*
X134732455Y-87062895D02*
X134732455Y-87158133D01*
X134732455Y-87158133D02*
X134684836Y-87300990D01*
X134684836Y-87300990D02*
X134113408Y-87872419D01*
X134113408Y-87872419D02*
X134732455Y-87872419D01*
X147152531Y-87862782D02*
X147152531Y-88291353D01*
X147152531Y-88077068D02*
X146152531Y-88077068D01*
X146152531Y-88077068D02*
X146295388Y-88148496D01*
X146295388Y-88148496D02*
X146390626Y-88219925D01*
X146390626Y-88219925D02*
X146438245Y-88291353D01*
X146581102Y-87434210D02*
X146533483Y-87505639D01*
X146533483Y-87505639D02*
X146485864Y-87541353D01*
X146485864Y-87541353D02*
X146390626Y-87577067D01*
X146390626Y-87577067D02*
X146343007Y-87577067D01*
X146343007Y-87577067D02*
X146247769Y-87541353D01*
X146247769Y-87541353D02*
X146200150Y-87505639D01*
X146200150Y-87505639D02*
X146152531Y-87434210D01*
X146152531Y-87434210D02*
X146152531Y-87291353D01*
X146152531Y-87291353D02*
X146200150Y-87219925D01*
X146200150Y-87219925D02*
X146247769Y-87184210D01*
X146247769Y-87184210D02*
X146343007Y-87148496D01*
X146343007Y-87148496D02*
X146390626Y-87148496D01*
X146390626Y-87148496D02*
X146485864Y-87184210D01*
X146485864Y-87184210D02*
X146533483Y-87219925D01*
X146533483Y-87219925D02*
X146581102Y-87291353D01*
X146581102Y-87291353D02*
X146581102Y-87434210D01*
X146581102Y-87434210D02*
X146628721Y-87505639D01*
X146628721Y-87505639D02*
X146676340Y-87541353D01*
X146676340Y-87541353D02*
X146771578Y-87577067D01*
X146771578Y-87577067D02*
X146962054Y-87577067D01*
X146962054Y-87577067D02*
X147057292Y-87541353D01*
X147057292Y-87541353D02*
X147104912Y-87505639D01*
X147104912Y-87505639D02*
X147152531Y-87434210D01*
X147152531Y-87434210D02*
X147152531Y-87291353D01*
X147152531Y-87291353D02*
X147104912Y-87219925D01*
X147104912Y-87219925D02*
X147057292Y-87184210D01*
X147057292Y-87184210D02*
X146962054Y-87148496D01*
X146962054Y-87148496D02*
X146771578Y-87148496D01*
X146771578Y-87148496D02*
X146676340Y-87184210D01*
X146676340Y-87184210D02*
X146628721Y-87219925D01*
X146628721Y-87219925D02*
X146581102Y-87291353D01*
X146485864Y-86898496D02*
X147152531Y-86719924D01*
X147152531Y-86719924D02*
X146485864Y-86541353D01*
X147152531Y-85862781D02*
X147152531Y-86291352D01*
X147152531Y-86077067D02*
X146152531Y-86077067D01*
X146152531Y-86077067D02*
X146295388Y-86148495D01*
X146295388Y-86148495D02*
X146390626Y-86219924D01*
X146390626Y-86219924D02*
X146438245Y-86291352D01*
X146152531Y-85612781D02*
X146152531Y-85112781D01*
X146152531Y-85112781D02*
X147152531Y-85434209D01*
X148762475Y-88255639D02*
X147762475Y-88255639D01*
X147762475Y-88255639D02*
X148476760Y-88005639D01*
X148476760Y-88005639D02*
X147762475Y-87755639D01*
X147762475Y-87755639D02*
X148762475Y-87755639D01*
X148762475Y-87291353D02*
X148714856Y-87362782D01*
X148714856Y-87362782D02*
X148667236Y-87398496D01*
X148667236Y-87398496D02*
X148571998Y-87434210D01*
X148571998Y-87434210D02*
X148286284Y-87434210D01*
X148286284Y-87434210D02*
X148191046Y-87398496D01*
X148191046Y-87398496D02*
X148143427Y-87362782D01*
X148143427Y-87362782D02*
X148095808Y-87291353D01*
X148095808Y-87291353D02*
X148095808Y-87184210D01*
X148095808Y-87184210D02*
X148143427Y-87112782D01*
X148143427Y-87112782D02*
X148191046Y-87077068D01*
X148191046Y-87077068D02*
X148286284Y-87041353D01*
X148286284Y-87041353D02*
X148571998Y-87041353D01*
X148571998Y-87041353D02*
X148667236Y-87077068D01*
X148667236Y-87077068D02*
X148714856Y-87112782D01*
X148714856Y-87112782D02*
X148762475Y-87184210D01*
X148762475Y-87184210D02*
X148762475Y-87291353D01*
X148095808Y-86827068D02*
X148095808Y-86541354D01*
X147762475Y-86719925D02*
X148619617Y-86719925D01*
X148619617Y-86719925D02*
X148714856Y-86684211D01*
X148714856Y-86684211D02*
X148762475Y-86612782D01*
X148762475Y-86612782D02*
X148762475Y-86541354D01*
X148762475Y-86184211D02*
X148714856Y-86255640D01*
X148714856Y-86255640D02*
X148667236Y-86291354D01*
X148667236Y-86291354D02*
X148571998Y-86327068D01*
X148571998Y-86327068D02*
X148286284Y-86327068D01*
X148286284Y-86327068D02*
X148191046Y-86291354D01*
X148191046Y-86291354D02*
X148143427Y-86255640D01*
X148143427Y-86255640D02*
X148095808Y-86184211D01*
X148095808Y-86184211D02*
X148095808Y-86077068D01*
X148095808Y-86077068D02*
X148143427Y-86005640D01*
X148143427Y-86005640D02*
X148191046Y-85969926D01*
X148191046Y-85969926D02*
X148286284Y-85934211D01*
X148286284Y-85934211D02*
X148571998Y-85934211D01*
X148571998Y-85934211D02*
X148667236Y-85969926D01*
X148667236Y-85969926D02*
X148714856Y-86005640D01*
X148714856Y-86005640D02*
X148762475Y-86077068D01*
X148762475Y-86077068D02*
X148762475Y-86184211D01*
X148762475Y-85612783D02*
X148095808Y-85612783D01*
X148286284Y-85612783D02*
X148191046Y-85577069D01*
X148191046Y-85577069D02*
X148143427Y-85541355D01*
X148143427Y-85541355D02*
X148095808Y-85469926D01*
X148095808Y-85469926D02*
X148095808Y-85398497D01*
X150372419Y-88255639D02*
X149372419Y-88255639D01*
X149372419Y-88255639D02*
X149372419Y-88077068D01*
X149372419Y-88077068D02*
X149420038Y-87969925D01*
X149420038Y-87969925D02*
X149515276Y-87898496D01*
X149515276Y-87898496D02*
X149610514Y-87862782D01*
X149610514Y-87862782D02*
X149800990Y-87827068D01*
X149800990Y-87827068D02*
X149943847Y-87827068D01*
X149943847Y-87827068D02*
X150134323Y-87862782D01*
X150134323Y-87862782D02*
X150229561Y-87898496D01*
X150229561Y-87898496D02*
X150324800Y-87969925D01*
X150324800Y-87969925D02*
X150372419Y-88077068D01*
X150372419Y-88077068D02*
X150372419Y-88255639D01*
X150372419Y-87505639D02*
X149705752Y-87505639D01*
X149896228Y-87505639D02*
X149800990Y-87469925D01*
X149800990Y-87469925D02*
X149753371Y-87434211D01*
X149753371Y-87434211D02*
X149705752Y-87362782D01*
X149705752Y-87362782D02*
X149705752Y-87291353D01*
X150372419Y-87041353D02*
X149705752Y-87041353D01*
X149372419Y-87041353D02*
X149420038Y-87077067D01*
X149420038Y-87077067D02*
X149467657Y-87041353D01*
X149467657Y-87041353D02*
X149420038Y-87005639D01*
X149420038Y-87005639D02*
X149372419Y-87041353D01*
X149372419Y-87041353D02*
X149467657Y-87041353D01*
X149705752Y-86755639D02*
X150372419Y-86577067D01*
X150372419Y-86577067D02*
X149705752Y-86398496D01*
X150324800Y-85827067D02*
X150372419Y-85898495D01*
X150372419Y-85898495D02*
X150372419Y-86041353D01*
X150372419Y-86041353D02*
X150324800Y-86112781D01*
X150324800Y-86112781D02*
X150229561Y-86148495D01*
X150229561Y-86148495D02*
X149848609Y-86148495D01*
X149848609Y-86148495D02*
X149753371Y-86112781D01*
X149753371Y-86112781D02*
X149705752Y-86041353D01*
X149705752Y-86041353D02*
X149705752Y-85898495D01*
X149705752Y-85898495D02*
X149753371Y-85827067D01*
X149753371Y-85827067D02*
X149848609Y-85791353D01*
X149848609Y-85791353D02*
X149943847Y-85791353D01*
X149943847Y-85791353D02*
X150039085Y-86148495D01*
X150372419Y-85469924D02*
X149705752Y-85469924D01*
X149896228Y-85469924D02*
X149800990Y-85434210D01*
X149800990Y-85434210D02*
X149753371Y-85398496D01*
X149753371Y-85398496D02*
X149705752Y-85327067D01*
X149705752Y-85327067D02*
X149705752Y-85255638D01*
X130851504Y-71880368D02*
X131208647Y-71880368D01*
X130780075Y-72108940D02*
X131030075Y-71308940D01*
X131030075Y-71308940D02*
X131280075Y-72108940D01*
X131851504Y-71575606D02*
X131851504Y-72108940D01*
X131530075Y-71575606D02*
X131530075Y-71994654D01*
X131530075Y-71994654D02*
X131565789Y-72070845D01*
X131565789Y-72070845D02*
X131637218Y-72108940D01*
X131637218Y-72108940D02*
X131744361Y-72108940D01*
X131744361Y-72108940D02*
X131815789Y-72070845D01*
X131815789Y-72070845D02*
X131851504Y-72032749D01*
X132530075Y-72108940D02*
X132530075Y-71308940D01*
X132530075Y-72070845D02*
X132458646Y-72108940D01*
X132458646Y-72108940D02*
X132315789Y-72108940D01*
X132315789Y-72108940D02*
X132244360Y-72070845D01*
X132244360Y-72070845D02*
X132208646Y-72032749D01*
X132208646Y-72032749D02*
X132172932Y-71956559D01*
X132172932Y-71956559D02*
X132172932Y-71727987D01*
X132172932Y-71727987D02*
X132208646Y-71651797D01*
X132208646Y-71651797D02*
X132244360Y-71613702D01*
X132244360Y-71613702D02*
X132315789Y-71575606D01*
X132315789Y-71575606D02*
X132458646Y-71575606D01*
X132458646Y-71575606D02*
X132530075Y-71613702D01*
X132887217Y-72108940D02*
X132887217Y-71575606D01*
X132887217Y-71308940D02*
X132851503Y-71347035D01*
X132851503Y-71347035D02*
X132887217Y-71385130D01*
X132887217Y-71385130D02*
X132922931Y-71347035D01*
X132922931Y-71347035D02*
X132887217Y-71308940D01*
X132887217Y-71308940D02*
X132887217Y-71385130D01*
X133351503Y-72108940D02*
X133280074Y-72070845D01*
X133280074Y-72070845D02*
X133244360Y-72032749D01*
X133244360Y-72032749D02*
X133208646Y-71956559D01*
X133208646Y-71956559D02*
X133208646Y-71727987D01*
X133208646Y-71727987D02*
X133244360Y-71651797D01*
X133244360Y-71651797D02*
X133280074Y-71613702D01*
X133280074Y-71613702D02*
X133351503Y-71575606D01*
X133351503Y-71575606D02*
X133458646Y-71575606D01*
X133458646Y-71575606D02*
X133530074Y-71613702D01*
X133530074Y-71613702D02*
X133565789Y-71651797D01*
X133565789Y-71651797D02*
X133601503Y-71727987D01*
X133601503Y-71727987D02*
X133601503Y-71956559D01*
X133601503Y-71956559D02*
X133565789Y-72032749D01*
X133565789Y-72032749D02*
X133530074Y-72070845D01*
X133530074Y-72070845D02*
X133458646Y-72108940D01*
X133458646Y-72108940D02*
X133351503Y-72108940D01*
X130101503Y-72596895D02*
X129744360Y-72596895D01*
X129744360Y-72596895D02*
X129708646Y-72977847D01*
X129708646Y-72977847D02*
X129744360Y-72939752D01*
X129744360Y-72939752D02*
X129815789Y-72901657D01*
X129815789Y-72901657D02*
X129994360Y-72901657D01*
X129994360Y-72901657D02*
X130065789Y-72939752D01*
X130065789Y-72939752D02*
X130101503Y-72977847D01*
X130101503Y-72977847D02*
X130137217Y-73054038D01*
X130137217Y-73054038D02*
X130137217Y-73244514D01*
X130137217Y-73244514D02*
X130101503Y-73320704D01*
X130101503Y-73320704D02*
X130065789Y-73358800D01*
X130065789Y-73358800D02*
X129994360Y-73396895D01*
X129994360Y-73396895D02*
X129815789Y-73396895D01*
X129815789Y-73396895D02*
X129744360Y-73358800D01*
X129744360Y-73358800D02*
X129708646Y-73320704D01*
X130387217Y-72863561D02*
X130565789Y-73396895D01*
X130565789Y-73396895D02*
X130744360Y-72863561D01*
X131994361Y-72634990D02*
X131922933Y-72596895D01*
X131922933Y-72596895D02*
X131815790Y-72596895D01*
X131815790Y-72596895D02*
X131708647Y-72634990D01*
X131708647Y-72634990D02*
X131637218Y-72711180D01*
X131637218Y-72711180D02*
X131601504Y-72787371D01*
X131601504Y-72787371D02*
X131565790Y-72939752D01*
X131565790Y-72939752D02*
X131565790Y-73054038D01*
X131565790Y-73054038D02*
X131601504Y-73206419D01*
X131601504Y-73206419D02*
X131637218Y-73282609D01*
X131637218Y-73282609D02*
X131708647Y-73358800D01*
X131708647Y-73358800D02*
X131815790Y-73396895D01*
X131815790Y-73396895D02*
X131887218Y-73396895D01*
X131887218Y-73396895D02*
X131994361Y-73358800D01*
X131994361Y-73358800D02*
X132030075Y-73320704D01*
X132030075Y-73320704D02*
X132030075Y-73054038D01*
X132030075Y-73054038D02*
X131887218Y-73054038D01*
X132887219Y-73168323D02*
X133244362Y-73168323D01*
X132815790Y-73396895D02*
X133065790Y-72596895D01*
X133065790Y-72596895D02*
X133315790Y-73396895D01*
X133494361Y-72596895D02*
X133958647Y-72596895D01*
X133958647Y-72596895D02*
X133708647Y-72901657D01*
X133708647Y-72901657D02*
X133815790Y-72901657D01*
X133815790Y-72901657D02*
X133887219Y-72939752D01*
X133887219Y-72939752D02*
X133922933Y-72977847D01*
X133922933Y-72977847D02*
X133958647Y-73054038D01*
X133958647Y-73054038D02*
X133958647Y-73244514D01*
X133958647Y-73244514D02*
X133922933Y-73320704D01*
X133922933Y-73320704D02*
X133887219Y-73358800D01*
X133887219Y-73358800D02*
X133815790Y-73396895D01*
X133815790Y-73396895D02*
X133601504Y-73396895D01*
X133601504Y-73396895D02*
X133530076Y-73358800D01*
X133530076Y-73358800D02*
X133494361Y-73320704D01*
X134815791Y-73168323D02*
X135172934Y-73168323D01*
X134744362Y-73396895D02*
X134994362Y-72596895D01*
X134994362Y-72596895D02*
X135244362Y-73396895D01*
X135815791Y-72863561D02*
X135815791Y-73396895D01*
X135637219Y-72558800D02*
X135458648Y-73130228D01*
X135458648Y-73130228D02*
X135922933Y-73130228D01*
D11*
X102166666Y-79954819D02*
X102166666Y-80669104D01*
X102166666Y-80669104D02*
X102119047Y-80811961D01*
X102119047Y-80811961D02*
X102023809Y-80907200D01*
X102023809Y-80907200D02*
X101880952Y-80954819D01*
X101880952Y-80954819D02*
X101785714Y-80954819D01*
X103166666Y-80954819D02*
X102595238Y-80954819D01*
X102880952Y-80954819D02*
X102880952Y-79954819D01*
X102880952Y-79954819D02*
X102785714Y-80097676D01*
X102785714Y-80097676D02*
X102690476Y-80192914D01*
X102690476Y-80192914D02*
X102595238Y-80240533D01*
X107690476Y-90764819D02*
X107690476Y-91479104D01*
X107690476Y-91479104D02*
X107642857Y-91621961D01*
X107642857Y-91621961D02*
X107547619Y-91717200D01*
X107547619Y-91717200D02*
X107404762Y-91764819D01*
X107404762Y-91764819D02*
X107309524Y-91764819D01*
X108690476Y-91764819D02*
X108119048Y-91764819D01*
X108404762Y-91764819D02*
X108404762Y-90764819D01*
X108404762Y-90764819D02*
X108309524Y-90907676D01*
X108309524Y-90907676D02*
X108214286Y-91002914D01*
X108214286Y-91002914D02*
X108119048Y-91050533D01*
X109309524Y-90764819D02*
X109404762Y-90764819D01*
X109404762Y-90764819D02*
X109500000Y-90812438D01*
X109500000Y-90812438D02*
X109547619Y-90860057D01*
X109547619Y-90860057D02*
X109595238Y-90955295D01*
X109595238Y-90955295D02*
X109642857Y-91145771D01*
X109642857Y-91145771D02*
X109642857Y-91383866D01*
X109642857Y-91383866D02*
X109595238Y-91574342D01*
X109595238Y-91574342D02*
X109547619Y-91669580D01*
X109547619Y-91669580D02*
X109500000Y-91717200D01*
X109500000Y-91717200D02*
X109404762Y-91764819D01*
X109404762Y-91764819D02*
X109309524Y-91764819D01*
X109309524Y-91764819D02*
X109214286Y-91717200D01*
X109214286Y-91717200D02*
X109166667Y-91669580D01*
X109166667Y-91669580D02*
X109119048Y-91574342D01*
X109119048Y-91574342D02*
X109071429Y-91383866D01*
X109071429Y-91383866D02*
X109071429Y-91145771D01*
X109071429Y-91145771D02*
X109119048Y-90955295D01*
X109119048Y-90955295D02*
X109166667Y-90860057D01*
X109166667Y-90860057D02*
X109214286Y-90812438D01*
X109214286Y-90812438D02*
X109309524Y-90764819D01*
X104191666Y-82454819D02*
X104191666Y-83169104D01*
X104191666Y-83169104D02*
X104144047Y-83311961D01*
X104144047Y-83311961D02*
X104048809Y-83407200D01*
X104048809Y-83407200D02*
X103905952Y-83454819D01*
X103905952Y-83454819D02*
X103810714Y-83454819D01*
X105096428Y-82788152D02*
X105096428Y-83454819D01*
X104858333Y-82407200D02*
X104620238Y-83121485D01*
X104620238Y-83121485D02*
X105239285Y-83121485D01*
X148166666Y-73954819D02*
X148166666Y-74669104D01*
X148166666Y-74669104D02*
X148119047Y-74811961D01*
X148119047Y-74811961D02*
X148023809Y-74907200D01*
X148023809Y-74907200D02*
X147880952Y-74954819D01*
X147880952Y-74954819D02*
X147785714Y-74954819D01*
X149071428Y-73954819D02*
X148880952Y-73954819D01*
X148880952Y-73954819D02*
X148785714Y-74002438D01*
X148785714Y-74002438D02*
X148738095Y-74050057D01*
X148738095Y-74050057D02*
X148642857Y-74192914D01*
X148642857Y-74192914D02*
X148595238Y-74383390D01*
X148595238Y-74383390D02*
X148595238Y-74764342D01*
X148595238Y-74764342D02*
X148642857Y-74859580D01*
X148642857Y-74859580D02*
X148690476Y-74907200D01*
X148690476Y-74907200D02*
X148785714Y-74954819D01*
X148785714Y-74954819D02*
X148976190Y-74954819D01*
X148976190Y-74954819D02*
X149071428Y-74907200D01*
X149071428Y-74907200D02*
X149119047Y-74859580D01*
X149119047Y-74859580D02*
X149166666Y-74764342D01*
X149166666Y-74764342D02*
X149166666Y-74526247D01*
X149166666Y-74526247D02*
X149119047Y-74431009D01*
X149119047Y-74431009D02*
X149071428Y-74383390D01*
X149071428Y-74383390D02*
X148976190Y-74335771D01*
X148976190Y-74335771D02*
X148785714Y-74335771D01*
X148785714Y-74335771D02*
X148690476Y-74383390D01*
X148690476Y-74383390D02*
X148642857Y-74431009D01*
X148642857Y-74431009D02*
X148595238Y-74526247D01*
X102441666Y-68454819D02*
X102441666Y-69169104D01*
X102441666Y-69169104D02*
X102394047Y-69311961D01*
X102394047Y-69311961D02*
X102298809Y-69407200D01*
X102298809Y-69407200D02*
X102155952Y-69454819D01*
X102155952Y-69454819D02*
X102060714Y-69454819D01*
X102965476Y-69454819D02*
X103155952Y-69454819D01*
X103155952Y-69454819D02*
X103251190Y-69407200D01*
X103251190Y-69407200D02*
X103298809Y-69359580D01*
X103298809Y-69359580D02*
X103394047Y-69216723D01*
X103394047Y-69216723D02*
X103441666Y-69026247D01*
X103441666Y-69026247D02*
X103441666Y-68645295D01*
X103441666Y-68645295D02*
X103394047Y-68550057D01*
X103394047Y-68550057D02*
X103346428Y-68502438D01*
X103346428Y-68502438D02*
X103251190Y-68454819D01*
X103251190Y-68454819D02*
X103060714Y-68454819D01*
X103060714Y-68454819D02*
X102965476Y-68502438D01*
X102965476Y-68502438D02*
X102917857Y-68550057D01*
X102917857Y-68550057D02*
X102870238Y-68645295D01*
X102870238Y-68645295D02*
X102870238Y-68883390D01*
X102870238Y-68883390D02*
X102917857Y-68978628D01*
X102917857Y-68978628D02*
X102965476Y-69026247D01*
X102965476Y-69026247D02*
X103060714Y-69073866D01*
X103060714Y-69073866D02*
X103251190Y-69073866D01*
X103251190Y-69073866D02*
X103346428Y-69026247D01*
X103346428Y-69026247D02*
X103394047Y-68978628D01*
X103394047Y-68978628D02*
X103441666Y-68883390D01*
X148166666Y-89454819D02*
X148166666Y-90169104D01*
X148166666Y-90169104D02*
X148119047Y-90311961D01*
X148119047Y-90311961D02*
X148023809Y-90407200D01*
X148023809Y-90407200D02*
X147880952Y-90454819D01*
X147880952Y-90454819D02*
X147785714Y-90454819D01*
X148785714Y-89883390D02*
X148690476Y-89835771D01*
X148690476Y-89835771D02*
X148642857Y-89788152D01*
X148642857Y-89788152D02*
X148595238Y-89692914D01*
X148595238Y-89692914D02*
X148595238Y-89645295D01*
X148595238Y-89645295D02*
X148642857Y-89550057D01*
X148642857Y-89550057D02*
X148690476Y-89502438D01*
X148690476Y-89502438D02*
X148785714Y-89454819D01*
X148785714Y-89454819D02*
X148976190Y-89454819D01*
X148976190Y-89454819D02*
X149071428Y-89502438D01*
X149071428Y-89502438D02*
X149119047Y-89550057D01*
X149119047Y-89550057D02*
X149166666Y-89645295D01*
X149166666Y-89645295D02*
X149166666Y-89692914D01*
X149166666Y-89692914D02*
X149119047Y-89788152D01*
X149119047Y-89788152D02*
X149071428Y-89835771D01*
X149071428Y-89835771D02*
X148976190Y-89883390D01*
X148976190Y-89883390D02*
X148785714Y-89883390D01*
X148785714Y-89883390D02*
X148690476Y-89931009D01*
X148690476Y-89931009D02*
X148642857Y-89978628D01*
X148642857Y-89978628D02*
X148595238Y-90073866D01*
X148595238Y-90073866D02*
X148595238Y-90264342D01*
X148595238Y-90264342D02*
X148642857Y-90359580D01*
X148642857Y-90359580D02*
X148690476Y-90407200D01*
X148690476Y-90407200D02*
X148785714Y-90454819D01*
X148785714Y-90454819D02*
X148976190Y-90454819D01*
X148976190Y-90454819D02*
X149071428Y-90407200D01*
X149071428Y-90407200D02*
X149119047Y-90359580D01*
X149119047Y-90359580D02*
X149166666Y-90264342D01*
X149166666Y-90264342D02*
X149166666Y-90073866D01*
X149166666Y-90073866D02*
X149119047Y-89978628D01*
X149119047Y-89978628D02*
X149071428Y-89931009D01*
X149071428Y-89931009D02*
X148976190Y-89883390D01*
X101666666Y-93954819D02*
X101666666Y-94669104D01*
X101666666Y-94669104D02*
X101619047Y-94811961D01*
X101619047Y-94811961D02*
X101523809Y-94907200D01*
X101523809Y-94907200D02*
X101380952Y-94954819D01*
X101380952Y-94954819D02*
X101285714Y-94954819D01*
X102095238Y-94050057D02*
X102142857Y-94002438D01*
X102142857Y-94002438D02*
X102238095Y-93954819D01*
X102238095Y-93954819D02*
X102476190Y-93954819D01*
X102476190Y-93954819D02*
X102571428Y-94002438D01*
X102571428Y-94002438D02*
X102619047Y-94050057D01*
X102619047Y-94050057D02*
X102666666Y-94145295D01*
X102666666Y-94145295D02*
X102666666Y-94240533D01*
X102666666Y-94240533D02*
X102619047Y-94383390D01*
X102619047Y-94383390D02*
X102047619Y-94954819D01*
X102047619Y-94954819D02*
X102666666Y-94954819D01*
X111666666Y-75454819D02*
X111666666Y-76169104D01*
X111666666Y-76169104D02*
X111619047Y-76311961D01*
X111619047Y-76311961D02*
X111523809Y-76407200D01*
X111523809Y-76407200D02*
X111380952Y-76454819D01*
X111380952Y-76454819D02*
X111285714Y-76454819D01*
X112619047Y-75454819D02*
X112142857Y-75454819D01*
X112142857Y-75454819D02*
X112095238Y-75931009D01*
X112095238Y-75931009D02*
X112142857Y-75883390D01*
X112142857Y-75883390D02*
X112238095Y-75835771D01*
X112238095Y-75835771D02*
X112476190Y-75835771D01*
X112476190Y-75835771D02*
X112571428Y-75883390D01*
X112571428Y-75883390D02*
X112619047Y-75931009D01*
X112619047Y-75931009D02*
X112666666Y-76026247D01*
X112666666Y-76026247D02*
X112666666Y-76264342D01*
X112666666Y-76264342D02*
X112619047Y-76359580D01*
X112619047Y-76359580D02*
X112571428Y-76407200D01*
X112571428Y-76407200D02*
X112476190Y-76454819D01*
X112476190Y-76454819D02*
X112238095Y-76454819D01*
X112238095Y-76454819D02*
X112142857Y-76407200D01*
X112142857Y-76407200D02*
X112095238Y-76359580D01*
X105333333Y-70859580D02*
X105285714Y-70907200D01*
X105285714Y-70907200D02*
X105142857Y-70954819D01*
X105142857Y-70954819D02*
X105047619Y-70954819D01*
X105047619Y-70954819D02*
X104904762Y-70907200D01*
X104904762Y-70907200D02*
X104809524Y-70811961D01*
X104809524Y-70811961D02*
X104761905Y-70716723D01*
X104761905Y-70716723D02*
X104714286Y-70526247D01*
X104714286Y-70526247D02*
X104714286Y-70383390D01*
X104714286Y-70383390D02*
X104761905Y-70192914D01*
X104761905Y-70192914D02*
X104809524Y-70097676D01*
X104809524Y-70097676D02*
X104904762Y-70002438D01*
X104904762Y-70002438D02*
X105047619Y-69954819D01*
X105047619Y-69954819D02*
X105142857Y-69954819D01*
X105142857Y-69954819D02*
X105285714Y-70002438D01*
X105285714Y-70002438D02*
X105333333Y-70050057D01*
X106285714Y-70954819D02*
X105714286Y-70954819D01*
X106000000Y-70954819D02*
X106000000Y-69954819D01*
X106000000Y-69954819D02*
X105904762Y-70097676D01*
X105904762Y-70097676D02*
X105809524Y-70192914D01*
X105809524Y-70192914D02*
X105714286Y-70240533D01*
X133404761Y-83410057D02*
X133309523Y-83362438D01*
X133309523Y-83362438D02*
X133214285Y-83267200D01*
X133214285Y-83267200D02*
X133071428Y-83124342D01*
X133071428Y-83124342D02*
X132976190Y-83076723D01*
X132976190Y-83076723D02*
X132880952Y-83076723D01*
X132928571Y-83314819D02*
X132833333Y-83267200D01*
X132833333Y-83267200D02*
X132738095Y-83171961D01*
X132738095Y-83171961D02*
X132690476Y-82981485D01*
X132690476Y-82981485D02*
X132690476Y-82648152D01*
X132690476Y-82648152D02*
X132738095Y-82457676D01*
X132738095Y-82457676D02*
X132833333Y-82362438D01*
X132833333Y-82362438D02*
X132928571Y-82314819D01*
X132928571Y-82314819D02*
X133119047Y-82314819D01*
X133119047Y-82314819D02*
X133214285Y-82362438D01*
X133214285Y-82362438D02*
X133309523Y-82457676D01*
X133309523Y-82457676D02*
X133357142Y-82648152D01*
X133357142Y-82648152D02*
X133357142Y-82981485D01*
X133357142Y-82981485D02*
X133309523Y-83171961D01*
X133309523Y-83171961D02*
X133214285Y-83267200D01*
X133214285Y-83267200D02*
X133119047Y-83314819D01*
X133119047Y-83314819D02*
X132928571Y-83314819D01*
X134214285Y-82648152D02*
X134214285Y-83314819D01*
X133976190Y-82267200D02*
X133738095Y-82981485D01*
X133738095Y-82981485D02*
X134357142Y-82981485D01*
D12*
%TO.C,R4*%
X121270000Y-91370000D02*
X121270000Y-91040000D01*
X121270000Y-88630000D02*
X121270000Y-88960000D01*
X114730000Y-91370000D02*
X121270000Y-91370000D01*
X114730000Y-91040000D02*
X114730000Y-91370000D01*
X114730000Y-88960000D02*
X114730000Y-88630000D01*
X114730000Y-88630000D02*
X121270000Y-88630000D01*
%TO.C,J1*%
X104150000Y-79830000D02*
X111830000Y-79830000D01*
X104150000Y-79830000D02*
X104150000Y-77170000D01*
X111830000Y-79830000D02*
X111830000Y-77170000D01*
X101550000Y-78500000D02*
X101550000Y-77170000D01*
X101550000Y-77170000D02*
X102880000Y-77170000D01*
X104150000Y-77170000D02*
X111830000Y-77170000D01*
%TO.C,J10*%
X109830000Y-87270000D02*
X109830000Y-84670000D01*
X109830000Y-87270000D02*
X107170000Y-87270000D01*
X109830000Y-84670000D02*
X107170000Y-84670000D01*
X108500000Y-89870000D02*
X107170000Y-89870000D01*
X107170000Y-89870000D02*
X107170000Y-88540000D01*
X107170000Y-87270000D02*
X107170000Y-84670000D01*
%TO.C,J4*%
X105830000Y-88810000D02*
X105830000Y-83670000D01*
X105830000Y-88810000D02*
X103170000Y-88810000D01*
X105830000Y-83670000D02*
X103170000Y-83670000D01*
X104500000Y-91410000D02*
X103170000Y-91410000D01*
X103170000Y-91410000D02*
X103170000Y-90080000D01*
X103170000Y-88810000D02*
X103170000Y-83670000D01*
%TO.C,J6*%
X149830000Y-78190000D02*
X149830000Y-83330000D01*
X149830000Y-75590000D02*
X149830000Y-76920000D01*
X148500000Y-75590000D02*
X149830000Y-75590000D01*
X147170000Y-83330000D02*
X149830000Y-83330000D01*
X147170000Y-78190000D02*
X149830000Y-78190000D01*
X147170000Y-78190000D02*
X147170000Y-83330000D01*
%TO.C,J9*%
X104080000Y-72980000D02*
X104080000Y-70380000D01*
X104080000Y-72980000D02*
X101420000Y-72980000D01*
X104080000Y-70380000D02*
X101420000Y-70380000D01*
X102750000Y-75580000D02*
X101420000Y-75580000D01*
X101420000Y-75580000D02*
X101420000Y-74250000D01*
X101420000Y-72980000D02*
X101420000Y-70380000D01*
%TO.C,J8*%
X147170000Y-93270000D02*
X147170000Y-95870000D01*
X147170000Y-93270000D02*
X149830000Y-93270000D01*
X147170000Y-95870000D02*
X149830000Y-95870000D01*
X148500000Y-90670000D02*
X149830000Y-90670000D01*
X149830000Y-90670000D02*
X149830000Y-92000000D01*
X149830000Y-93270000D02*
X149830000Y-95870000D01*
%TO.C,J2*%
X105670000Y-96330000D02*
X143830000Y-96330000D01*
X105670000Y-96330000D02*
X105670000Y-93670000D01*
X143830000Y-96330000D02*
X143830000Y-93670000D01*
X103070000Y-95000000D02*
X103070000Y-93670000D01*
X103070000Y-93670000D02*
X104400000Y-93670000D01*
X105670000Y-93670000D02*
X143830000Y-93670000D01*
%TO.C,J5*%
X141230000Y-73670000D02*
X113230000Y-73670000D01*
X141230000Y-73670000D02*
X141230000Y-76330000D01*
X113230000Y-73670000D02*
X113230000Y-76330000D01*
X143830000Y-75000000D02*
X143830000Y-76330000D01*
X143830000Y-76330000D02*
X142500000Y-76330000D01*
X141230000Y-76330000D02*
X113230000Y-76330000D01*
%TO.C,R6*%
X138230000Y-82130000D02*
X138230000Y-82460000D01*
X138230000Y-84870000D02*
X138230000Y-84540000D01*
X144770000Y-82130000D02*
X138230000Y-82130000D01*
X144770000Y-82460000D02*
X144770000Y-82130000D01*
X144770000Y-84540000D02*
X144770000Y-84870000D01*
X144770000Y-84870000D02*
X138230000Y-84870000D01*
%TO.C,R1*%
X116040000Y-77630000D02*
X116040000Y-77960000D01*
X116040000Y-80370000D02*
X116040000Y-80040000D01*
X122580000Y-77630000D02*
X116040000Y-77630000D01*
X122580000Y-77960000D02*
X122580000Y-77630000D01*
X122580000Y-80040000D02*
X122580000Y-80370000D01*
X122580000Y-80370000D02*
X116040000Y-80370000D01*
%TO.C,R2*%
X126730000Y-77630000D02*
X126730000Y-77960000D01*
X126730000Y-80370000D02*
X126730000Y-80040000D01*
X133270000Y-77630000D02*
X126730000Y-77630000D01*
X133270000Y-77960000D02*
X133270000Y-77630000D01*
X133270000Y-80040000D02*
X133270000Y-80370000D01*
X133270000Y-80370000D02*
X126730000Y-80370000D01*
%TO.C,C1*%
X105855113Y-73283000D02*
X105855113Y-72717000D01*
X105895113Y-73517000D02*
X105895113Y-72483000D01*
X105935113Y-73677000D02*
X105935113Y-72323000D01*
X105975113Y-73805000D02*
X105975113Y-72195000D01*
X106015113Y-73914000D02*
X106015113Y-72086000D01*
X106055113Y-74011000D02*
X106055113Y-71989000D01*
X106095113Y-74098000D02*
X106095113Y-71902000D01*
X106135113Y-74177000D02*
X106135113Y-71823000D01*
X106175113Y-71960000D02*
X106175113Y-71749000D01*
X106175113Y-74251000D02*
X106175113Y-74040000D01*
X106215113Y-71960000D02*
X106215113Y-71681000D01*
X106215113Y-74319000D02*
X106215113Y-74040000D01*
X106255113Y-71960000D02*
X106255113Y-71617000D01*
X106255113Y-74383000D02*
X106255113Y-74040000D01*
X106295113Y-71960000D02*
X106295113Y-71557000D01*
X106295113Y-74443000D02*
X106295113Y-74040000D01*
X106335113Y-71960000D02*
X106335113Y-71501000D01*
X106335113Y-74499000D02*
X106335113Y-74040000D01*
X106375113Y-71960000D02*
X106375113Y-71447000D01*
X106375113Y-74553000D02*
X106375113Y-74040000D01*
X106415113Y-71960000D02*
X106415113Y-71396000D01*
X106415113Y-74604000D02*
X106415113Y-74040000D01*
X106455113Y-71960000D02*
X106455113Y-71348000D01*
X106455113Y-74652000D02*
X106455113Y-74040000D01*
X106495113Y-71960000D02*
X106495113Y-71301000D01*
X106495113Y-74699000D02*
X106495113Y-74040000D01*
X106535113Y-71960000D02*
X106535113Y-71257000D01*
X106535113Y-74743000D02*
X106535113Y-74040000D01*
X106575113Y-71960000D02*
X106575113Y-71215000D01*
X106575113Y-74785000D02*
X106575113Y-74040000D01*
X106615113Y-71960000D02*
X106615113Y-71175000D01*
X106615113Y-74825000D02*
X106615113Y-74040000D01*
X106655113Y-71960000D02*
X106655113Y-71136000D01*
X106655113Y-74864000D02*
X106655113Y-74040000D01*
X106695113Y-71960000D02*
X106695113Y-71099000D01*
X106695113Y-74901000D02*
X106695113Y-74040000D01*
X106735113Y-71960000D02*
X106735113Y-71064000D01*
X106735113Y-74936000D02*
X106735113Y-74040000D01*
X106775113Y-71960000D02*
X106775113Y-71030000D01*
X106775113Y-74970000D02*
X106775113Y-74040000D01*
X106815113Y-71960000D02*
X106815113Y-70997000D01*
X106815113Y-75003000D02*
X106815113Y-74040000D01*
X106855113Y-71960000D02*
X106855113Y-70965000D01*
X106855113Y-75035000D02*
X106855113Y-74040000D01*
X106895113Y-71960000D02*
X106895113Y-70935000D01*
X106895113Y-75065000D02*
X106895113Y-74040000D01*
X106935113Y-71960000D02*
X106935113Y-70906000D01*
X106935113Y-75094000D02*
X106935113Y-74040000D01*
X106975113Y-71960000D02*
X106975113Y-70878000D01*
X106975113Y-75122000D02*
X106975113Y-74040000D01*
X107015113Y-71960000D02*
X107015113Y-70851000D01*
X107015113Y-75149000D02*
X107015113Y-74040000D01*
X107055113Y-71960000D02*
X107055113Y-70825000D01*
X107055113Y-75175000D02*
X107055113Y-74040000D01*
X107095113Y-71960000D02*
X107095113Y-70801000D01*
X107095113Y-75199000D02*
X107095113Y-74040000D01*
X107135113Y-71960000D02*
X107135113Y-70777000D01*
X107135113Y-75223000D02*
X107135113Y-74040000D01*
X107175113Y-71960000D02*
X107175113Y-70754000D01*
X107175113Y-75246000D02*
X107175113Y-74040000D01*
X107215113Y-71960000D02*
X107215113Y-70732000D01*
X107215113Y-75268000D02*
X107215113Y-74040000D01*
X107255113Y-71960000D02*
X107255113Y-70711000D01*
X107255113Y-75289000D02*
X107255113Y-74040000D01*
X107295113Y-71960000D02*
X107295113Y-70691000D01*
X107295113Y-75309000D02*
X107295113Y-74040000D01*
X107335113Y-71960000D02*
X107335113Y-70671000D01*
X107335113Y-75329000D02*
X107335113Y-74040000D01*
X107375113Y-71960000D02*
X107375113Y-70653000D01*
X107375113Y-75347000D02*
X107375113Y-74040000D01*
X107415113Y-71960000D02*
X107415113Y-70635000D01*
X107415113Y-75365000D02*
X107415113Y-74040000D01*
X107455113Y-71960000D02*
X107455113Y-70618000D01*
X107455113Y-75382000D02*
X107455113Y-74040000D01*
X107495113Y-71960000D02*
X107495113Y-70602000D01*
X107495113Y-75398000D02*
X107495113Y-74040000D01*
X107535113Y-71960000D02*
X107535113Y-70587000D01*
X107535113Y-75413000D02*
X107535113Y-74040000D01*
X107575113Y-71960000D02*
X107575113Y-70572000D01*
X107575113Y-75428000D02*
X107575113Y-74040000D01*
X107615113Y-71960000D02*
X107615113Y-70558000D01*
X107615113Y-75442000D02*
X107615113Y-74040000D01*
X107655113Y-71960000D02*
X107655113Y-70545000D01*
X107655113Y-75455000D02*
X107655113Y-74040000D01*
X107695113Y-71960000D02*
X107695113Y-70533000D01*
X107695113Y-75467000D02*
X107695113Y-74040000D01*
X107735113Y-71960000D02*
X107735113Y-70521000D01*
X107735113Y-75479000D02*
X107735113Y-74040000D01*
X107775113Y-71960000D02*
X107775113Y-70510000D01*
X107775113Y-75490000D02*
X107775113Y-74040000D01*
X107815113Y-71960000D02*
X107815113Y-70499000D01*
X107815113Y-75501000D02*
X107815113Y-74040000D01*
X107855113Y-71960000D02*
X107855113Y-70490000D01*
X107855113Y-75510000D02*
X107855113Y-74040000D01*
X107895113Y-71960000D02*
X107895113Y-70481000D01*
X107895113Y-75519000D02*
X107895113Y-74040000D01*
X107935113Y-71960000D02*
X107935113Y-70472000D01*
X107935113Y-75528000D02*
X107935113Y-74040000D01*
X107975113Y-71960000D02*
X107975113Y-70464000D01*
X107975113Y-75536000D02*
X107975113Y-74040000D01*
X108015113Y-71960000D02*
X108015113Y-70457000D01*
X108015113Y-75543000D02*
X108015113Y-74040000D01*
X108055113Y-71960000D02*
X108055113Y-70451000D01*
X108055113Y-75549000D02*
X108055113Y-74040000D01*
X108095113Y-71960000D02*
X108095113Y-70445000D01*
X108095113Y-75555000D02*
X108095113Y-74040000D01*
X108135113Y-71960000D02*
X108135113Y-70440000D01*
X108135113Y-75560000D02*
X108135113Y-74040000D01*
X108175113Y-71960000D02*
X108175113Y-70435000D01*
X108175113Y-75565000D02*
X108175113Y-74040000D01*
X108215113Y-71960000D02*
X108215113Y-70431000D01*
X108215113Y-75569000D02*
X108215113Y-74040000D01*
X108255113Y-75572000D02*
X108255113Y-70428000D01*
X108295113Y-75575000D02*
X108295113Y-70425000D01*
X108335113Y-75577000D02*
X108335113Y-70423000D01*
X108375113Y-75579000D02*
X108375113Y-70421000D01*
X108415113Y-75580000D02*
X108415113Y-70420000D01*
X108455113Y-75580000D02*
X108455113Y-70420000D01*
X111009888Y-74725000D02*
X111009888Y-74225000D01*
X111259888Y-74475000D02*
X110759888Y-74475000D01*
X111075113Y-73000000D02*
G75*
G02*
X105835113Y-73000000I-2620000J0D01*
G01*
X105835113Y-73000000D02*
G75*
G02*
X111075113Y-73000000I2620000J0D01*
G01*
%TO.C,J3*%
X128250000Y-67500000D02*
X128250000Y-71500000D01*
X128540000Y-66470000D02*
X128540000Y-72490000D01*
X128540000Y-72490000D02*
X138920000Y-72490000D01*
X129120000Y-66470000D02*
X129120000Y-67070000D01*
X129120000Y-67070000D02*
X130720000Y-67070000D01*
X129920000Y-71490000D02*
X130170000Y-70960000D01*
X129920000Y-71490000D02*
X137540000Y-71490000D01*
X129920000Y-72490000D02*
X129920000Y-71490000D01*
X130170000Y-70960000D02*
X137290000Y-70960000D01*
X130170000Y-72490000D02*
X130170000Y-71490000D01*
X130720000Y-67070000D02*
X130720000Y-66470000D01*
X131660000Y-66470000D02*
X131660000Y-67070000D01*
X131660000Y-67070000D02*
X133260000Y-67070000D01*
X133260000Y-67070000D02*
X133260000Y-66470000D01*
X134200000Y-66470000D02*
X134200000Y-67070000D01*
X134200000Y-67070000D02*
X135800000Y-67070000D01*
X135800000Y-67070000D02*
X135800000Y-66470000D01*
X136740000Y-66470000D02*
X136740000Y-67070000D01*
X136740000Y-67070000D02*
X138340000Y-67070000D01*
X137290000Y-70960000D02*
X137540000Y-71490000D01*
X137290000Y-72490000D02*
X137290000Y-71490000D01*
X137540000Y-71490000D02*
X137540000Y-72490000D01*
X138340000Y-67070000D02*
X138340000Y-66470000D01*
X138920000Y-66470000D02*
X128540000Y-66470000D01*
X138920000Y-72490000D02*
X138920000Y-66470000D01*
%TO.C,J7*%
X141830000Y-67500000D02*
X141830000Y-71500000D01*
X142120000Y-66470000D02*
X142120000Y-72490000D01*
X142120000Y-72490000D02*
X149960000Y-72490000D01*
X142700000Y-66470000D02*
X142700000Y-67070000D01*
X142700000Y-67070000D02*
X144300000Y-67070000D01*
X143500000Y-71490000D02*
X143750000Y-70960000D01*
X143500000Y-71490000D02*
X148580000Y-71490000D01*
X143500000Y-72490000D02*
X143500000Y-71490000D01*
X143750000Y-70960000D02*
X148330000Y-70960000D01*
X143750000Y-72490000D02*
X143750000Y-71490000D01*
X144300000Y-67070000D02*
X144300000Y-66470000D01*
X145240000Y-66470000D02*
X145240000Y-67070000D01*
X145240000Y-67070000D02*
X146840000Y-67070000D01*
X146840000Y-67070000D02*
X146840000Y-66470000D01*
X147780000Y-66470000D02*
X147780000Y-67070000D01*
X147780000Y-67070000D02*
X149380000Y-67070000D01*
X148330000Y-70960000D02*
X148580000Y-71490000D01*
X148330000Y-72490000D02*
X148330000Y-71490000D01*
X148580000Y-71490000D02*
X148580000Y-72490000D01*
X149380000Y-67070000D02*
X149380000Y-66470000D01*
X149960000Y-66470000D02*
X142120000Y-66470000D01*
X149960000Y-72490000D02*
X149960000Y-66470000D01*
%TO.C,Q2*%
X120700000Y-86350000D02*
X124300000Y-86350000D01*
X120661522Y-86338478D02*
G75*
G02*
X122500000Y-81899999I1838478J1838478D01*
G01*
X122500000Y-81900000D02*
G75*
G02*
X124338478Y-86338478I0J-2600000D01*
G01*
%TO.C,J11*%
X112620000Y-66510000D02*
X112620000Y-72530000D01*
X112620000Y-72530000D02*
X125540000Y-72530000D01*
X113200000Y-71930000D02*
X113200000Y-72530000D01*
X114000000Y-67510000D02*
X114000000Y-66510000D01*
X114250000Y-66510000D02*
X114250000Y-67510000D01*
X114250000Y-68040000D02*
X114000000Y-67510000D01*
X114800000Y-71930000D02*
X113200000Y-71930000D01*
X114800000Y-72530000D02*
X114800000Y-71930000D01*
X115740000Y-71930000D02*
X115740000Y-72530000D01*
X117340000Y-71930000D02*
X115740000Y-71930000D01*
X117340000Y-72530000D02*
X117340000Y-71930000D01*
X118280000Y-71930000D02*
X118280000Y-72530000D01*
X119880000Y-71930000D02*
X118280000Y-71930000D01*
X119880000Y-72530000D02*
X119880000Y-71930000D01*
X120820000Y-71930000D02*
X120820000Y-72530000D01*
X122420000Y-71930000D02*
X120820000Y-71930000D01*
X122420000Y-72530000D02*
X122420000Y-71930000D01*
X123360000Y-71930000D02*
X123360000Y-72530000D01*
X123910000Y-66510000D02*
X123910000Y-67510000D01*
X123910000Y-68040000D02*
X114250000Y-68040000D01*
X124160000Y-66510000D02*
X124160000Y-67510000D01*
X124160000Y-67510000D02*
X114000000Y-67510000D01*
X124160000Y-67510000D02*
X123910000Y-68040000D01*
X124960000Y-71930000D02*
X123360000Y-71930000D01*
X124960000Y-72530000D02*
X124960000Y-71930000D01*
X125540000Y-66510000D02*
X112620000Y-66510000D01*
X125540000Y-72530000D02*
X125540000Y-66510000D01*
X125830000Y-71500000D02*
X125830000Y-67500000D01*
%TO.C,R3*%
X124920000Y-88630000D02*
X131460000Y-88630000D01*
X124920000Y-88960000D02*
X124920000Y-88630000D01*
X124920000Y-91040000D02*
X124920000Y-91370000D01*
X124920000Y-91370000D02*
X131460000Y-91370000D01*
X131460000Y-88630000D02*
X131460000Y-88960000D01*
X131460000Y-91370000D02*
X131460000Y-91040000D01*
%TO.C,Q1*%
X118530000Y-82150000D02*
X114930000Y-82150000D01*
X116730000Y-86600000D02*
G75*
G02*
X114891522Y-82161522I0J2600000D01*
G01*
X118568478Y-82161522D02*
G75*
G02*
X116730000Y-86600001I-1838478J-1838478D01*
G01*
%TO.C,R5*%
X137230000Y-77630000D02*
X137230000Y-77960000D01*
X137230000Y-80370000D02*
X137230000Y-80040000D01*
X143770000Y-77630000D02*
X137230000Y-77630000D01*
X143770000Y-77960000D02*
X143770000Y-77630000D01*
X143770000Y-80040000D02*
X143770000Y-80370000D01*
X143770000Y-80370000D02*
X137230000Y-80370000D01*
%TO.C,Q3*%
X129800000Y-82150000D02*
X126200000Y-82150000D01*
X128000000Y-86600000D02*
G75*
G02*
X126161522Y-82161522I0J2600000D01*
G01*
X129838478Y-82161522D02*
G75*
G02*
X128000000Y-86600001I-1838478J-1838478D01*
G01*
%TO.C,Q4*%
X131700000Y-86210000D02*
X135300000Y-86210000D01*
X131661522Y-86198478D02*
G75*
G02*
X133500000Y-81759999I1838478J1838478D01*
G01*
X133500000Y-81760000D02*
G75*
G02*
X135338478Y-86198478I0J-2600000D01*
G01*
%TD*%
M02*
