%TF.GenerationSoftware,KiCad,Pcbnew,9.0.3-9.0.3-0~ubuntu24.04.1*%
%TF.CreationDate,2025-08-13T18:32:02-04:00*%
%TF.ProjectId,EngineControlModule_2025_08,456e6769-6e65-4436-9f6e-74726f6c4d6f,rev?*%
%TF.SameCoordinates,Original*%
%TF.FileFunction,Copper,L2,Bot*%
%TF.FilePolarity,Positive*%
%FSLAX46Y46*%
G04 Gerber Fmt 4.6, Leading zero omitted, Abs format (unit mm)*
G04 Created by KiCad (PCBNEW 9.0.3-9.0.3-0~ubuntu24.04.1) date 2025-08-13 18:32:02*
%MOMM*%
%LPD*%
G01*
G04 APERTURE LIST*
G04 Aperture macros list*
%AMRoundRect*
0 Rectangle with rounded corners*
0 $1 Rounding radius*
0 $2 $3 $4 $5 $6 $7 $8 $9 X,Y pos of 4 corners*
0 Add a 4 corners polygon primitive as box body*
4,1,4,$2,$3,$4,$5,$6,$7,$8,$9,$2,$3,0*
0 Add four circle primitives for the rounded corners*
1,1,$1+$1,$2,$3*
1,1,$1+$1,$4,$5*
1,1,$1+$1,$6,$7*
1,1,$1+$1,$8,$9*
0 Add four rect primitives between the rounded corners*
20,1,$1+$1,$2,$3,$4,$5,0*
20,1,$1+$1,$4,$5,$6,$7,0*
20,1,$1+$1,$6,$7,$8,$9,0*
20,1,$1+$1,$8,$9,$2,$3,0*%
G04 Aperture macros list end*
%TA.AperFunction,ComponentPad*%
%ADD10C,1.600000*%
%TD*%
%TA.AperFunction,ComponentPad*%
%ADD11R,1.700000X1.700000*%
%TD*%
%TA.AperFunction,ComponentPad*%
%ADD12C,1.700000*%
%TD*%
%TA.AperFunction,ComponentPad*%
%ADD13RoundRect,0.250000X0.550000X0.550000X-0.550000X0.550000X-0.550000X-0.550000X0.550000X-0.550000X0*%
%TD*%
%TA.AperFunction,ComponentPad*%
%ADD14RoundRect,0.250000X-0.620000X-0.845000X0.620000X-0.845000X0.620000X0.845000X-0.620000X0.845000X0*%
%TD*%
%TA.AperFunction,ComponentPad*%
%ADD15O,1.740000X2.190000*%
%TD*%
%TA.AperFunction,ComponentPad*%
%ADD16R,1.050000X1.500000*%
%TD*%
%TA.AperFunction,ComponentPad*%
%ADD17O,1.050000X1.500000*%
%TD*%
%TA.AperFunction,ComponentPad*%
%ADD18RoundRect,0.250000X0.620000X0.845000X-0.620000X0.845000X-0.620000X-0.845000X0.620000X-0.845000X0*%
%TD*%
%TA.AperFunction,Conductor*%
%ADD19C,0.400000*%
%TD*%
%TA.AperFunction,Conductor*%
%ADD20C,0.200000*%
%TD*%
G04 APERTURE END LIST*
D10*
%TO.P,R4,2*%
%TO.N,Net-(J2-Pin_10)*%
X121810000Y-90000000D03*
%TO.P,R4,1*%
%TO.N,+12P*%
X114190000Y-90000000D03*
%TD*%
D11*
%TO.P,J1,1,Pin_1*%
%TO.N,/5V*%
X102880000Y-78500000D03*
D12*
%TO.P,J1,2,Pin_2*%
%TO.N,GND*%
X105420000Y-78500000D03*
%TO.P,J1,3,Pin_3*%
%TO.N,+12P*%
X107960000Y-78500000D03*
%TO.P,J1,4,Pin_4*%
%TO.N,unconnected-(J1-Pin_4-Pad4)*%
X110500000Y-78500000D03*
%TD*%
D11*
%TO.P,J10,1,Pin_1*%
%TO.N,GND*%
X108500000Y-88540000D03*
D12*
%TO.P,J10,2,Pin_2*%
X108500000Y-86000000D03*
%TD*%
D11*
%TO.P,J4,1,Pin_1*%
%TO.N,/A0*%
X104500000Y-90080000D03*
D12*
%TO.P,J4,2,Pin_2*%
%TO.N,/A1*%
X104500000Y-87540000D03*
%TO.P,J4,3,Pin_3*%
%TO.N,/A2*%
X104500000Y-85000000D03*
%TD*%
%TO.P,J6,3,Pin_3*%
%TO.N,/PWM*%
X148500000Y-82000000D03*
%TO.P,J6,2,Pin_2*%
%TO.N,/DIR*%
X148500000Y-79460000D03*
D11*
%TO.P,J6,1,Pin_1*%
%TO.N,GND*%
X148500000Y-76920000D03*
%TD*%
%TO.P,J9,1,Pin_1*%
%TO.N,/5V*%
X102750000Y-74250000D03*
D12*
%TO.P,J9,2,Pin_2*%
%TO.N,/5Volts*%
X102750000Y-71710000D03*
%TD*%
D11*
%TO.P,J8,1,Pin_1*%
%TO.N,unconnected-(J8-Pin_1-Pad1)*%
X148500000Y-92000000D03*
D12*
%TO.P,J8,2,Pin_2*%
%TO.N,+12P*%
X148500000Y-94540000D03*
%TD*%
D11*
%TO.P,J2,1,Pin_1*%
%TO.N,unconnected-(J2-Pin_1-Pad1)*%
X104400000Y-95000000D03*
D12*
%TO.P,J2,2,Pin_2*%
%TO.N,+3.3V*%
X106940000Y-95000000D03*
%TO.P,J2,3,Pin_3*%
%TO.N,unconnected-(J2-Pin_3-Pad3)*%
X109480000Y-95000000D03*
%TO.P,J2,4,Pin_4*%
%TO.N,GND*%
X112020000Y-95000000D03*
%TO.P,J2,5,Pin_5*%
%TO.N,/A0*%
X114560000Y-95000000D03*
%TO.P,J2,6,Pin_6*%
%TO.N,/A1*%
X117100000Y-95000000D03*
%TO.P,J2,7,Pin_7*%
%TO.N,/A2*%
X119640000Y-95000000D03*
%TO.P,J2,8,Pin_8*%
%TO.N,/A3*%
X122180000Y-95000000D03*
%TO.P,J2,9,Pin_9*%
%TO.N,/A4*%
X124720000Y-95000000D03*
%TO.P,J2,10,Pin_10*%
%TO.N,Net-(J2-Pin_10)*%
X127260000Y-95000000D03*
%TO.P,J2,11,Pin_11*%
%TO.N,unconnected-(J2-Pin_11-Pad11)*%
X129800000Y-95000000D03*
%TO.P,J2,12,Pin_12*%
%TO.N,unconnected-(J2-Pin_12-Pad12)*%
X132340000Y-95000000D03*
%TO.P,J2,13,Pin_13*%
%TO.N,unconnected-(J2-Pin_13-Pad13)*%
X134880000Y-95000000D03*
%TO.P,J2,14,Pin_14*%
%TO.N,unconnected-(J2-Pin_14-Pad14)*%
X137420000Y-95000000D03*
%TO.P,J2,15,Pin_15*%
%TO.N,unconnected-(J2-Pin_15-Pad15)*%
X139960000Y-95000000D03*
%TO.P,J2,16,Pin_16*%
%TO.N,unconnected-(J2-Pin_16-Pad16)*%
X142500000Y-95000000D03*
%TD*%
D11*
%TO.P,J5,1,Pin_1*%
%TO.N,Net-(J5-Pin_1)*%
X142500000Y-75000000D03*
D12*
%TO.P,J5,2,Pin_2*%
%TO.N,Net-(J5-Pin_2)*%
X139960000Y-75000000D03*
%TO.P,J5,3,Pin_3*%
%TO.N,Net-(J5-Pin_3)*%
X137420000Y-75000000D03*
%TO.P,J5,4,Pin_4*%
%TO.N,Net-(J5-Pin_4)*%
X134880000Y-75000000D03*
%TO.P,J5,5,Pin_5*%
%TO.N,unconnected-(J5-Pin_5-Pad5)*%
X132340000Y-75000000D03*
%TO.P,J5,6,Pin_6*%
%TO.N,/PWM*%
X129800000Y-75000000D03*
%TO.P,J5,7,Pin_7*%
%TO.N,/DIR*%
X127260000Y-75000000D03*
%TO.P,J5,8,Pin_8*%
%TO.N,/RPS*%
X124720000Y-75000000D03*
%TO.P,J5,9,Pin_9*%
%TO.N,unconnected-(J5-Pin_9-Pad9)*%
X122180000Y-75000000D03*
%TO.P,J5,10,Pin_10*%
%TO.N,/5Volts*%
X119640000Y-75000000D03*
%TO.P,J5,11,Pin_11*%
%TO.N,unconnected-(J5-Pin_11-Pad11)*%
X117100000Y-75000000D03*
%TO.P,J5,12,Pin_12*%
%TO.N,unconnected-(J5-Pin_12-Pad12)*%
X114560000Y-75000000D03*
%TD*%
D10*
%TO.P,R6,1*%
%TO.N,Net-(J5-Pin_1)*%
X145310000Y-83500000D03*
%TO.P,R6,2*%
%TO.N,Net-(Q4-B)*%
X137690000Y-83500000D03*
%TD*%
%TO.P,R1,1*%
%TO.N,Net-(J5-Pin_4)*%
X123120000Y-79000000D03*
%TO.P,R1,2*%
%TO.N,Net-(Q1-B)*%
X115500000Y-79000000D03*
%TD*%
%TO.P,R2,1*%
%TO.N,Net-(J5-Pin_3)*%
X133810000Y-79000000D03*
%TO.P,R2,2*%
%TO.N,Net-(Q2-B)*%
X126190000Y-79000000D03*
%TD*%
D13*
%TO.P,C1,1*%
%TO.N,+12P*%
X109705113Y-73000000D03*
D10*
%TO.P,C1,2*%
%TO.N,GND*%
X107205113Y-73000000D03*
%TD*%
D14*
%TO.P,J3,1,Pin_1*%
%TO.N,/5Volts*%
X129920000Y-69500000D03*
D15*
%TO.P,J3,2,Pin_2*%
%TO.N,GND*%
X132460000Y-69500000D03*
%TO.P,J3,3,Pin_3*%
%TO.N,/A3*%
X135000000Y-69500000D03*
%TO.P,J3,4,Pin_4*%
%TO.N,/A4*%
X137540000Y-69500000D03*
%TD*%
D14*
%TO.P,J7,1,Pin_1*%
%TO.N,/RPS*%
X143500000Y-69500000D03*
D15*
%TO.P,J7,2,Pin_2*%
%TO.N,+3.3V*%
X146040000Y-69500000D03*
%TO.P,J7,3,Pin_3*%
%TO.N,GND*%
X148580000Y-69500000D03*
%TD*%
D16*
%TO.P,Q2,1,E*%
%TO.N,GND*%
X121230000Y-84500000D03*
D17*
%TO.P,Q2,2,B*%
%TO.N,Net-(Q2-B)*%
X122500000Y-84500000D03*
%TO.P,Q2,3,C*%
%TO.N,/Ditchleft*%
X123770000Y-84500000D03*
%TD*%
D18*
%TO.P,J11,1,Pin_1*%
%TO.N,/5Volts*%
X124160000Y-69500000D03*
D15*
%TO.P,J11,2,Pin_2*%
%TO.N,/DitchRight*%
X121620000Y-69500000D03*
%TO.P,J11,3,Pin_3*%
%TO.N,/Ditchleft*%
X119080000Y-69500000D03*
%TO.P,J11,4,Pin_4*%
%TO.N,/Rearlight*%
X116540000Y-69500000D03*
%TO.P,J11,5,Pin_5*%
%TO.N,/Headlight*%
X114000000Y-69500000D03*
%TD*%
D10*
%TO.P,R3,1*%
%TO.N,Net-(J2-Pin_10)*%
X124380000Y-90000000D03*
%TO.P,R3,2*%
%TO.N,GND*%
X132000000Y-90000000D03*
%TD*%
D16*
%TO.P,Q1,1,E*%
%TO.N,GND*%
X118000000Y-84000000D03*
D17*
%TO.P,Q1,2,B*%
%TO.N,Net-(Q1-B)*%
X116730000Y-84000000D03*
%TO.P,Q1,3,C*%
%TO.N,/DitchRight*%
X115460000Y-84000000D03*
%TD*%
D10*
%TO.P,R5,1*%
%TO.N,Net-(J5-Pin_2)*%
X144310000Y-79000000D03*
%TO.P,R5,2*%
%TO.N,Net-(Q3-B)*%
X136690000Y-79000000D03*
%TD*%
D16*
%TO.P,Q3,1,E*%
%TO.N,GND*%
X129270000Y-84000000D03*
D17*
%TO.P,Q3,2,B*%
%TO.N,Net-(Q3-B)*%
X128000000Y-84000000D03*
%TO.P,Q3,3,C*%
%TO.N,/Rearlight*%
X126730000Y-84000000D03*
%TD*%
D16*
%TO.P,Q4,1,E*%
%TO.N,GND*%
X132230000Y-84360000D03*
D17*
%TO.P,Q4,2,B*%
%TO.N,Net-(Q4-B)*%
X133500000Y-84360000D03*
%TO.P,Q4,3,C*%
%TO.N,/Headlight*%
X134770000Y-84360000D03*
%TD*%
D19*
%TO.N,/5Volts*%
X102750000Y-71710000D02*
X105341000Y-74301000D01*
X105341000Y-74301000D02*
X113348397Y-74301000D01*
X113348397Y-74301000D02*
X114000397Y-73649000D01*
X114000397Y-73649000D02*
X118289000Y-73649000D01*
X118289000Y-73649000D02*
X119640000Y-75000000D01*
D20*
%TO.N,Net-(J2-Pin_10)*%
X127260000Y-94070000D02*
X127260000Y-95000000D01*
%TD*%
%TA.AperFunction,Conductor*%
%TO.N,GND*%
G36*
X150442539Y-66520185D02*
G01*
X150488294Y-66572989D01*
X150499500Y-66624500D01*
X150499500Y-97375500D01*
X150479815Y-97442539D01*
X150427011Y-97488294D01*
X150375500Y-97499500D01*
X101124500Y-97499500D01*
X101057461Y-97479815D01*
X101011706Y-97427011D01*
X101000500Y-97375500D01*
X101000500Y-94102135D01*
X103049500Y-94102135D01*
X103049500Y-95897870D01*
X103049501Y-95897876D01*
X103055908Y-95957483D01*
X103106202Y-96092328D01*
X103106206Y-96092335D01*
X103192452Y-96207544D01*
X103192455Y-96207547D01*
X103307664Y-96293793D01*
X103307671Y-96293797D01*
X103442517Y-96344091D01*
X103442516Y-96344091D01*
X103449444Y-96344835D01*
X103502127Y-96350500D01*
X105297872Y-96350499D01*
X105357483Y-96344091D01*
X105492331Y-96293796D01*
X105607546Y-96207546D01*
X105693796Y-96092331D01*
X105742810Y-95960916D01*
X105784681Y-95904984D01*
X105850145Y-95880566D01*
X105918418Y-95895417D01*
X105946673Y-95916569D01*
X106060213Y-96030109D01*
X106232179Y-96155048D01*
X106232181Y-96155049D01*
X106232184Y-96155051D01*
X106421588Y-96251557D01*
X106623757Y-96317246D01*
X106833713Y-96350500D01*
X106833714Y-96350500D01*
X107046286Y-96350500D01*
X107046287Y-96350500D01*
X107256243Y-96317246D01*
X107458412Y-96251557D01*
X107647816Y-96155051D01*
X107734138Y-96092335D01*
X107819786Y-96030109D01*
X107819788Y-96030106D01*
X107819792Y-96030104D01*
X107970104Y-95879792D01*
X107970106Y-95879788D01*
X107970109Y-95879786D01*
X108095048Y-95707820D01*
X108095047Y-95707820D01*
X108095051Y-95707816D01*
X108099514Y-95699054D01*
X108147488Y-95648259D01*
X108215308Y-95631463D01*
X108281444Y-95653999D01*
X108320486Y-95699056D01*
X108324951Y-95707820D01*
X108449890Y-95879786D01*
X108600213Y-96030109D01*
X108772179Y-96155048D01*
X108772181Y-96155049D01*
X108772184Y-96155051D01*
X108961588Y-96251557D01*
X109163757Y-96317246D01*
X109373713Y-96350500D01*
X109373714Y-96350500D01*
X109586286Y-96350500D01*
X109586287Y-96350500D01*
X109796243Y-96317246D01*
X109998412Y-96251557D01*
X110187816Y-96155051D01*
X110274138Y-96092335D01*
X110359786Y-96030109D01*
X110359788Y-96030106D01*
X110359792Y-96030104D01*
X110510104Y-95879792D01*
X110510106Y-95879788D01*
X110510109Y-95879786D01*
X110595890Y-95761717D01*
X110635051Y-95707816D01*
X110639793Y-95698508D01*
X110687763Y-95647711D01*
X110755583Y-95630911D01*
X110821719Y-95653445D01*
X110860763Y-95698500D01*
X110865373Y-95707547D01*
X110904728Y-95761716D01*
X111537037Y-95129408D01*
X111554075Y-95192993D01*
X111619901Y-95307007D01*
X111712993Y-95400099D01*
X111827007Y-95465925D01*
X111890590Y-95482962D01*
X111258282Y-96115269D01*
X111258282Y-96115270D01*
X111312449Y-96154624D01*
X111501782Y-96251095D01*
X111703870Y-96316757D01*
X111913754Y-96350000D01*
X112126246Y-96350000D01*
X112336127Y-96316757D01*
X112336130Y-96316757D01*
X112538217Y-96251095D01*
X112727554Y-96154622D01*
X112781716Y-96115270D01*
X112781717Y-96115270D01*
X112149408Y-95482962D01*
X112212993Y-95465925D01*
X112327007Y-95400099D01*
X112420099Y-95307007D01*
X112485925Y-95192993D01*
X112502962Y-95129409D01*
X113135270Y-95761717D01*
X113135270Y-95761716D01*
X113174622Y-95707555D01*
X113179232Y-95698507D01*
X113227205Y-95647709D01*
X113295025Y-95630912D01*
X113361161Y-95653447D01*
X113400204Y-95698504D01*
X113404949Y-95707817D01*
X113529890Y-95879786D01*
X113680213Y-96030109D01*
X113852179Y-96155048D01*
X113852181Y-96155049D01*
X113852184Y-96155051D01*
X114041588Y-96251557D01*
X114243757Y-96317246D01*
X114453713Y-96350500D01*
X114453714Y-96350500D01*
X114666286Y-96350500D01*
X114666287Y-96350500D01*
X114876243Y-96317246D01*
X115078412Y-96251557D01*
X115267816Y-96155051D01*
X115354138Y-96092335D01*
X115439786Y-96030109D01*
X115439788Y-96030106D01*
X115439792Y-96030104D01*
X115590104Y-95879792D01*
X115590106Y-95879788D01*
X115590109Y-95879786D01*
X115715048Y-95707820D01*
X115715047Y-95707820D01*
X115715051Y-95707816D01*
X115719514Y-95699054D01*
X115767488Y-95648259D01*
X115835308Y-95631463D01*
X115901444Y-95653999D01*
X115940486Y-95699056D01*
X115944951Y-95707820D01*
X116069890Y-95879786D01*
X116220213Y-96030109D01*
X116392179Y-96155048D01*
X116392181Y-96155049D01*
X116392184Y-96155051D01*
X116581588Y-96251557D01*
X116783757Y-96317246D01*
X116993713Y-96350500D01*
X116993714Y-96350500D01*
X117206286Y-96350500D01*
X117206287Y-96350500D01*
X117416243Y-96317246D01*
X117618412Y-96251557D01*
X117807816Y-96155051D01*
X117894138Y-96092335D01*
X117979786Y-96030109D01*
X117979788Y-96030106D01*
X117979792Y-96030104D01*
X118130104Y-95879792D01*
X118130106Y-95879788D01*
X118130109Y-95879786D01*
X118255048Y-95707820D01*
X118255047Y-95707820D01*
X118255051Y-95707816D01*
X118259514Y-95699054D01*
X118307488Y-95648259D01*
X118375308Y-95631463D01*
X118441444Y-95653999D01*
X118480486Y-95699056D01*
X118484951Y-95707820D01*
X118609890Y-95879786D01*
X118760213Y-96030109D01*
X118932179Y-96155048D01*
X118932181Y-96155049D01*
X118932184Y-96155051D01*
X119121588Y-96251557D01*
X119323757Y-96317246D01*
X119533713Y-96350500D01*
X119533714Y-96350500D01*
X119746286Y-96350500D01*
X119746287Y-96350500D01*
X119956243Y-96317246D01*
X120158412Y-96251557D01*
X120347816Y-96155051D01*
X120434138Y-96092335D01*
X120519786Y-96030109D01*
X120519788Y-96030106D01*
X120519792Y-96030104D01*
X120670104Y-95879792D01*
X120670106Y-95879788D01*
X120670109Y-95879786D01*
X120795048Y-95707820D01*
X120795047Y-95707820D01*
X120795051Y-95707816D01*
X120799514Y-95699054D01*
X120847488Y-95648259D01*
X120915308Y-95631463D01*
X120981444Y-95653999D01*
X121020486Y-95699056D01*
X121024951Y-95707820D01*
X121149890Y-95879786D01*
X121300213Y-96030109D01*
X121472179Y-96155048D01*
X121472181Y-96155049D01*
X121472184Y-96155051D01*
X121661588Y-96251557D01*
X121863757Y-96317246D01*
X122073713Y-96350500D01*
X122073714Y-96350500D01*
X122286286Y-96350500D01*
X122286287Y-96350500D01*
X122496243Y-96317246D01*
X122698412Y-96251557D01*
X122887816Y-96155051D01*
X122974138Y-96092335D01*
X123059786Y-96030109D01*
X123059788Y-96030106D01*
X123059792Y-96030104D01*
X123210104Y-95879792D01*
X123210106Y-95879788D01*
X123210109Y-95879786D01*
X123335048Y-95707820D01*
X123335047Y-95707820D01*
X123335051Y-95707816D01*
X123339514Y-95699054D01*
X123387488Y-95648259D01*
X123455308Y-95631463D01*
X123521444Y-95653999D01*
X123560486Y-95699056D01*
X123564951Y-95707820D01*
X123689890Y-95879786D01*
X123840213Y-96030109D01*
X124012179Y-96155048D01*
X124012181Y-96155049D01*
X124012184Y-96155051D01*
X124201588Y-96251557D01*
X124403757Y-96317246D01*
X124613713Y-96350500D01*
X124613714Y-96350500D01*
X124826286Y-96350500D01*
X124826287Y-96350500D01*
X125036243Y-96317246D01*
X125238412Y-96251557D01*
X125427816Y-96155051D01*
X125514138Y-96092335D01*
X125599786Y-96030109D01*
X125599788Y-96030106D01*
X125599792Y-96030104D01*
X125750104Y-95879792D01*
X125750106Y-95879788D01*
X125750109Y-95879786D01*
X125875048Y-95707820D01*
X125875047Y-95707820D01*
X125875051Y-95707816D01*
X125879514Y-95699054D01*
X125927488Y-95648259D01*
X125995308Y-95631463D01*
X126061444Y-95653999D01*
X126100486Y-95699056D01*
X126104951Y-95707820D01*
X126229890Y-95879786D01*
X126380213Y-96030109D01*
X126552179Y-96155048D01*
X126552181Y-96155049D01*
X126552184Y-96155051D01*
X126741588Y-96251557D01*
X126943757Y-96317246D01*
X127153713Y-96350500D01*
X127153714Y-96350500D01*
X127366286Y-96350500D01*
X127366287Y-96350500D01*
X127576243Y-96317246D01*
X127778412Y-96251557D01*
X127967816Y-96155051D01*
X128054138Y-96092335D01*
X128139786Y-96030109D01*
X128139788Y-96030106D01*
X128139792Y-96030104D01*
X128290104Y-95879792D01*
X128290106Y-95879788D01*
X128290109Y-95879786D01*
X128415048Y-95707820D01*
X128415047Y-95707820D01*
X128415051Y-95707816D01*
X128419514Y-95699054D01*
X128467488Y-95648259D01*
X128535308Y-95631463D01*
X128601444Y-95653999D01*
X128640486Y-95699056D01*
X128644951Y-95707820D01*
X128769890Y-95879786D01*
X128920213Y-96030109D01*
X129092179Y-96155048D01*
X129092181Y-96155049D01*
X129092184Y-96155051D01*
X129281588Y-96251557D01*
X129483757Y-96317246D01*
X129693713Y-96350500D01*
X129693714Y-96350500D01*
X129906286Y-96350500D01*
X129906287Y-96350500D01*
X130116243Y-96317246D01*
X130318412Y-96251557D01*
X130507816Y-96155051D01*
X130594138Y-96092335D01*
X130679786Y-96030109D01*
X130679788Y-96030106D01*
X130679792Y-96030104D01*
X130830104Y-95879792D01*
X130830106Y-95879788D01*
X130830109Y-95879786D01*
X130955048Y-95707820D01*
X130955047Y-95707820D01*
X130955051Y-95707816D01*
X130959514Y-95699054D01*
X131007488Y-95648259D01*
X131075308Y-95631463D01*
X131141444Y-95653999D01*
X131180486Y-95699056D01*
X131184951Y-95707820D01*
X131309890Y-95879786D01*
X131460213Y-96030109D01*
X131632179Y-96155048D01*
X131632181Y-96155049D01*
X131632184Y-96155051D01*
X131821588Y-96251557D01*
X132023757Y-96317246D01*
X132233713Y-96350500D01*
X132233714Y-96350500D01*
X132446286Y-96350500D01*
X132446287Y-96350500D01*
X132656243Y-96317246D01*
X132858412Y-96251557D01*
X133047816Y-96155051D01*
X133134138Y-96092335D01*
X133219786Y-96030109D01*
X133219788Y-96030106D01*
X133219792Y-96030104D01*
X133370104Y-95879792D01*
X133370106Y-95879788D01*
X133370109Y-95879786D01*
X133495048Y-95707820D01*
X133495047Y-95707820D01*
X133495051Y-95707816D01*
X133499514Y-95699054D01*
X133547488Y-95648259D01*
X133615308Y-95631463D01*
X133681444Y-95653999D01*
X133720486Y-95699056D01*
X133724951Y-95707820D01*
X133849890Y-95879786D01*
X134000213Y-96030109D01*
X134172179Y-96155048D01*
X134172181Y-96155049D01*
X134172184Y-96155051D01*
X134361588Y-96251557D01*
X134563757Y-96317246D01*
X134773713Y-96350500D01*
X134773714Y-96350500D01*
X134986286Y-96350500D01*
X134986287Y-96350500D01*
X135196243Y-96317246D01*
X135398412Y-96251557D01*
X135587816Y-96155051D01*
X135674138Y-96092335D01*
X135759786Y-96030109D01*
X135759788Y-96030106D01*
X135759792Y-96030104D01*
X135910104Y-95879792D01*
X135910106Y-95879788D01*
X135910109Y-95879786D01*
X136035048Y-95707820D01*
X136035047Y-95707820D01*
X136035051Y-95707816D01*
X136039514Y-95699054D01*
X136087488Y-95648259D01*
X136155308Y-95631463D01*
X136221444Y-95653999D01*
X136260486Y-95699056D01*
X136264951Y-95707820D01*
X136389890Y-95879786D01*
X136540213Y-96030109D01*
X136712179Y-96155048D01*
X136712181Y-96155049D01*
X136712184Y-96155051D01*
X136901588Y-96251557D01*
X137103757Y-96317246D01*
X137313713Y-96350500D01*
X137313714Y-96350500D01*
X137526286Y-96350500D01*
X137526287Y-96350500D01*
X137736243Y-96317246D01*
X137938412Y-96251557D01*
X138127816Y-96155051D01*
X138214138Y-96092335D01*
X138299786Y-96030109D01*
X138299788Y-96030106D01*
X138299792Y-96030104D01*
X138450104Y-95879792D01*
X138450106Y-95879788D01*
X138450109Y-95879786D01*
X138575048Y-95707820D01*
X138575047Y-95707820D01*
X138575051Y-95707816D01*
X138579514Y-95699054D01*
X138627488Y-95648259D01*
X138695308Y-95631463D01*
X138761444Y-95653999D01*
X138800486Y-95699056D01*
X138804951Y-95707820D01*
X138929890Y-95879786D01*
X139080213Y-96030109D01*
X139252179Y-96155048D01*
X139252181Y-96155049D01*
X139252184Y-96155051D01*
X139441588Y-96251557D01*
X139643757Y-96317246D01*
X139853713Y-96350500D01*
X139853714Y-96350500D01*
X140066286Y-96350500D01*
X140066287Y-96350500D01*
X140276243Y-96317246D01*
X140478412Y-96251557D01*
X140667816Y-96155051D01*
X140754138Y-96092335D01*
X140839786Y-96030109D01*
X140839788Y-96030106D01*
X140839792Y-96030104D01*
X140990104Y-95879792D01*
X140990106Y-95879788D01*
X140990109Y-95879786D01*
X141115048Y-95707820D01*
X141115047Y-95707820D01*
X141115051Y-95707816D01*
X141119514Y-95699054D01*
X141167488Y-95648259D01*
X141235308Y-95631463D01*
X141301444Y-95653999D01*
X141340486Y-95699056D01*
X141344951Y-95707820D01*
X141469890Y-95879786D01*
X141620213Y-96030109D01*
X141792179Y-96155048D01*
X141792181Y-96155049D01*
X141792184Y-96155051D01*
X141981588Y-96251557D01*
X142183757Y-96317246D01*
X142393713Y-96350500D01*
X142393714Y-96350500D01*
X142606286Y-96350500D01*
X142606287Y-96350500D01*
X142816243Y-96317246D01*
X143018412Y-96251557D01*
X143207816Y-96155051D01*
X143294138Y-96092335D01*
X143379786Y-96030109D01*
X143379788Y-96030106D01*
X143379792Y-96030104D01*
X143530104Y-95879792D01*
X143530106Y-95879788D01*
X143530109Y-95879786D01*
X143655048Y-95707820D01*
X143655047Y-95707820D01*
X143655051Y-95707816D01*
X143751557Y-95518412D01*
X143817246Y-95316243D01*
X143850500Y-95106287D01*
X143850500Y-94893713D01*
X143817246Y-94683757D01*
X143751557Y-94481588D01*
X143655051Y-94292184D01*
X143655049Y-94292181D01*
X143655048Y-94292179D01*
X143530109Y-94120213D01*
X143379786Y-93969890D01*
X143207820Y-93844951D01*
X143018414Y-93748444D01*
X143018413Y-93748443D01*
X143018412Y-93748443D01*
X142816243Y-93682754D01*
X142816241Y-93682753D01*
X142816240Y-93682753D01*
X142654957Y-93657208D01*
X142606287Y-93649500D01*
X142393713Y-93649500D01*
X142345042Y-93657208D01*
X142183760Y-93682753D01*
X141981585Y-93748444D01*
X141792179Y-93844951D01*
X141620213Y-93969890D01*
X141469890Y-94120213D01*
X141344949Y-94292182D01*
X141340484Y-94300946D01*
X141292509Y-94351742D01*
X141224688Y-94368536D01*
X141158553Y-94345998D01*
X141119516Y-94300946D01*
X141115050Y-94292182D01*
X140990109Y-94120213D01*
X140839786Y-93969890D01*
X140667820Y-93844951D01*
X140478414Y-93748444D01*
X140478413Y-93748443D01*
X140478412Y-93748443D01*
X140276243Y-93682754D01*
X140276241Y-93682753D01*
X140276240Y-93682753D01*
X140114957Y-93657208D01*
X140066287Y-93649500D01*
X139853713Y-93649500D01*
X139805042Y-93657208D01*
X139643760Y-93682753D01*
X139441585Y-93748444D01*
X139252179Y-93844951D01*
X139080213Y-93969890D01*
X138929890Y-94120213D01*
X138804949Y-94292182D01*
X138800484Y-94300946D01*
X138752509Y-94351742D01*
X138684688Y-94368536D01*
X138618553Y-94345998D01*
X138579516Y-94300946D01*
X138575050Y-94292182D01*
X138450109Y-94120213D01*
X138299786Y-93969890D01*
X138127820Y-93844951D01*
X137938414Y-93748444D01*
X137938413Y-93748443D01*
X137938412Y-93748443D01*
X137736243Y-93682754D01*
X137736241Y-93682753D01*
X137736240Y-93682753D01*
X137574957Y-93657208D01*
X137526287Y-93649500D01*
X137313713Y-93649500D01*
X137265042Y-93657208D01*
X137103760Y-93682753D01*
X136901585Y-93748444D01*
X136712179Y-93844951D01*
X136540213Y-93969890D01*
X136389890Y-94120213D01*
X136264949Y-94292182D01*
X136260484Y-94300946D01*
X136212509Y-94351742D01*
X136144688Y-94368536D01*
X136078553Y-94345998D01*
X136039516Y-94300946D01*
X136035050Y-94292182D01*
X135910109Y-94120213D01*
X135759786Y-93969890D01*
X135587820Y-93844951D01*
X135398414Y-93748444D01*
X135398413Y-93748443D01*
X135398412Y-93748443D01*
X135196243Y-93682754D01*
X135196241Y-93682753D01*
X135196240Y-93682753D01*
X135034957Y-93657208D01*
X134986287Y-93649500D01*
X134773713Y-93649500D01*
X134725042Y-93657208D01*
X134563760Y-93682753D01*
X134361585Y-93748444D01*
X134172179Y-93844951D01*
X134000213Y-93969890D01*
X133849890Y-94120213D01*
X133724949Y-94292182D01*
X133720484Y-94300946D01*
X133672509Y-94351742D01*
X133604688Y-94368536D01*
X133538553Y-94345998D01*
X133499516Y-94300946D01*
X133495050Y-94292182D01*
X133370109Y-94120213D01*
X133219786Y-93969890D01*
X133047820Y-93844951D01*
X132858414Y-93748444D01*
X132858413Y-93748443D01*
X132858412Y-93748443D01*
X132656243Y-93682754D01*
X132656241Y-93682753D01*
X132656240Y-93682753D01*
X132494957Y-93657208D01*
X132446287Y-93649500D01*
X132233713Y-93649500D01*
X132185042Y-93657208D01*
X132023760Y-93682753D01*
X131821585Y-93748444D01*
X131632179Y-93844951D01*
X131460213Y-93969890D01*
X131309890Y-94120213D01*
X131184949Y-94292182D01*
X131180484Y-94300946D01*
X131132509Y-94351742D01*
X131064688Y-94368536D01*
X130998553Y-94345998D01*
X130959516Y-94300946D01*
X130955050Y-94292182D01*
X130830109Y-94120213D01*
X130679786Y-93969890D01*
X130507820Y-93844951D01*
X130318414Y-93748444D01*
X130318413Y-93748443D01*
X130318412Y-93748443D01*
X130116243Y-93682754D01*
X130116241Y-93682753D01*
X130116240Y-93682753D01*
X129954957Y-93657208D01*
X129906287Y-93649500D01*
X129693713Y-93649500D01*
X129645042Y-93657208D01*
X129483760Y-93682753D01*
X129281585Y-93748444D01*
X129092179Y-93844951D01*
X128920213Y-93969890D01*
X128769890Y-94120213D01*
X128644949Y-94292182D01*
X128640484Y-94300946D01*
X128592509Y-94351742D01*
X128524688Y-94368536D01*
X128458553Y-94345998D01*
X128419516Y-94300946D01*
X128415050Y-94292182D01*
X128290109Y-94120213D01*
X128139786Y-93969890D01*
X127967819Y-93844951D01*
X127967818Y-93844950D01*
X127967816Y-93844949D01*
X127862168Y-93791119D01*
X127796029Y-93757419D01*
X127745233Y-93709444D01*
X127744936Y-93708933D01*
X127740520Y-93701284D01*
X127628716Y-93589480D01*
X127628713Y-93589478D01*
X127628709Y-93589475D01*
X127491790Y-93510426D01*
X127491786Y-93510424D01*
X127491784Y-93510423D01*
X127339057Y-93469500D01*
X127180943Y-93469500D01*
X127028216Y-93510423D01*
X127028209Y-93510426D01*
X126891290Y-93589475D01*
X126891286Y-93589478D01*
X126779478Y-93701285D01*
X126775058Y-93708941D01*
X126724488Y-93757153D01*
X126723970Y-93757419D01*
X126552180Y-93844951D01*
X126380213Y-93969890D01*
X126229890Y-94120213D01*
X126104949Y-94292182D01*
X126100484Y-94300946D01*
X126052509Y-94351742D01*
X125984688Y-94368536D01*
X125918553Y-94345998D01*
X125879516Y-94300946D01*
X125875050Y-94292182D01*
X125750109Y-94120213D01*
X125599786Y-93969890D01*
X125427820Y-93844951D01*
X125238414Y-93748444D01*
X125238413Y-93748443D01*
X125238412Y-93748443D01*
X125036243Y-93682754D01*
X125036241Y-93682753D01*
X125036240Y-93682753D01*
X124874957Y-93657208D01*
X124826287Y-93649500D01*
X124613713Y-93649500D01*
X124565042Y-93657208D01*
X124403760Y-93682753D01*
X124201585Y-93748444D01*
X124012179Y-93844951D01*
X123840213Y-93969890D01*
X123689890Y-94120213D01*
X123564949Y-94292182D01*
X123560484Y-94300946D01*
X123512509Y-94351742D01*
X123444688Y-94368536D01*
X123378553Y-94345998D01*
X123339516Y-94300946D01*
X123335050Y-94292182D01*
X123210109Y-94120213D01*
X123059786Y-93969890D01*
X122887820Y-93844951D01*
X122698414Y-93748444D01*
X122698413Y-93748443D01*
X122698412Y-93748443D01*
X122496243Y-93682754D01*
X122496241Y-93682753D01*
X122496240Y-93682753D01*
X122334957Y-93657208D01*
X122286287Y-93649500D01*
X122073713Y-93649500D01*
X122025042Y-93657208D01*
X121863760Y-93682753D01*
X121661585Y-93748444D01*
X121472179Y-93844951D01*
X121300213Y-93969890D01*
X121149890Y-94120213D01*
X121024949Y-94292182D01*
X121020484Y-94300946D01*
X120972509Y-94351742D01*
X120904688Y-94368536D01*
X120838553Y-94345998D01*
X120799516Y-94300946D01*
X120795050Y-94292182D01*
X120670109Y-94120213D01*
X120519786Y-93969890D01*
X120347820Y-93844951D01*
X120158414Y-93748444D01*
X120158413Y-93748443D01*
X120158412Y-93748443D01*
X119956243Y-93682754D01*
X119956241Y-93682753D01*
X119956240Y-93682753D01*
X119794957Y-93657208D01*
X119746287Y-93649500D01*
X119533713Y-93649500D01*
X119485042Y-93657208D01*
X119323760Y-93682753D01*
X119121585Y-93748444D01*
X118932179Y-93844951D01*
X118760213Y-93969890D01*
X118609890Y-94120213D01*
X118484949Y-94292182D01*
X118480484Y-94300946D01*
X118432509Y-94351742D01*
X118364688Y-94368536D01*
X118298553Y-94345998D01*
X118259516Y-94300946D01*
X118255050Y-94292182D01*
X118130109Y-94120213D01*
X117979786Y-93969890D01*
X117807820Y-93844951D01*
X117618414Y-93748444D01*
X117618413Y-93748443D01*
X117618412Y-93748443D01*
X117416243Y-93682754D01*
X117416241Y-93682753D01*
X117416240Y-93682753D01*
X117254957Y-93657208D01*
X117206287Y-93649500D01*
X116993713Y-93649500D01*
X116945042Y-93657208D01*
X116783760Y-93682753D01*
X116581585Y-93748444D01*
X116392179Y-93844951D01*
X116220213Y-93969890D01*
X116069890Y-94120213D01*
X115944949Y-94292182D01*
X115940484Y-94300946D01*
X115892509Y-94351742D01*
X115824688Y-94368536D01*
X115758553Y-94345998D01*
X115719516Y-94300946D01*
X115715050Y-94292182D01*
X115590109Y-94120213D01*
X115439786Y-93969890D01*
X115267820Y-93844951D01*
X115078414Y-93748444D01*
X115078413Y-93748443D01*
X115078412Y-93748443D01*
X114876243Y-93682754D01*
X114876241Y-93682753D01*
X114876240Y-93682753D01*
X114714957Y-93657208D01*
X114666287Y-93649500D01*
X114453713Y-93649500D01*
X114405042Y-93657208D01*
X114243760Y-93682753D01*
X114041585Y-93748444D01*
X113852179Y-93844951D01*
X113680213Y-93969890D01*
X113529890Y-94120213D01*
X113404949Y-94292182D01*
X113400202Y-94301499D01*
X113352227Y-94352293D01*
X113284405Y-94369087D01*
X113218271Y-94346548D01*
X113179234Y-94301495D01*
X113174626Y-94292452D01*
X113135270Y-94238282D01*
X113135269Y-94238282D01*
X112502962Y-94870590D01*
X112485925Y-94807007D01*
X112420099Y-94692993D01*
X112327007Y-94599901D01*
X112212993Y-94534075D01*
X112149409Y-94517037D01*
X112781716Y-93884728D01*
X112727550Y-93845375D01*
X112538217Y-93748904D01*
X112336129Y-93683242D01*
X112126246Y-93650000D01*
X111913754Y-93650000D01*
X111703872Y-93683242D01*
X111703869Y-93683242D01*
X111501782Y-93748904D01*
X111312439Y-93845380D01*
X111258282Y-93884727D01*
X111258282Y-93884728D01*
X111890591Y-94517037D01*
X111827007Y-94534075D01*
X111712993Y-94599901D01*
X111619901Y-94692993D01*
X111554075Y-94807007D01*
X111537037Y-94870591D01*
X110904728Y-94238282D01*
X110904727Y-94238282D01*
X110865380Y-94292440D01*
X110865376Y-94292446D01*
X110860760Y-94301505D01*
X110812781Y-94352297D01*
X110744959Y-94369087D01*
X110678826Y-94346543D01*
X110639794Y-94301493D01*
X110635051Y-94292184D01*
X110635049Y-94292181D01*
X110635048Y-94292179D01*
X110510109Y-94120213D01*
X110359786Y-93969890D01*
X110187820Y-93844951D01*
X109998414Y-93748444D01*
X109998413Y-93748443D01*
X109998412Y-93748443D01*
X109796243Y-93682754D01*
X109796241Y-93682753D01*
X109796240Y-93682753D01*
X109634957Y-93657208D01*
X109586287Y-93649500D01*
X109373713Y-93649500D01*
X109325042Y-93657208D01*
X109163760Y-93682753D01*
X108961585Y-93748444D01*
X108772179Y-93844951D01*
X108600213Y-93969890D01*
X108449890Y-94120213D01*
X108324949Y-94292182D01*
X108320484Y-94300946D01*
X108272509Y-94351742D01*
X108204688Y-94368536D01*
X108138553Y-94345998D01*
X108099516Y-94300946D01*
X108095050Y-94292182D01*
X107970109Y-94120213D01*
X107819786Y-93969890D01*
X107647820Y-93844951D01*
X107458414Y-93748444D01*
X107458413Y-93748443D01*
X107458412Y-93748443D01*
X107256243Y-93682754D01*
X107256241Y-93682753D01*
X107256240Y-93682753D01*
X107094957Y-93657208D01*
X107046287Y-93649500D01*
X106833713Y-93649500D01*
X106785042Y-93657208D01*
X106623760Y-93682753D01*
X106421585Y-93748444D01*
X106232179Y-93844951D01*
X106060215Y-93969889D01*
X105946673Y-94083431D01*
X105885350Y-94116915D01*
X105815658Y-94111931D01*
X105759725Y-94070059D01*
X105742810Y-94039082D01*
X105693797Y-93907671D01*
X105693793Y-93907664D01*
X105607547Y-93792455D01*
X105607544Y-93792452D01*
X105492335Y-93706206D01*
X105492328Y-93706202D01*
X105357482Y-93655908D01*
X105357483Y-93655908D01*
X105297883Y-93649501D01*
X105297881Y-93649500D01*
X105297873Y-93649500D01*
X105297864Y-93649500D01*
X103502129Y-93649500D01*
X103502123Y-93649501D01*
X103442516Y-93655908D01*
X103307671Y-93706202D01*
X103307664Y-93706206D01*
X103192455Y-93792452D01*
X103192452Y-93792455D01*
X103106206Y-93907664D01*
X103106202Y-93907671D01*
X103055908Y-94042517D01*
X103049501Y-94102116D01*
X103049500Y-94102135D01*
X101000500Y-94102135D01*
X101000500Y-84893713D01*
X103149500Y-84893713D01*
X103149500Y-85106287D01*
X103153856Y-85133787D01*
X103178983Y-85292439D01*
X103182754Y-85316243D01*
X103240441Y-85493786D01*
X103248444Y-85518414D01*
X103344951Y-85707820D01*
X103469890Y-85879786D01*
X103620213Y-86030109D01*
X103792182Y-86155050D01*
X103800946Y-86159516D01*
X103851742Y-86207491D01*
X103868536Y-86275312D01*
X103845998Y-86341447D01*
X103800946Y-86380484D01*
X103792182Y-86384949D01*
X103620213Y-86509890D01*
X103469890Y-86660213D01*
X103344951Y-86832179D01*
X103248444Y-87021585D01*
X103182753Y-87223760D01*
X103149500Y-87433713D01*
X103149500Y-87646286D01*
X103182753Y-87856239D01*
X103248444Y-88058414D01*
X103344951Y-88247820D01*
X103469890Y-88419786D01*
X103583430Y-88533326D01*
X103616915Y-88594649D01*
X103611931Y-88664341D01*
X103570059Y-88720274D01*
X103539083Y-88737189D01*
X103407669Y-88786203D01*
X103407664Y-88786206D01*
X103292455Y-88872452D01*
X103292452Y-88872455D01*
X103206206Y-88987664D01*
X103206202Y-88987671D01*
X103155908Y-89122517D01*
X103149501Y-89182116D01*
X103149501Y-89182123D01*
X103149500Y-89182135D01*
X103149500Y-90977870D01*
X103149501Y-90977876D01*
X103155908Y-91037483D01*
X103206202Y-91172328D01*
X103206206Y-91172335D01*
X103292452Y-91287544D01*
X103292455Y-91287547D01*
X103407664Y-91373793D01*
X103407671Y-91373797D01*
X103542517Y-91424091D01*
X103542516Y-91424091D01*
X103549444Y-91424835D01*
X103602127Y-91430500D01*
X105397872Y-91430499D01*
X105457483Y-91424091D01*
X105592331Y-91373796D01*
X105707546Y-91287546D01*
X105793796Y-91172331D01*
X105844091Y-91037483D01*
X105850500Y-90977873D01*
X105850499Y-89897648D01*
X112889500Y-89897648D01*
X112889500Y-90102351D01*
X112921522Y-90304534D01*
X112984781Y-90499223D01*
X113048691Y-90624653D01*
X113077585Y-90681359D01*
X113077715Y-90681613D01*
X113198028Y-90847213D01*
X113342786Y-90991971D01*
X113463225Y-91079473D01*
X113508390Y-91112287D01*
X113624607Y-91171503D01*
X113690776Y-91205218D01*
X113690778Y-91205218D01*
X113690781Y-91205220D01*
X113795137Y-91239127D01*
X113885465Y-91268477D01*
X113986557Y-91284488D01*
X114087648Y-91300500D01*
X114087649Y-91300500D01*
X114292351Y-91300500D01*
X114292352Y-91300500D01*
X114494534Y-91268477D01*
X114689219Y-91205220D01*
X114871610Y-91112287D01*
X114974571Y-91037482D01*
X115037213Y-90991971D01*
X115037215Y-90991968D01*
X115037219Y-90991966D01*
X115181966Y-90847219D01*
X115181968Y-90847215D01*
X115181971Y-90847213D01*
X115234732Y-90774590D01*
X115302287Y-90681610D01*
X115395220Y-90499219D01*
X115458477Y-90304534D01*
X115490500Y-90102352D01*
X115490500Y-89897648D01*
X120509500Y-89897648D01*
X120509500Y-90102351D01*
X120541522Y-90304534D01*
X120604781Y-90499223D01*
X120668691Y-90624653D01*
X120697585Y-90681359D01*
X120697715Y-90681613D01*
X120818028Y-90847213D01*
X120962786Y-90991971D01*
X121083225Y-91079473D01*
X121128390Y-91112287D01*
X121244607Y-91171503D01*
X121310776Y-91205218D01*
X121310778Y-91205218D01*
X121310781Y-91205220D01*
X121415137Y-91239127D01*
X121505465Y-91268477D01*
X121606557Y-91284488D01*
X121707648Y-91300500D01*
X121707649Y-91300500D01*
X121912351Y-91300500D01*
X121912352Y-91300500D01*
X122114534Y-91268477D01*
X122309219Y-91205220D01*
X122491610Y-91112287D01*
X122594571Y-91037482D01*
X122657213Y-90991971D01*
X122657215Y-90991968D01*
X122657219Y-90991966D01*
X122801966Y-90847219D01*
X122801968Y-90847215D01*
X122801971Y-90847213D01*
X122922284Y-90681614D01*
X122922285Y-90681613D01*
X122922287Y-90681610D01*
X122984515Y-90559478D01*
X123032489Y-90508684D01*
X123100310Y-90491889D01*
X123166445Y-90514426D01*
X123205485Y-90559480D01*
X123267715Y-90681614D01*
X123388028Y-90847213D01*
X123532786Y-90991971D01*
X123653225Y-91079473D01*
X123698390Y-91112287D01*
X123814607Y-91171503D01*
X123880776Y-91205218D01*
X123880778Y-91205218D01*
X123880781Y-91205220D01*
X123985137Y-91239127D01*
X124075465Y-91268477D01*
X124176557Y-91284488D01*
X124277648Y-91300500D01*
X124277649Y-91300500D01*
X124482351Y-91300500D01*
X124482352Y-91300500D01*
X124684534Y-91268477D01*
X124879219Y-91205220D01*
X125061610Y-91112287D01*
X125164571Y-91037482D01*
X125227213Y-90991971D01*
X125227215Y-90991968D01*
X125227219Y-90991966D01*
X125371966Y-90847219D01*
X125371968Y-90847215D01*
X125371971Y-90847213D01*
X125424732Y-90774590D01*
X125492287Y-90681610D01*
X125585220Y-90499219D01*
X125648477Y-90304534D01*
X125680500Y-90102352D01*
X125680500Y-89897682D01*
X130700000Y-89897682D01*
X130700000Y-90102317D01*
X130732009Y-90304417D01*
X130795244Y-90499031D01*
X130888141Y-90681350D01*
X130888147Y-90681359D01*
X130920523Y-90725921D01*
X130920524Y-90725922D01*
X131600000Y-90046446D01*
X131600000Y-90052661D01*
X131627259Y-90154394D01*
X131679920Y-90245606D01*
X131754394Y-90320080D01*
X131845606Y-90372741D01*
X131947339Y-90400000D01*
X131953553Y-90400000D01*
X131274076Y-91079474D01*
X131318650Y-91111859D01*
X131500968Y-91204755D01*
X131695582Y-91267990D01*
X131897683Y-91300000D01*
X132102317Y-91300000D01*
X132304417Y-91267990D01*
X132499031Y-91204755D01*
X132681349Y-91111859D01*
X132694732Y-91102135D01*
X147149500Y-91102135D01*
X147149500Y-92897870D01*
X147149501Y-92897876D01*
X147155908Y-92957483D01*
X147206202Y-93092328D01*
X147206206Y-93092335D01*
X147292452Y-93207544D01*
X147292455Y-93207547D01*
X147407664Y-93293793D01*
X147407671Y-93293797D01*
X147539082Y-93342810D01*
X147595016Y-93384681D01*
X147619433Y-93450145D01*
X147604582Y-93518418D01*
X147583431Y-93546673D01*
X147469889Y-93660215D01*
X147344951Y-93832179D01*
X147248444Y-94021585D01*
X147182753Y-94223760D01*
X147149500Y-94433713D01*
X147149500Y-94646286D01*
X147174955Y-94807007D01*
X147182754Y-94856243D01*
X147229463Y-94999999D01*
X147248444Y-95058414D01*
X147344951Y-95247820D01*
X147469890Y-95419786D01*
X147620213Y-95570109D01*
X147792179Y-95695048D01*
X147792181Y-95695049D01*
X147792184Y-95695051D01*
X147981588Y-95791557D01*
X148183757Y-95857246D01*
X148393713Y-95890500D01*
X148393714Y-95890500D01*
X148606286Y-95890500D01*
X148606287Y-95890500D01*
X148816243Y-95857246D01*
X149018412Y-95791557D01*
X149207816Y-95695051D01*
X149264320Y-95653999D01*
X149379786Y-95570109D01*
X149379788Y-95570106D01*
X149379792Y-95570104D01*
X149530104Y-95419792D01*
X149530106Y-95419788D01*
X149530109Y-95419786D01*
X149655048Y-95247820D01*
X149655047Y-95247820D01*
X149655051Y-95247816D01*
X149751557Y-95058412D01*
X149817246Y-94856243D01*
X149850500Y-94646287D01*
X149850500Y-94433713D01*
X149817246Y-94223757D01*
X149751557Y-94021588D01*
X149655051Y-93832184D01*
X149655049Y-93832181D01*
X149655048Y-93832179D01*
X149530109Y-93660213D01*
X149416569Y-93546673D01*
X149383084Y-93485350D01*
X149388068Y-93415658D01*
X149429940Y-93359725D01*
X149460915Y-93342810D01*
X149592331Y-93293796D01*
X149707546Y-93207546D01*
X149793796Y-93092331D01*
X149844091Y-92957483D01*
X149850500Y-92897873D01*
X149850499Y-91102128D01*
X149844091Y-91042517D01*
X149842213Y-91037483D01*
X149793797Y-90907671D01*
X149793793Y-90907664D01*
X149707547Y-90792455D01*
X149707544Y-90792452D01*
X149592335Y-90706206D01*
X149592328Y-90706202D01*
X149457482Y-90655908D01*
X149457483Y-90655908D01*
X149397883Y-90649501D01*
X149397881Y-90649500D01*
X149397873Y-90649500D01*
X149397864Y-90649500D01*
X147602129Y-90649500D01*
X147602123Y-90649501D01*
X147542516Y-90655908D01*
X147407671Y-90706202D01*
X147407664Y-90706206D01*
X147292455Y-90792452D01*
X147292452Y-90792455D01*
X147206206Y-90907664D01*
X147206202Y-90907671D01*
X147155908Y-91042517D01*
X147149501Y-91102116D01*
X147149501Y-91102123D01*
X147149500Y-91102135D01*
X132694732Y-91102135D01*
X132725921Y-91079474D01*
X132725921Y-91079473D01*
X132046447Y-90400000D01*
X132052661Y-90400000D01*
X132154394Y-90372741D01*
X132245606Y-90320080D01*
X132320080Y-90245606D01*
X132372741Y-90154394D01*
X132400000Y-90052661D01*
X132400000Y-90046447D01*
X133079474Y-90725921D01*
X133111859Y-90681349D01*
X133204755Y-90499031D01*
X133267990Y-90304417D01*
X133300000Y-90102317D01*
X133300000Y-89897682D01*
X133267990Y-89695582D01*
X133204755Y-89500968D01*
X133111859Y-89318650D01*
X133079474Y-89274077D01*
X133079474Y-89274076D01*
X132400000Y-89953551D01*
X132400000Y-89947339D01*
X132372741Y-89845606D01*
X132320080Y-89754394D01*
X132245606Y-89679920D01*
X132154394Y-89627259D01*
X132052661Y-89600000D01*
X132046446Y-89600000D01*
X132725922Y-88920524D01*
X132725921Y-88920523D01*
X132681359Y-88888147D01*
X132681350Y-88888141D01*
X132499031Y-88795244D01*
X132304417Y-88732009D01*
X132102317Y-88700000D01*
X131897683Y-88700000D01*
X131695582Y-88732009D01*
X131500968Y-88795244D01*
X131318644Y-88888143D01*
X131274077Y-88920523D01*
X131274077Y-88920524D01*
X131953554Y-89600000D01*
X131947339Y-89600000D01*
X131845606Y-89627259D01*
X131754394Y-89679920D01*
X131679920Y-89754394D01*
X131627259Y-89845606D01*
X131600000Y-89947339D01*
X131600000Y-89953553D01*
X130920524Y-89274077D01*
X130920523Y-89274077D01*
X130888143Y-89318644D01*
X130795244Y-89500968D01*
X130732009Y-89695582D01*
X130700000Y-89897682D01*
X125680500Y-89897682D01*
X125680500Y-89897648D01*
X125679289Y-89890000D01*
X125648477Y-89695465D01*
X125587601Y-89508110D01*
X125585220Y-89500781D01*
X125585218Y-89500778D01*
X125585218Y-89500776D01*
X125492419Y-89318650D01*
X125492287Y-89318390D01*
X125460092Y-89274077D01*
X125371971Y-89152786D01*
X125227213Y-89008028D01*
X125061613Y-88887715D01*
X125061612Y-88887714D01*
X125061610Y-88887713D01*
X124981720Y-88847007D01*
X124879223Y-88794781D01*
X124684534Y-88731522D01*
X124509995Y-88703878D01*
X124482352Y-88699500D01*
X124277648Y-88699500D01*
X124253329Y-88703351D01*
X124075465Y-88731522D01*
X123880776Y-88794781D01*
X123698386Y-88887715D01*
X123532786Y-89008028D01*
X123388028Y-89152786D01*
X123267715Y-89318386D01*
X123205485Y-89440519D01*
X123157510Y-89491315D01*
X123089689Y-89508110D01*
X123023554Y-89485573D01*
X122984515Y-89440519D01*
X122922419Y-89318650D01*
X122922287Y-89318390D01*
X122890092Y-89274077D01*
X122801971Y-89152786D01*
X122657213Y-89008028D01*
X122491613Y-88887715D01*
X122491612Y-88887714D01*
X122491610Y-88887713D01*
X122411720Y-88847007D01*
X122309223Y-88794781D01*
X122114534Y-88731522D01*
X121939995Y-88703878D01*
X121912352Y-88699500D01*
X121707648Y-88699500D01*
X121683329Y-88703351D01*
X121505465Y-88731522D01*
X121310776Y-88794781D01*
X121128386Y-88887715D01*
X120962786Y-89008028D01*
X120818028Y-89152786D01*
X120697715Y-89318386D01*
X120604781Y-89500776D01*
X120541522Y-89695465D01*
X120509500Y-89897648D01*
X115490500Y-89897648D01*
X115489289Y-89890000D01*
X115458477Y-89695465D01*
X115397601Y-89508110D01*
X115395220Y-89500781D01*
X115395218Y-89500778D01*
X115395218Y-89500776D01*
X115302419Y-89318650D01*
X115302287Y-89318390D01*
X115270092Y-89274077D01*
X115181971Y-89152786D01*
X115037213Y-89008028D01*
X114871613Y-88887715D01*
X114871612Y-88887714D01*
X114871610Y-88887713D01*
X114791720Y-88847007D01*
X114689223Y-88794781D01*
X114494534Y-88731522D01*
X114319995Y-88703878D01*
X114292352Y-88699500D01*
X114087648Y-88699500D01*
X114063329Y-88703351D01*
X113885465Y-88731522D01*
X113690776Y-88794781D01*
X113508386Y-88887715D01*
X113342786Y-89008028D01*
X113198028Y-89152786D01*
X113077715Y-89318386D01*
X112984781Y-89500776D01*
X112921522Y-89695465D01*
X112889500Y-89897648D01*
X105850499Y-89897648D01*
X105850499Y-89182128D01*
X105844091Y-89122517D01*
X105801389Y-89008028D01*
X105793797Y-88987671D01*
X105793793Y-88987664D01*
X105707547Y-88872455D01*
X105707544Y-88872452D01*
X105661394Y-88837904D01*
X105592335Y-88786206D01*
X105592328Y-88786202D01*
X105460917Y-88737189D01*
X105404983Y-88695318D01*
X105380566Y-88629853D01*
X105395418Y-88561580D01*
X105416563Y-88533332D01*
X105530104Y-88419792D01*
X105655051Y-88247816D01*
X105751557Y-88058412D01*
X105817246Y-87856243D01*
X105850500Y-87646287D01*
X105850500Y-87433713D01*
X105817246Y-87223757D01*
X105751557Y-87021588D01*
X105655051Y-86832184D01*
X105655049Y-86832181D01*
X105655048Y-86832179D01*
X105530109Y-86660213D01*
X105379786Y-86509890D01*
X105207820Y-86384951D01*
X105207115Y-86384591D01*
X105199054Y-86380485D01*
X105148259Y-86332512D01*
X105131463Y-86264692D01*
X105153999Y-86198556D01*
X105199054Y-86159515D01*
X105207816Y-86155051D01*
X105330625Y-86065826D01*
X105379786Y-86030109D01*
X105379788Y-86030106D01*
X105379792Y-86030104D01*
X105516143Y-85893753D01*
X107150000Y-85893753D01*
X107150000Y-86106246D01*
X107183242Y-86316127D01*
X107183242Y-86316130D01*
X107248904Y-86518217D01*
X107345375Y-86707550D01*
X107384728Y-86761716D01*
X108017037Y-86129408D01*
X108034075Y-86192993D01*
X108099901Y-86307007D01*
X108192993Y-86400099D01*
X108307007Y-86465925D01*
X108370590Y-86482962D01*
X107701195Y-87152356D01*
X107639872Y-87185841D01*
X107625167Y-87184924D01*
X107625444Y-87187497D01*
X107542626Y-87196401D01*
X107542619Y-87196403D01*
X107407913Y-87246645D01*
X107407906Y-87246649D01*
X107292812Y-87332809D01*
X107292809Y-87332812D01*
X107206649Y-87447906D01*
X107206645Y-87447913D01*
X107156403Y-87582620D01*
X107156401Y-87582627D01*
X107150000Y-87642155D01*
X107150000Y-88290000D01*
X108066988Y-88290000D01*
X108034075Y-88347007D01*
X108000000Y-88474174D01*
X108000000Y-88605826D01*
X108034075Y-88732993D01*
X108066988Y-88790000D01*
X107150000Y-88790000D01*
X107150000Y-89437844D01*
X107156401Y-89497372D01*
X107156403Y-89497379D01*
X107206645Y-89632086D01*
X107206649Y-89632093D01*
X107292809Y-89747187D01*
X107292812Y-89747190D01*
X107407906Y-89833350D01*
X107407913Y-89833354D01*
X107542620Y-89883596D01*
X107542627Y-89883598D01*
X107602155Y-89889999D01*
X107602172Y-89890000D01*
X108250000Y-89890000D01*
X108250000Y-88973012D01*
X108307007Y-89005925D01*
X108434174Y-89040000D01*
X108565826Y-89040000D01*
X108692993Y-89005925D01*
X108750000Y-88973012D01*
X108750000Y-89890000D01*
X109397828Y-89890000D01*
X109397844Y-89889999D01*
X109457372Y-89883598D01*
X109457379Y-89883596D01*
X109592086Y-89833354D01*
X109592089Y-89833352D01*
X109645312Y-89793510D01*
X109645313Y-89793509D01*
X109707187Y-89747190D01*
X109707190Y-89747187D01*
X109793350Y-89632093D01*
X109793354Y-89632086D01*
X109843596Y-89497379D01*
X109843598Y-89497372D01*
X109849999Y-89437844D01*
X109850000Y-89437827D01*
X109850000Y-88790000D01*
X108933012Y-88790000D01*
X108965925Y-88732993D01*
X109000000Y-88605826D01*
X109000000Y-88474174D01*
X108965925Y-88347007D01*
X108933012Y-88290000D01*
X109850000Y-88290000D01*
X109850000Y-87642172D01*
X109849999Y-87642155D01*
X109843598Y-87582627D01*
X109843596Y-87582620D01*
X109793354Y-87447913D01*
X109793350Y-87447906D01*
X109707190Y-87332812D01*
X109707187Y-87332809D01*
X109592093Y-87246649D01*
X109592086Y-87246645D01*
X109457380Y-87196403D01*
X109457373Y-87196401D01*
X109374555Y-87187497D01*
X109374884Y-87184431D01*
X109357875Y-87185330D01*
X109298803Y-87152356D01*
X108629408Y-86482962D01*
X108692993Y-86465925D01*
X108807007Y-86400099D01*
X108900099Y-86307007D01*
X108965925Y-86192993D01*
X108982962Y-86129408D01*
X109615270Y-86761717D01*
X109615270Y-86761716D01*
X109654622Y-86707554D01*
X109751095Y-86518217D01*
X109816757Y-86316130D01*
X109816757Y-86316127D01*
X109850000Y-86106246D01*
X109850000Y-85893753D01*
X109816757Y-85683872D01*
X109816757Y-85683869D01*
X109751095Y-85481782D01*
X109654624Y-85292449D01*
X109615270Y-85238282D01*
X109615269Y-85238282D01*
X108982962Y-85870590D01*
X108965925Y-85807007D01*
X108900099Y-85692993D01*
X108807007Y-85599901D01*
X108692993Y-85534075D01*
X108629409Y-85517037D01*
X109261716Y-84884728D01*
X109207550Y-84845375D01*
X109018217Y-84748904D01*
X108816129Y-84683242D01*
X108606246Y-84650000D01*
X108393754Y-84650000D01*
X108183872Y-84683242D01*
X108183869Y-84683242D01*
X107981782Y-84748904D01*
X107792439Y-84845380D01*
X107738282Y-84884727D01*
X107738282Y-84884728D01*
X108370591Y-85517037D01*
X108307007Y-85534075D01*
X108192993Y-85599901D01*
X108099901Y-85692993D01*
X108034075Y-85807007D01*
X108017037Y-85870591D01*
X107384728Y-85238282D01*
X107384727Y-85238282D01*
X107345380Y-85292439D01*
X107248904Y-85481782D01*
X107183242Y-85683869D01*
X107183242Y-85683872D01*
X107150000Y-85893753D01*
X105516143Y-85893753D01*
X105530104Y-85879792D01*
X105530106Y-85879788D01*
X105530109Y-85879786D01*
X105576455Y-85815996D01*
X105629054Y-85743598D01*
X105655051Y-85707816D01*
X105751557Y-85518412D01*
X105817246Y-85316243D01*
X105850500Y-85106287D01*
X105850500Y-84893713D01*
X105817246Y-84683757D01*
X105751557Y-84481588D01*
X105655051Y-84292184D01*
X105655049Y-84292181D01*
X105655048Y-84292179D01*
X105530109Y-84120213D01*
X105379786Y-83969890D01*
X105207819Y-83844951D01*
X105207818Y-83844950D01*
X105207816Y-83844949D01*
X105128497Y-83804534D01*
X105077187Y-83778390D01*
X105018414Y-83748444D01*
X105018413Y-83748443D01*
X105018412Y-83748443D01*
X104816243Y-83682754D01*
X104816241Y-83682753D01*
X104816240Y-83682753D01*
X104760926Y-83673992D01*
X114434500Y-83673992D01*
X114434500Y-84326007D01*
X114473907Y-84524119D01*
X114473909Y-84524127D01*
X114551212Y-84710752D01*
X114551217Y-84710762D01*
X114663441Y-84878718D01*
X114806281Y-85021558D01*
X114974237Y-85133782D01*
X114974241Y-85133784D01*
X114974244Y-85133786D01*
X115160873Y-85211091D01*
X115324288Y-85243596D01*
X115358992Y-85250499D01*
X115358996Y-85250500D01*
X115358997Y-85250500D01*
X115561004Y-85250500D01*
X115561005Y-85250499D01*
X115759127Y-85211091D01*
X115945756Y-85133786D01*
X116026110Y-85080094D01*
X116092786Y-85059217D01*
X116160166Y-85077701D01*
X116163865Y-85080078D01*
X116244244Y-85133786D01*
X116430873Y-85211091D01*
X116594288Y-85243596D01*
X116628992Y-85250499D01*
X116628996Y-85250500D01*
X116628997Y-85250500D01*
X116831004Y-85250500D01*
X116831005Y-85250499D01*
X117029127Y-85211091D01*
X117110338Y-85177451D01*
X117179804Y-85169983D01*
X117224859Y-85189594D01*
X117225128Y-85189103D01*
X117230613Y-85192098D01*
X117232099Y-85192745D01*
X117232911Y-85193353D01*
X117232913Y-85193354D01*
X117367620Y-85243596D01*
X117367627Y-85243598D01*
X117427155Y-85249999D01*
X117427172Y-85250000D01*
X117750000Y-85250000D01*
X117750000Y-84365865D01*
X117750067Y-84361789D01*
X117750400Y-84351638D01*
X117755500Y-84326003D01*
X117755500Y-84285830D01*
X117769745Y-84300075D01*
X117855255Y-84349444D01*
X117950630Y-84375000D01*
X118049370Y-84375000D01*
X118144745Y-84349444D01*
X118230255Y-84300075D01*
X118250000Y-84280330D01*
X118250000Y-85250000D01*
X118572828Y-85250000D01*
X118572844Y-85249999D01*
X118632372Y-85243598D01*
X118632379Y-85243596D01*
X118767086Y-85193354D01*
X118767093Y-85193350D01*
X118882187Y-85107190D01*
X118882190Y-85107187D01*
X118968350Y-84992093D01*
X118968354Y-84992086D01*
X119018596Y-84857379D01*
X119018598Y-84857372D01*
X119024999Y-84797844D01*
X119025000Y-84797827D01*
X119025000Y-84250000D01*
X118280330Y-84250000D01*
X118300075Y-84230255D01*
X118349444Y-84144745D01*
X118375000Y-84049370D01*
X118375000Y-83950630D01*
X118349444Y-83855255D01*
X118300075Y-83769745D01*
X118280330Y-83750000D01*
X119025000Y-83750000D01*
X119025000Y-83702155D01*
X120205000Y-83702155D01*
X120205000Y-84250000D01*
X120949670Y-84250000D01*
X120929925Y-84269745D01*
X120880556Y-84355255D01*
X120855000Y-84450630D01*
X120855000Y-84549370D01*
X120880556Y-84644745D01*
X120929925Y-84730255D01*
X120949670Y-84750000D01*
X120205000Y-84750000D01*
X120205000Y-85297844D01*
X120211401Y-85357372D01*
X120211403Y-85357379D01*
X120261645Y-85492086D01*
X120261649Y-85492093D01*
X120347809Y-85607187D01*
X120347812Y-85607190D01*
X120462906Y-85693350D01*
X120462913Y-85693354D01*
X120597620Y-85743596D01*
X120597627Y-85743598D01*
X120657155Y-85749999D01*
X120657172Y-85750000D01*
X120980000Y-85750000D01*
X120980000Y-84780330D01*
X120999745Y-84800075D01*
X121085255Y-84849444D01*
X121180630Y-84875000D01*
X121279370Y-84875000D01*
X121374745Y-84849444D01*
X121460255Y-84800075D01*
X121474500Y-84785830D01*
X121474500Y-84826002D01*
X121477617Y-84841671D01*
X121480000Y-84865865D01*
X121480000Y-85750000D01*
X121802828Y-85750000D01*
X121802844Y-85749999D01*
X121862372Y-85743598D01*
X121862376Y-85743597D01*
X121997089Y-85693352D01*
X121997896Y-85692748D01*
X121998845Y-85692393D01*
X122004876Y-85689101D01*
X122005349Y-85689967D01*
X122063360Y-85668329D01*
X122119661Y-85677451D01*
X122200873Y-85711091D01*
X122364288Y-85743596D01*
X122398992Y-85750499D01*
X122398996Y-85750500D01*
X122398997Y-85750500D01*
X122601004Y-85750500D01*
X122601005Y-85750499D01*
X122799127Y-85711091D01*
X122985756Y-85633786D01*
X123066110Y-85580094D01*
X123132786Y-85559217D01*
X123200166Y-85577701D01*
X123203865Y-85580078D01*
X123284244Y-85633786D01*
X123470873Y-85711091D01*
X123634288Y-85743596D01*
X123668992Y-85750499D01*
X123668996Y-85750500D01*
X123668997Y-85750500D01*
X123871004Y-85750500D01*
X123871005Y-85750499D01*
X124069127Y-85711091D01*
X124255756Y-85633786D01*
X124423718Y-85521558D01*
X124566558Y-85378718D01*
X124674365Y-85217372D01*
X124678782Y-85210762D01*
X124678782Y-85210761D01*
X124678786Y-85210756D01*
X124756091Y-85024127D01*
X124795500Y-84826003D01*
X124795500Y-84173997D01*
X124756091Y-83975873D01*
X124678786Y-83789244D01*
X124678784Y-83789241D01*
X124678782Y-83789237D01*
X124643742Y-83736796D01*
X124601778Y-83673992D01*
X125704500Y-83673992D01*
X125704500Y-84326007D01*
X125743907Y-84524119D01*
X125743909Y-84524127D01*
X125821212Y-84710752D01*
X125821217Y-84710762D01*
X125933441Y-84878718D01*
X126076281Y-85021558D01*
X126244237Y-85133782D01*
X126244241Y-85133784D01*
X126244244Y-85133786D01*
X126430873Y-85211091D01*
X126594288Y-85243596D01*
X126628992Y-85250499D01*
X126628996Y-85250500D01*
X126628997Y-85250500D01*
X126831004Y-85250500D01*
X126831005Y-85250499D01*
X127029127Y-85211091D01*
X127215756Y-85133786D01*
X127296110Y-85080094D01*
X127362786Y-85059217D01*
X127430166Y-85077701D01*
X127433865Y-85080078D01*
X127514244Y-85133786D01*
X127700873Y-85211091D01*
X127864288Y-85243596D01*
X127898992Y-85250499D01*
X127898996Y-85250500D01*
X127898997Y-85250500D01*
X128101004Y-85250500D01*
X128101005Y-85250499D01*
X128299127Y-85211091D01*
X128380338Y-85177451D01*
X128449804Y-85169983D01*
X128494859Y-85189594D01*
X128495128Y-85189103D01*
X128500613Y-85192098D01*
X128502099Y-85192745D01*
X128502911Y-85193353D01*
X128502913Y-85193354D01*
X128637620Y-85243596D01*
X128637627Y-85243598D01*
X128697155Y-85249999D01*
X128697172Y-85250000D01*
X129020000Y-85250000D01*
X129020000Y-84365865D01*
X129020067Y-84361789D01*
X129020400Y-84351638D01*
X129025500Y-84326003D01*
X129025500Y-84285830D01*
X129039745Y-84300075D01*
X129125255Y-84349444D01*
X129220630Y-84375000D01*
X129319370Y-84375000D01*
X129414745Y-84349444D01*
X129500255Y-84300075D01*
X129520000Y-84280330D01*
X129520000Y-85250000D01*
X129842828Y-85250000D01*
X129842844Y-85249999D01*
X129902372Y-85243598D01*
X129902379Y-85243596D01*
X130037086Y-85193354D01*
X130037093Y-85193350D01*
X130152187Y-85107190D01*
X130152190Y-85107187D01*
X130238350Y-84992093D01*
X130238354Y-84992086D01*
X130288596Y-84857379D01*
X130288598Y-84857372D01*
X130294999Y-84797844D01*
X130295000Y-84797827D01*
X130295000Y-84250000D01*
X129550330Y-84250000D01*
X129570075Y-84230255D01*
X129619444Y-84144745D01*
X129645000Y-84049370D01*
X129645000Y-83950630D01*
X129619444Y-83855255D01*
X129570075Y-83769745D01*
X129550330Y-83750000D01*
X130295000Y-83750000D01*
X130295000Y-83562155D01*
X131205000Y-83562155D01*
X131205000Y-84110000D01*
X131949670Y-84110000D01*
X131929925Y-84129745D01*
X131880556Y-84215255D01*
X131855000Y-84310630D01*
X131855000Y-84409370D01*
X131880556Y-84504745D01*
X131929925Y-84590255D01*
X131949670Y-84610000D01*
X131205000Y-84610000D01*
X131205000Y-85157844D01*
X131211401Y-85217372D01*
X131211403Y-85217379D01*
X131261645Y-85352086D01*
X131261649Y-85352093D01*
X131347809Y-85467187D01*
X131347812Y-85467190D01*
X131462906Y-85553350D01*
X131462913Y-85553354D01*
X131597620Y-85603596D01*
X131597627Y-85603598D01*
X131657155Y-85609999D01*
X131657172Y-85610000D01*
X131980000Y-85610000D01*
X131980000Y-84640330D01*
X131999745Y-84660075D01*
X132085255Y-84709444D01*
X132180630Y-84735000D01*
X132279370Y-84735000D01*
X132374745Y-84709444D01*
X132460255Y-84660075D01*
X132474500Y-84645830D01*
X132474500Y-84686002D01*
X132477617Y-84701671D01*
X132480000Y-84725865D01*
X132480000Y-85610000D01*
X132802828Y-85610000D01*
X132802844Y-85609999D01*
X132862372Y-85603598D01*
X132862376Y-85603597D01*
X132997089Y-85553352D01*
X132997896Y-85552748D01*
X132998845Y-85552393D01*
X133004876Y-85549101D01*
X133005349Y-85549967D01*
X133063360Y-85528329D01*
X133119661Y-85537451D01*
X133200873Y-85571091D01*
X133396478Y-85609999D01*
X133398992Y-85610499D01*
X133398996Y-85610500D01*
X133398997Y-85610500D01*
X133601004Y-85610500D01*
X133601005Y-85610499D01*
X133799127Y-85571091D01*
X133985756Y-85493786D01*
X134066110Y-85440094D01*
X134132786Y-85419217D01*
X134200166Y-85437701D01*
X134203865Y-85440078D01*
X134284244Y-85493786D01*
X134470873Y-85571091D01*
X134666478Y-85609999D01*
X134668992Y-85610499D01*
X134668996Y-85610500D01*
X134668997Y-85610500D01*
X134871004Y-85610500D01*
X134871005Y-85610499D01*
X135069127Y-85571091D01*
X135255756Y-85493786D01*
X135423718Y-85381558D01*
X135566558Y-85238718D01*
X135585018Y-85211090D01*
X135678782Y-85070762D01*
X135678782Y-85070761D01*
X135678786Y-85070756D01*
X135756091Y-84884127D01*
X135795500Y-84686003D01*
X135795500Y-84033997D01*
X135756091Y-83835873D01*
X135678786Y-83649244D01*
X135678784Y-83649241D01*
X135678782Y-83649237D01*
X135566558Y-83481281D01*
X135482925Y-83397648D01*
X136389500Y-83397648D01*
X136389500Y-83602351D01*
X136421522Y-83804534D01*
X136484781Y-83999223D01*
X136502500Y-84033997D01*
X136573833Y-84173996D01*
X136577715Y-84181613D01*
X136698028Y-84347213D01*
X136842786Y-84491971D01*
X136921791Y-84549370D01*
X137008390Y-84612287D01*
X137102179Y-84660075D01*
X137190776Y-84705218D01*
X137190778Y-84705218D01*
X137190781Y-84705220D01*
X137295137Y-84739127D01*
X137385465Y-84768477D01*
X137486557Y-84784488D01*
X137587648Y-84800500D01*
X137587649Y-84800500D01*
X137792351Y-84800500D01*
X137792352Y-84800500D01*
X137994534Y-84768477D01*
X138189219Y-84705220D01*
X138371610Y-84612287D01*
X138492964Y-84524119D01*
X138537213Y-84491971D01*
X138537215Y-84491968D01*
X138537219Y-84491966D01*
X138681966Y-84347219D01*
X138681968Y-84347215D01*
X138681971Y-84347213D01*
X138752599Y-84250000D01*
X138802287Y-84181610D01*
X138895220Y-83999219D01*
X138958477Y-83804534D01*
X138990500Y-83602352D01*
X138990500Y-83397648D01*
X144009500Y-83397648D01*
X144009500Y-83602351D01*
X144041522Y-83804534D01*
X144104781Y-83999223D01*
X144122500Y-84033997D01*
X144193833Y-84173996D01*
X144197715Y-84181613D01*
X144318028Y-84347213D01*
X144462786Y-84491971D01*
X144541791Y-84549370D01*
X144628390Y-84612287D01*
X144722179Y-84660075D01*
X144810776Y-84705218D01*
X144810778Y-84705218D01*
X144810781Y-84705220D01*
X144915137Y-84739127D01*
X145005465Y-84768477D01*
X145106557Y-84784488D01*
X145207648Y-84800500D01*
X145207649Y-84800500D01*
X145412351Y-84800500D01*
X145412352Y-84800500D01*
X145614534Y-84768477D01*
X145809219Y-84705220D01*
X145991610Y-84612287D01*
X146112964Y-84524119D01*
X146157213Y-84491971D01*
X146157215Y-84491968D01*
X146157219Y-84491966D01*
X146301966Y-84347219D01*
X146301968Y-84347215D01*
X146301971Y-84347213D01*
X146372599Y-84250000D01*
X146422287Y-84181610D01*
X146515220Y-83999219D01*
X146578477Y-83804534D01*
X146610500Y-83602352D01*
X146610500Y-83397648D01*
X146587361Y-83251555D01*
X146578477Y-83195465D01*
X146524749Y-83030109D01*
X146515220Y-83000781D01*
X146515218Y-83000778D01*
X146515218Y-83000776D01*
X146460205Y-82892809D01*
X146422287Y-82818390D01*
X146400867Y-82788907D01*
X146301971Y-82652786D01*
X146157213Y-82508028D01*
X145991613Y-82387715D01*
X145991612Y-82387714D01*
X145991610Y-82387713D01*
X145934653Y-82358691D01*
X145809223Y-82294781D01*
X145614534Y-82231522D01*
X145439995Y-82203878D01*
X145412352Y-82199500D01*
X145207648Y-82199500D01*
X145183329Y-82203351D01*
X145005465Y-82231522D01*
X144810776Y-82294781D01*
X144628386Y-82387715D01*
X144462786Y-82508028D01*
X144318028Y-82652786D01*
X144197715Y-82818386D01*
X144104781Y-83000776D01*
X144041522Y-83195465D01*
X144009500Y-83397648D01*
X138990500Y-83397648D01*
X138967361Y-83251555D01*
X138958477Y-83195465D01*
X138904749Y-83030109D01*
X138895220Y-83000781D01*
X138895218Y-83000778D01*
X138895218Y-83000776D01*
X138840205Y-82892809D01*
X138802287Y-82818390D01*
X138780867Y-82788907D01*
X138681971Y-82652786D01*
X138537213Y-82508028D01*
X138371613Y-82387715D01*
X138371612Y-82387714D01*
X138371610Y-82387713D01*
X138314653Y-82358691D01*
X138189223Y-82294781D01*
X137994534Y-82231522D01*
X137819995Y-82203878D01*
X137792352Y-82199500D01*
X137587648Y-82199500D01*
X137563329Y-82203351D01*
X137385465Y-82231522D01*
X137190776Y-82294781D01*
X137008386Y-82387715D01*
X136842786Y-82508028D01*
X136698028Y-82652786D01*
X136577715Y-82818386D01*
X136484781Y-83000776D01*
X136421522Y-83195465D01*
X136389500Y-83397648D01*
X135482925Y-83397648D01*
X135423718Y-83338441D01*
X135255762Y-83226217D01*
X135255752Y-83226212D01*
X135069127Y-83148909D01*
X135069119Y-83148907D01*
X134871007Y-83109500D01*
X134871003Y-83109500D01*
X134668997Y-83109500D01*
X134668992Y-83109500D01*
X134470880Y-83148907D01*
X134470872Y-83148909D01*
X134284244Y-83226213D01*
X134203891Y-83279904D01*
X134137213Y-83300782D01*
X134069833Y-83282297D01*
X134066109Y-83279904D01*
X133985755Y-83226213D01*
X133799127Y-83148909D01*
X133799119Y-83148907D01*
X133601007Y-83109500D01*
X133601003Y-83109500D01*
X133398997Y-83109500D01*
X133398992Y-83109500D01*
X133200880Y-83148907D01*
X133200868Y-83148910D01*
X133119661Y-83182547D01*
X133050191Y-83190016D01*
X133005140Y-83170405D01*
X133004872Y-83170897D01*
X132999374Y-83167894D01*
X132997895Y-83167251D01*
X132997086Y-83166645D01*
X132862379Y-83116403D01*
X132862372Y-83116401D01*
X132802844Y-83110000D01*
X132480000Y-83110000D01*
X132480000Y-83994134D01*
X132477617Y-84018326D01*
X132474500Y-84033995D01*
X132474500Y-84074170D01*
X132460255Y-84059925D01*
X132374745Y-84010556D01*
X132279370Y-83985000D01*
X132180630Y-83985000D01*
X132085255Y-84010556D01*
X131999745Y-84059925D01*
X131980000Y-84079670D01*
X131980000Y-83110000D01*
X131657155Y-83110000D01*
X131597627Y-83116401D01*
X131597620Y-83116403D01*
X131462913Y-83166645D01*
X131462906Y-83166649D01*
X131347812Y-83252809D01*
X131347809Y-83252812D01*
X131261649Y-83367906D01*
X131261645Y-83367913D01*
X131211403Y-83502620D01*
X131211401Y-83502627D01*
X131205000Y-83562155D01*
X130295000Y-83562155D01*
X130295000Y-83202172D01*
X130294999Y-83202155D01*
X130288598Y-83142627D01*
X130288596Y-83142620D01*
X130238354Y-83007913D01*
X130238350Y-83007906D01*
X130152190Y-82892812D01*
X130152187Y-82892809D01*
X130037093Y-82806649D01*
X130037086Y-82806645D01*
X129902379Y-82756403D01*
X129902372Y-82756401D01*
X129842844Y-82750000D01*
X129520000Y-82750000D01*
X129520000Y-83719670D01*
X129500255Y-83699925D01*
X129414745Y-83650556D01*
X129319370Y-83625000D01*
X129220630Y-83625000D01*
X129125255Y-83650556D01*
X129039745Y-83699925D01*
X129025500Y-83714170D01*
X129025500Y-83673997D01*
X129022383Y-83658326D01*
X129020000Y-83634134D01*
X129020000Y-82750000D01*
X128697155Y-82750000D01*
X128637627Y-82756401D01*
X128637620Y-82756403D01*
X128502913Y-82806645D01*
X128502911Y-82806646D01*
X128502092Y-82807260D01*
X128501134Y-82807616D01*
X128495132Y-82810895D01*
X128494660Y-82810031D01*
X128436625Y-82831671D01*
X128380338Y-82822547D01*
X128299131Y-82788910D01*
X128299119Y-82788907D01*
X128101007Y-82749500D01*
X128101003Y-82749500D01*
X127898997Y-82749500D01*
X127898992Y-82749500D01*
X127700880Y-82788907D01*
X127700872Y-82788909D01*
X127514244Y-82866213D01*
X127433891Y-82919904D01*
X127367213Y-82940782D01*
X127299833Y-82922297D01*
X127296109Y-82919904D01*
X127215755Y-82866213D01*
X127029127Y-82788909D01*
X127029119Y-82788907D01*
X126831007Y-82749500D01*
X126831003Y-82749500D01*
X126628997Y-82749500D01*
X126628992Y-82749500D01*
X126430880Y-82788907D01*
X126430872Y-82788909D01*
X126244247Y-82866212D01*
X126244237Y-82866217D01*
X126076281Y-82978441D01*
X125933441Y-83121281D01*
X125821217Y-83289237D01*
X125821212Y-83289247D01*
X125743909Y-83475872D01*
X125743907Y-83475880D01*
X125704500Y-83673992D01*
X124601778Y-83673992D01*
X124566558Y-83621281D01*
X124423718Y-83478441D01*
X124255762Y-83366217D01*
X124255752Y-83366212D01*
X124069127Y-83288909D01*
X124069119Y-83288907D01*
X123871007Y-83249500D01*
X123871003Y-83249500D01*
X123668997Y-83249500D01*
X123668992Y-83249500D01*
X123470880Y-83288907D01*
X123470872Y-83288909D01*
X123284244Y-83366213D01*
X123203891Y-83419904D01*
X123137213Y-83440782D01*
X123069833Y-83422297D01*
X123066109Y-83419904D01*
X122985755Y-83366213D01*
X122799127Y-83288909D01*
X122799119Y-83288907D01*
X122601007Y-83249500D01*
X122601003Y-83249500D01*
X122398997Y-83249500D01*
X122398992Y-83249500D01*
X122200880Y-83288907D01*
X122200868Y-83288910D01*
X122119661Y-83322547D01*
X122050191Y-83330016D01*
X122005140Y-83310405D01*
X122004872Y-83310897D01*
X121999374Y-83307894D01*
X121997895Y-83307251D01*
X121997086Y-83306645D01*
X121862379Y-83256403D01*
X121862372Y-83256401D01*
X121802844Y-83250000D01*
X121480000Y-83250000D01*
X121480000Y-84134134D01*
X121477617Y-84158326D01*
X121474500Y-84173995D01*
X121474500Y-84214170D01*
X121460255Y-84199925D01*
X121374745Y-84150556D01*
X121279370Y-84125000D01*
X121180630Y-84125000D01*
X121085255Y-84150556D01*
X120999745Y-84199925D01*
X120980000Y-84219670D01*
X120980000Y-83250000D01*
X120657155Y-83250000D01*
X120597627Y-83256401D01*
X120597620Y-83256403D01*
X120462913Y-83306645D01*
X120462906Y-83306649D01*
X120347812Y-83392809D01*
X120347809Y-83392812D01*
X120261649Y-83507906D01*
X120261645Y-83507913D01*
X120211403Y-83642620D01*
X120211401Y-83642627D01*
X120205000Y-83702155D01*
X119025000Y-83702155D01*
X119025000Y-83202172D01*
X119024999Y-83202155D01*
X119018598Y-83142627D01*
X119018596Y-83142620D01*
X118968354Y-83007913D01*
X118968350Y-83007906D01*
X118882190Y-82892812D01*
X118882187Y-82892809D01*
X118767093Y-82806649D01*
X118767086Y-82806645D01*
X118632379Y-82756403D01*
X118632372Y-82756401D01*
X118572844Y-82750000D01*
X118250000Y-82750000D01*
X118250000Y-83719670D01*
X118230255Y-83699925D01*
X118144745Y-83650556D01*
X118049370Y-83625000D01*
X117950630Y-83625000D01*
X117855255Y-83650556D01*
X117769745Y-83699925D01*
X117755500Y-83714170D01*
X117755500Y-83673997D01*
X117752383Y-83658326D01*
X117750000Y-83634134D01*
X117750000Y-82750000D01*
X117427155Y-82750000D01*
X117367627Y-82756401D01*
X117367620Y-82756403D01*
X117232913Y-82806645D01*
X117232911Y-82806646D01*
X117232092Y-82807260D01*
X117231134Y-82807616D01*
X117225132Y-82810895D01*
X117224660Y-82810031D01*
X117166625Y-82831671D01*
X117110338Y-82822547D01*
X117029131Y-82788910D01*
X117029119Y-82788907D01*
X116831007Y-82749500D01*
X116831003Y-82749500D01*
X116628997Y-82749500D01*
X116628992Y-82749500D01*
X116430880Y-82788907D01*
X116430872Y-82788909D01*
X116244244Y-82866213D01*
X116163891Y-82919904D01*
X116097213Y-82940782D01*
X116029833Y-82922297D01*
X116026109Y-82919904D01*
X115945755Y-82866213D01*
X115759127Y-82788909D01*
X115759119Y-82788907D01*
X115561007Y-82749500D01*
X115561003Y-82749500D01*
X115358997Y-82749500D01*
X115358992Y-82749500D01*
X115160880Y-82788907D01*
X115160872Y-82788909D01*
X114974247Y-82866212D01*
X114974237Y-82866217D01*
X114806281Y-82978441D01*
X114663441Y-83121281D01*
X114551217Y-83289237D01*
X114551212Y-83289247D01*
X114473909Y-83475872D01*
X114473907Y-83475880D01*
X114434500Y-83673992D01*
X104760926Y-83673992D01*
X104654957Y-83657208D01*
X104606287Y-83649500D01*
X104393713Y-83649500D01*
X104345042Y-83657208D01*
X104183760Y-83682753D01*
X103981585Y-83748444D01*
X103792179Y-83844951D01*
X103620213Y-83969890D01*
X103469890Y-84120213D01*
X103344951Y-84292179D01*
X103248444Y-84481585D01*
X103182753Y-84683760D01*
X103155256Y-84857372D01*
X103149500Y-84893713D01*
X101000500Y-84893713D01*
X101000500Y-77602135D01*
X101529500Y-77602135D01*
X101529500Y-79397870D01*
X101529501Y-79397876D01*
X101535908Y-79457483D01*
X101586202Y-79592328D01*
X101586206Y-79592335D01*
X101672452Y-79707544D01*
X101672455Y-79707547D01*
X101787664Y-79793793D01*
X101787671Y-79793797D01*
X101922517Y-79844091D01*
X101922516Y-79844091D01*
X101929444Y-79844835D01*
X101982127Y-79850500D01*
X103777872Y-79850499D01*
X103837483Y-79844091D01*
X103972331Y-79793796D01*
X104087546Y-79707546D01*
X104173796Y-79592331D01*
X104224091Y-79457483D01*
X104230500Y-79397873D01*
X104230499Y-79373979D01*
X104233330Y-79360963D01*
X104243940Y-79341525D01*
X104250179Y-79320275D01*
X104266803Y-79299643D01*
X104266808Y-79299636D01*
X104266811Y-79299634D01*
X104266818Y-79299626D01*
X104937037Y-78629408D01*
X104954075Y-78692993D01*
X105019901Y-78807007D01*
X105112993Y-78900099D01*
X105227007Y-78965925D01*
X105290590Y-78982962D01*
X104658282Y-79615269D01*
X104658282Y-79615270D01*
X104712449Y-79654624D01*
X104901782Y-79751095D01*
X105103870Y-79816757D01*
X105313754Y-79850000D01*
X105526246Y-79850000D01*
X105736127Y-79816757D01*
X105736130Y-79816757D01*
X105938217Y-79751095D01*
X106127554Y-79654622D01*
X106181716Y-79615270D01*
X106181717Y-79615270D01*
X105549408Y-78982962D01*
X105612993Y-78965925D01*
X105727007Y-78900099D01*
X105820099Y-78807007D01*
X105885925Y-78692993D01*
X105902962Y-78629409D01*
X106535270Y-79261717D01*
X106535270Y-79261716D01*
X106574622Y-79207555D01*
X106579232Y-79198507D01*
X106627205Y-79147709D01*
X106695025Y-79130912D01*
X106761161Y-79153447D01*
X106800204Y-79198504D01*
X106804949Y-79207817D01*
X106929890Y-79379786D01*
X107080213Y-79530109D01*
X107252179Y-79655048D01*
X107252181Y-79655049D01*
X107252184Y-79655051D01*
X107441588Y-79751557D01*
X107643757Y-79817246D01*
X107853713Y-79850500D01*
X107853714Y-79850500D01*
X108066286Y-79850500D01*
X108066287Y-79850500D01*
X108276243Y-79817246D01*
X108478412Y-79751557D01*
X108667816Y-79655051D01*
X108754138Y-79592335D01*
X108839786Y-79530109D01*
X108839788Y-79530106D01*
X108839792Y-79530104D01*
X108990104Y-79379792D01*
X108990106Y-79379788D01*
X108990109Y-79379786D01*
X109115048Y-79207820D01*
X109115050Y-79207817D01*
X109115051Y-79207816D01*
X109119514Y-79199054D01*
X109167488Y-79148259D01*
X109235308Y-79131463D01*
X109301444Y-79153999D01*
X109340486Y-79199056D01*
X109344951Y-79207820D01*
X109469890Y-79379786D01*
X109620213Y-79530109D01*
X109792179Y-79655048D01*
X109792181Y-79655049D01*
X109792184Y-79655051D01*
X109981588Y-79751557D01*
X110183757Y-79817246D01*
X110393713Y-79850500D01*
X110393714Y-79850500D01*
X110606286Y-79850500D01*
X110606287Y-79850500D01*
X110816243Y-79817246D01*
X111018412Y-79751557D01*
X111207816Y-79655051D01*
X111294138Y-79592335D01*
X111379786Y-79530109D01*
X111379788Y-79530106D01*
X111379792Y-79530104D01*
X111530104Y-79379792D01*
X111530106Y-79379788D01*
X111530109Y-79379786D01*
X111655048Y-79207820D01*
X111655050Y-79207817D01*
X111655051Y-79207816D01*
X111751557Y-79018412D01*
X111790796Y-78897648D01*
X114199500Y-78897648D01*
X114199500Y-79102351D01*
X114231522Y-79304534D01*
X114294781Y-79499223D01*
X114353911Y-79615270D01*
X114374180Y-79655051D01*
X114387715Y-79681613D01*
X114508028Y-79847213D01*
X114652786Y-79991971D01*
X114807749Y-80104556D01*
X114818390Y-80112287D01*
X114934607Y-80171503D01*
X115000776Y-80205218D01*
X115000778Y-80205218D01*
X115000781Y-80205220D01*
X115105137Y-80239127D01*
X115195465Y-80268477D01*
X115296557Y-80284488D01*
X115397648Y-80300500D01*
X115397649Y-80300500D01*
X115602351Y-80300500D01*
X115602352Y-80300500D01*
X115804534Y-80268477D01*
X115999219Y-80205220D01*
X116181610Y-80112287D01*
X116274590Y-80044732D01*
X116347213Y-79991971D01*
X116347215Y-79991968D01*
X116347219Y-79991966D01*
X116491966Y-79847219D01*
X116491968Y-79847215D01*
X116491971Y-79847213D01*
X116561469Y-79751555D01*
X116612287Y-79681610D01*
X116705220Y-79499219D01*
X116768477Y-79304534D01*
X116800500Y-79102352D01*
X116800500Y-78897648D01*
X121819500Y-78897648D01*
X121819500Y-79102351D01*
X121851522Y-79304534D01*
X121914781Y-79499223D01*
X121973911Y-79615270D01*
X121994180Y-79655051D01*
X122007715Y-79681613D01*
X122128028Y-79847213D01*
X122272786Y-79991971D01*
X122427749Y-80104556D01*
X122438390Y-80112287D01*
X122554607Y-80171503D01*
X122620776Y-80205218D01*
X122620778Y-80205218D01*
X122620781Y-80205220D01*
X122725137Y-80239127D01*
X122815465Y-80268477D01*
X122916557Y-80284488D01*
X123017648Y-80300500D01*
X123017649Y-80300500D01*
X123222351Y-80300500D01*
X123222352Y-80300500D01*
X123424534Y-80268477D01*
X123619219Y-80205220D01*
X123801610Y-80112287D01*
X123894590Y-80044732D01*
X123967213Y-79991971D01*
X123967215Y-79991968D01*
X123967219Y-79991966D01*
X124111966Y-79847219D01*
X124111968Y-79847215D01*
X124111971Y-79847213D01*
X124181469Y-79751555D01*
X124232287Y-79681610D01*
X124325220Y-79499219D01*
X124388477Y-79304534D01*
X124420500Y-79102352D01*
X124420500Y-78897648D01*
X124889500Y-78897648D01*
X124889500Y-79102351D01*
X124921522Y-79304534D01*
X124984781Y-79499223D01*
X125043911Y-79615270D01*
X125064180Y-79655051D01*
X125077715Y-79681613D01*
X125198028Y-79847213D01*
X125342786Y-79991971D01*
X125497749Y-80104556D01*
X125508390Y-80112287D01*
X125624607Y-80171503D01*
X125690776Y-80205218D01*
X125690778Y-80205218D01*
X125690781Y-80205220D01*
X125795137Y-80239127D01*
X125885465Y-80268477D01*
X125986557Y-80284488D01*
X126087648Y-80300500D01*
X126087649Y-80300500D01*
X126292351Y-80300500D01*
X126292352Y-80300500D01*
X126494534Y-80268477D01*
X126689219Y-80205220D01*
X126871610Y-80112287D01*
X126964590Y-80044732D01*
X127037213Y-79991971D01*
X127037215Y-79991968D01*
X127037219Y-79991966D01*
X127181966Y-79847219D01*
X127181968Y-79847215D01*
X127181971Y-79847213D01*
X127251469Y-79751555D01*
X127302287Y-79681610D01*
X127395220Y-79499219D01*
X127458477Y-79304534D01*
X127490500Y-79102352D01*
X127490500Y-78897648D01*
X132509500Y-78897648D01*
X132509500Y-79102351D01*
X132541522Y-79304534D01*
X132604781Y-79499223D01*
X132663911Y-79615270D01*
X132684180Y-79655051D01*
X132697715Y-79681613D01*
X132818028Y-79847213D01*
X132962786Y-79991971D01*
X133117749Y-80104556D01*
X133128390Y-80112287D01*
X133244607Y-80171503D01*
X133310776Y-80205218D01*
X133310778Y-80205218D01*
X133310781Y-80205220D01*
X133415137Y-80239127D01*
X133505465Y-80268477D01*
X133606557Y-80284488D01*
X133707648Y-80300500D01*
X133707649Y-80300500D01*
X133912351Y-80300500D01*
X133912352Y-80300500D01*
X134114534Y-80268477D01*
X134309219Y-80205220D01*
X134491610Y-80112287D01*
X134584590Y-80044732D01*
X134657213Y-79991971D01*
X134657215Y-79991968D01*
X134657219Y-79991966D01*
X134801966Y-79847219D01*
X134801968Y-79847215D01*
X134801971Y-79847213D01*
X134871469Y-79751555D01*
X134922287Y-79681610D01*
X135015220Y-79499219D01*
X135078477Y-79304534D01*
X135110500Y-79102352D01*
X135110500Y-78897648D01*
X135389500Y-78897648D01*
X135389500Y-79102351D01*
X135421522Y-79304534D01*
X135484781Y-79499223D01*
X135543911Y-79615270D01*
X135564180Y-79655051D01*
X135577715Y-79681613D01*
X135698028Y-79847213D01*
X135842786Y-79991971D01*
X135997749Y-80104556D01*
X136008390Y-80112287D01*
X136124607Y-80171503D01*
X136190776Y-80205218D01*
X136190778Y-80205218D01*
X136190781Y-80205220D01*
X136295137Y-80239127D01*
X136385465Y-80268477D01*
X136486557Y-80284488D01*
X136587648Y-80300500D01*
X136587649Y-80300500D01*
X136792351Y-80300500D01*
X136792352Y-80300500D01*
X136994534Y-80268477D01*
X137189219Y-80205220D01*
X137371610Y-80112287D01*
X137464590Y-80044732D01*
X137537213Y-79991971D01*
X137537215Y-79991968D01*
X137537219Y-79991966D01*
X137681966Y-79847219D01*
X137681968Y-79847215D01*
X137681971Y-79847213D01*
X137751469Y-79751555D01*
X137802287Y-79681610D01*
X137895220Y-79499219D01*
X137958477Y-79304534D01*
X137990500Y-79102352D01*
X137990500Y-78897648D01*
X143009500Y-78897648D01*
X143009500Y-79102351D01*
X143041522Y-79304534D01*
X143104781Y-79499223D01*
X143163911Y-79615270D01*
X143184180Y-79655051D01*
X143197715Y-79681613D01*
X143318028Y-79847213D01*
X143462786Y-79991971D01*
X143617749Y-80104556D01*
X143628390Y-80112287D01*
X143744607Y-80171503D01*
X143810776Y-80205218D01*
X143810778Y-80205218D01*
X143810781Y-80205220D01*
X143915137Y-80239127D01*
X144005465Y-80268477D01*
X144106557Y-80284488D01*
X144207648Y-80300500D01*
X144207649Y-80300500D01*
X144412351Y-80300500D01*
X144412352Y-80300500D01*
X144614534Y-80268477D01*
X144809219Y-80205220D01*
X144991610Y-80112287D01*
X145084590Y-80044732D01*
X145157213Y-79991971D01*
X145157215Y-79991968D01*
X145157219Y-79991966D01*
X145301966Y-79847219D01*
X145301968Y-79847215D01*
X145301971Y-79847213D01*
X145371469Y-79751555D01*
X145422287Y-79681610D01*
X145515220Y-79499219D01*
X145562498Y-79353713D01*
X147149500Y-79353713D01*
X147149500Y-79566286D01*
X147178843Y-79751555D01*
X147182754Y-79776243D01*
X147206881Y-79850499D01*
X147248444Y-79978414D01*
X147344951Y-80167820D01*
X147469890Y-80339786D01*
X147620213Y-80490109D01*
X147792182Y-80615050D01*
X147800946Y-80619516D01*
X147851742Y-80667491D01*
X147868536Y-80735312D01*
X147845998Y-80801447D01*
X147800946Y-80840484D01*
X147792182Y-80844949D01*
X147620213Y-80969890D01*
X147469890Y-81120213D01*
X147344951Y-81292179D01*
X147248444Y-81481585D01*
X147182753Y-81683760D01*
X147149500Y-81893713D01*
X147149500Y-82106286D01*
X147182753Y-82316239D01*
X147248444Y-82518414D01*
X147344951Y-82707820D01*
X147469890Y-82879786D01*
X147620213Y-83030109D01*
X147792179Y-83155048D01*
X147792181Y-83155049D01*
X147792184Y-83155051D01*
X147981588Y-83251557D01*
X148183757Y-83317246D01*
X148393713Y-83350500D01*
X148393714Y-83350500D01*
X148606286Y-83350500D01*
X148606287Y-83350500D01*
X148816243Y-83317246D01*
X149018412Y-83251557D01*
X149207816Y-83155051D01*
X149229789Y-83139086D01*
X149379786Y-83030109D01*
X149379788Y-83030106D01*
X149379792Y-83030104D01*
X149530104Y-82879792D01*
X149530106Y-82879788D01*
X149530109Y-82879786D01*
X149655048Y-82707820D01*
X149655047Y-82707820D01*
X149655051Y-82707816D01*
X149751557Y-82518412D01*
X149817246Y-82316243D01*
X149850500Y-82106287D01*
X149850500Y-81893713D01*
X149817246Y-81683757D01*
X149751557Y-81481588D01*
X149655051Y-81292184D01*
X149655049Y-81292181D01*
X149655048Y-81292179D01*
X149530109Y-81120213D01*
X149379786Y-80969890D01*
X149207820Y-80844951D01*
X149207115Y-80844591D01*
X149199054Y-80840485D01*
X149148259Y-80792512D01*
X149131463Y-80724692D01*
X149153999Y-80658556D01*
X149199054Y-80619515D01*
X149207816Y-80615051D01*
X149229789Y-80599086D01*
X149379786Y-80490109D01*
X149379788Y-80490106D01*
X149379792Y-80490104D01*
X149530104Y-80339792D01*
X149530106Y-80339788D01*
X149530109Y-80339786D01*
X149655048Y-80167820D01*
X149655047Y-80167820D01*
X149655051Y-80167816D01*
X149751557Y-79978412D01*
X149817246Y-79776243D01*
X149850500Y-79566287D01*
X149850500Y-79353713D01*
X149817246Y-79143757D01*
X149751557Y-78941588D01*
X149655051Y-78752184D01*
X149655049Y-78752181D01*
X149655048Y-78752179D01*
X149530109Y-78580213D01*
X149416181Y-78466285D01*
X149382696Y-78404962D01*
X149387680Y-78335270D01*
X149429552Y-78279337D01*
X149460529Y-78262422D01*
X149592086Y-78213354D01*
X149592093Y-78213350D01*
X149707187Y-78127190D01*
X149707190Y-78127187D01*
X149793350Y-78012093D01*
X149793354Y-78012086D01*
X149843596Y-77877379D01*
X149843598Y-77877372D01*
X149849999Y-77817844D01*
X149850000Y-77817827D01*
X149850000Y-77170000D01*
X148933012Y-77170000D01*
X148965925Y-77112993D01*
X149000000Y-76985826D01*
X149000000Y-76854174D01*
X148965925Y-76727007D01*
X148933012Y-76670000D01*
X149850000Y-76670000D01*
X149850000Y-76022172D01*
X149849999Y-76022155D01*
X149843598Y-75962627D01*
X149843596Y-75962620D01*
X149793354Y-75827913D01*
X149793350Y-75827906D01*
X149707190Y-75712812D01*
X149707187Y-75712809D01*
X149592093Y-75626649D01*
X149592086Y-75626645D01*
X149457379Y-75576403D01*
X149457372Y-75576401D01*
X149397844Y-75570000D01*
X148750000Y-75570000D01*
X148750000Y-76486988D01*
X148692993Y-76454075D01*
X148565826Y-76420000D01*
X148434174Y-76420000D01*
X148307007Y-76454075D01*
X148250000Y-76486988D01*
X148250000Y-75570000D01*
X147602155Y-75570000D01*
X147542627Y-75576401D01*
X147542620Y-75576403D01*
X147407913Y-75626645D01*
X147407906Y-75626649D01*
X147292812Y-75712809D01*
X147292809Y-75712812D01*
X147206649Y-75827906D01*
X147206645Y-75827913D01*
X147156403Y-75962620D01*
X147156401Y-75962627D01*
X147150000Y-76022155D01*
X147150000Y-76670000D01*
X148066988Y-76670000D01*
X148034075Y-76727007D01*
X148000000Y-76854174D01*
X148000000Y-76985826D01*
X148034075Y-77112993D01*
X148066988Y-77170000D01*
X147150000Y-77170000D01*
X147150000Y-77817844D01*
X147156401Y-77877372D01*
X147156403Y-77877379D01*
X147206645Y-78012086D01*
X147206649Y-78012093D01*
X147292809Y-78127187D01*
X147292812Y-78127190D01*
X147407906Y-78213350D01*
X147407913Y-78213354D01*
X147539470Y-78262422D01*
X147595404Y-78304293D01*
X147619821Y-78369758D01*
X147604969Y-78438031D01*
X147583819Y-78466285D01*
X147469889Y-78580215D01*
X147344951Y-78752179D01*
X147248444Y-78941585D01*
X147182753Y-79143760D01*
X147149500Y-79353713D01*
X145562498Y-79353713D01*
X145566458Y-79341525D01*
X145576532Y-79310522D01*
X145576532Y-79310521D01*
X145578475Y-79304539D01*
X145578477Y-79304534D01*
X145610500Y-79102352D01*
X145610500Y-78897648D01*
X145596144Y-78807007D01*
X145578477Y-78695465D01*
X145515218Y-78500776D01*
X145479102Y-78429896D01*
X145422287Y-78318390D01*
X145393914Y-78279337D01*
X145301971Y-78152786D01*
X145157213Y-78008028D01*
X144991613Y-77887715D01*
X144991612Y-77887714D01*
X144991610Y-77887713D01*
X144934653Y-77858691D01*
X144809223Y-77794781D01*
X144614534Y-77731522D01*
X144439995Y-77703878D01*
X144412352Y-77699500D01*
X144207648Y-77699500D01*
X144183329Y-77703351D01*
X144005465Y-77731522D01*
X143810776Y-77794781D01*
X143628386Y-77887715D01*
X143462786Y-78008028D01*
X143318028Y-78152786D01*
X143197715Y-78318386D01*
X143104781Y-78500776D01*
X143041522Y-78695465D01*
X143009500Y-78897648D01*
X137990500Y-78897648D01*
X137976144Y-78807007D01*
X137958477Y-78695465D01*
X137895218Y-78500776D01*
X137859102Y-78429896D01*
X137802287Y-78318390D01*
X137773914Y-78279337D01*
X137681971Y-78152786D01*
X137537213Y-78008028D01*
X137371613Y-77887715D01*
X137371612Y-77887714D01*
X137371610Y-77887713D01*
X137314653Y-77858691D01*
X137189223Y-77794781D01*
X136994534Y-77731522D01*
X136819995Y-77703878D01*
X136792352Y-77699500D01*
X136587648Y-77699500D01*
X136563329Y-77703351D01*
X136385465Y-77731522D01*
X136190776Y-77794781D01*
X136008386Y-77887715D01*
X135842786Y-78008028D01*
X135698028Y-78152786D01*
X135577715Y-78318386D01*
X135484781Y-78500776D01*
X135421522Y-78695465D01*
X135389500Y-78897648D01*
X135110500Y-78897648D01*
X135096144Y-78807007D01*
X135078477Y-78695465D01*
X135015218Y-78500776D01*
X134979102Y-78429896D01*
X134922287Y-78318390D01*
X134893914Y-78279337D01*
X134801971Y-78152786D01*
X134657213Y-78008028D01*
X134491613Y-77887715D01*
X134491612Y-77887714D01*
X134491610Y-77887713D01*
X134434653Y-77858691D01*
X134309223Y-77794781D01*
X134114534Y-77731522D01*
X133939995Y-77703878D01*
X133912352Y-77699500D01*
X133707648Y-77699500D01*
X133683329Y-77703351D01*
X133505465Y-77731522D01*
X133310776Y-77794781D01*
X133128386Y-77887715D01*
X132962786Y-78008028D01*
X132818028Y-78152786D01*
X132697715Y-78318386D01*
X132604781Y-78500776D01*
X132541522Y-78695465D01*
X132509500Y-78897648D01*
X127490500Y-78897648D01*
X127476144Y-78807007D01*
X127458477Y-78695465D01*
X127395218Y-78500776D01*
X127359102Y-78429896D01*
X127302287Y-78318390D01*
X127273914Y-78279337D01*
X127181971Y-78152786D01*
X127037213Y-78008028D01*
X126871613Y-77887715D01*
X126871612Y-77887714D01*
X126871610Y-77887713D01*
X126814653Y-77858691D01*
X126689223Y-77794781D01*
X126494534Y-77731522D01*
X126319995Y-77703878D01*
X126292352Y-77699500D01*
X126087648Y-77699500D01*
X126063329Y-77703351D01*
X125885465Y-77731522D01*
X125690776Y-77794781D01*
X125508386Y-77887715D01*
X125342786Y-78008028D01*
X125198028Y-78152786D01*
X125077715Y-78318386D01*
X124984781Y-78500776D01*
X124921522Y-78695465D01*
X124889500Y-78897648D01*
X124420500Y-78897648D01*
X124406144Y-78807007D01*
X124388477Y-78695465D01*
X124325218Y-78500776D01*
X124289102Y-78429896D01*
X124232287Y-78318390D01*
X124203914Y-78279337D01*
X124111971Y-78152786D01*
X123967213Y-78008028D01*
X123801613Y-77887715D01*
X123801612Y-77887714D01*
X123801610Y-77887713D01*
X123744653Y-77858691D01*
X123619223Y-77794781D01*
X123424534Y-77731522D01*
X123249995Y-77703878D01*
X123222352Y-77699500D01*
X123017648Y-77699500D01*
X122993329Y-77703351D01*
X122815465Y-77731522D01*
X122620776Y-77794781D01*
X122438386Y-77887715D01*
X122272786Y-78008028D01*
X122128028Y-78152786D01*
X122007715Y-78318386D01*
X121914781Y-78500776D01*
X121851522Y-78695465D01*
X121819500Y-78897648D01*
X116800500Y-78897648D01*
X116786144Y-78807007D01*
X116768477Y-78695465D01*
X116705218Y-78500776D01*
X116669102Y-78429896D01*
X116612287Y-78318390D01*
X116583914Y-78279337D01*
X116491971Y-78152786D01*
X116347213Y-78008028D01*
X116181613Y-77887715D01*
X116181612Y-77887714D01*
X116181610Y-77887713D01*
X116124653Y-77858691D01*
X115999223Y-77794781D01*
X115804534Y-77731522D01*
X115629995Y-77703878D01*
X115602352Y-77699500D01*
X115397648Y-77699500D01*
X115373329Y-77703351D01*
X115195465Y-77731522D01*
X115000776Y-77794781D01*
X114818386Y-77887715D01*
X114652786Y-78008028D01*
X114508028Y-78152786D01*
X114387715Y-78318386D01*
X114294781Y-78500776D01*
X114231522Y-78695465D01*
X114199500Y-78897648D01*
X111790796Y-78897648D01*
X111817246Y-78816243D01*
X111850500Y-78606287D01*
X111850500Y-78393713D01*
X111817246Y-78183757D01*
X111751557Y-77981588D01*
X111655051Y-77792184D01*
X111655049Y-77792181D01*
X111655048Y-77792179D01*
X111530109Y-77620213D01*
X111379786Y-77469890D01*
X111207820Y-77344951D01*
X111018414Y-77248444D01*
X111018413Y-77248443D01*
X111018412Y-77248443D01*
X110816243Y-77182754D01*
X110816241Y-77182753D01*
X110816240Y-77182753D01*
X110654957Y-77157208D01*
X110606287Y-77149500D01*
X110393713Y-77149500D01*
X110345042Y-77157208D01*
X110183760Y-77182753D01*
X109981585Y-77248444D01*
X109792179Y-77344951D01*
X109620213Y-77469890D01*
X109469890Y-77620213D01*
X109344949Y-77792182D01*
X109340484Y-77800946D01*
X109292509Y-77851742D01*
X109224688Y-77868536D01*
X109158553Y-77845998D01*
X109119516Y-77800946D01*
X109115050Y-77792182D01*
X108990109Y-77620213D01*
X108839786Y-77469890D01*
X108667820Y-77344951D01*
X108478414Y-77248444D01*
X108478413Y-77248443D01*
X108478412Y-77248443D01*
X108276243Y-77182754D01*
X108276241Y-77182753D01*
X108276240Y-77182753D01*
X108114957Y-77157208D01*
X108066287Y-77149500D01*
X107853713Y-77149500D01*
X107805042Y-77157208D01*
X107643760Y-77182753D01*
X107441585Y-77248444D01*
X107252179Y-77344951D01*
X107080213Y-77469890D01*
X106929890Y-77620213D01*
X106804949Y-77792182D01*
X106800202Y-77801499D01*
X106752227Y-77852293D01*
X106684405Y-77869087D01*
X106618271Y-77846548D01*
X106579234Y-77801495D01*
X106574626Y-77792452D01*
X106535270Y-77738282D01*
X106535269Y-77738282D01*
X105902962Y-78370590D01*
X105885925Y-78307007D01*
X105820099Y-78192993D01*
X105727007Y-78099901D01*
X105612993Y-78034075D01*
X105549409Y-78017037D01*
X106181716Y-77384728D01*
X106127550Y-77345375D01*
X105938217Y-77248904D01*
X105736129Y-77183242D01*
X105526246Y-77150000D01*
X105313754Y-77150000D01*
X105103872Y-77183242D01*
X105103869Y-77183242D01*
X104901782Y-77248904D01*
X104712439Y-77345380D01*
X104658282Y-77384727D01*
X104658282Y-77384728D01*
X105290591Y-78017037D01*
X105227007Y-78034075D01*
X105112993Y-78099901D01*
X105019901Y-78192993D01*
X104954075Y-78307007D01*
X104937037Y-78370591D01*
X104266818Y-77700372D01*
X104233333Y-77639049D01*
X104233330Y-77639036D01*
X104230499Y-77626015D01*
X104230499Y-77602128D01*
X104224091Y-77542517D01*
X104195926Y-77467002D01*
X104173798Y-77407673D01*
X104173793Y-77407664D01*
X104087547Y-77292455D01*
X104087544Y-77292452D01*
X103972335Y-77206206D01*
X103972328Y-77206202D01*
X103837482Y-77155908D01*
X103837483Y-77155908D01*
X103777883Y-77149501D01*
X103777881Y-77149500D01*
X103777873Y-77149500D01*
X103777864Y-77149500D01*
X101982129Y-77149500D01*
X101982123Y-77149501D01*
X101922516Y-77155908D01*
X101787671Y-77206202D01*
X101787664Y-77206206D01*
X101672455Y-77292452D01*
X101672452Y-77292455D01*
X101586206Y-77407664D01*
X101586202Y-77407671D01*
X101535908Y-77542517D01*
X101529501Y-77602116D01*
X101529500Y-77602135D01*
X101000500Y-77602135D01*
X101000500Y-71603713D01*
X101399500Y-71603713D01*
X101399500Y-71816286D01*
X101425642Y-71981344D01*
X101432754Y-72026243D01*
X101486754Y-72192438D01*
X101498444Y-72228414D01*
X101594951Y-72417820D01*
X101719890Y-72589786D01*
X101833430Y-72703326D01*
X101866915Y-72764649D01*
X101861931Y-72834341D01*
X101820059Y-72890274D01*
X101789083Y-72907189D01*
X101657669Y-72956203D01*
X101657664Y-72956206D01*
X101542455Y-73042452D01*
X101542452Y-73042455D01*
X101456206Y-73157664D01*
X101456202Y-73157671D01*
X101405908Y-73292517D01*
X101399501Y-73352116D01*
X101399500Y-73352135D01*
X101399500Y-75147870D01*
X101399501Y-75147876D01*
X101405908Y-75207483D01*
X101456202Y-75342328D01*
X101456206Y-75342335D01*
X101542452Y-75457544D01*
X101542455Y-75457547D01*
X101657664Y-75543793D01*
X101657671Y-75543797D01*
X101792517Y-75594091D01*
X101792516Y-75594091D01*
X101799444Y-75594835D01*
X101852127Y-75600500D01*
X103647872Y-75600499D01*
X103707483Y-75594091D01*
X103842331Y-75543796D01*
X103957546Y-75457546D01*
X104043796Y-75342331D01*
X104094091Y-75207483D01*
X104100500Y-75147873D01*
X104100499Y-74350516D01*
X104120183Y-74283478D01*
X104172987Y-74237723D01*
X104242146Y-74227779D01*
X104305702Y-74256804D01*
X104312180Y-74262836D01*
X104796886Y-74747542D01*
X104894458Y-74845114D01*
X104894459Y-74845115D01*
X105009182Y-74921771D01*
X105009186Y-74921773D01*
X105009189Y-74921775D01*
X105083866Y-74952707D01*
X105136671Y-74974580D01*
X105163591Y-74979934D01*
X105260630Y-74999237D01*
X105272006Y-75001500D01*
X105272007Y-75001500D01*
X113086998Y-75001500D01*
X113154037Y-75021185D01*
X113199792Y-75073989D01*
X113209471Y-75106102D01*
X113209500Y-75106285D01*
X113209500Y-75106287D01*
X113242754Y-75316243D01*
X113288666Y-75457546D01*
X113308444Y-75518414D01*
X113404951Y-75707820D01*
X113529890Y-75879786D01*
X113680213Y-76030109D01*
X113852179Y-76155048D01*
X113852181Y-76155049D01*
X113852184Y-76155051D01*
X114041588Y-76251557D01*
X114243757Y-76317246D01*
X114453713Y-76350500D01*
X114453714Y-76350500D01*
X114666286Y-76350500D01*
X114666287Y-76350500D01*
X114876243Y-76317246D01*
X115078412Y-76251557D01*
X115267816Y-76155051D01*
X115354138Y-76092335D01*
X115439786Y-76030109D01*
X115439788Y-76030106D01*
X115439792Y-76030104D01*
X115590104Y-75879792D01*
X115590106Y-75879788D01*
X115590109Y-75879786D01*
X115715048Y-75707820D01*
X115715047Y-75707820D01*
X115715051Y-75707816D01*
X115719514Y-75699054D01*
X115767488Y-75648259D01*
X115835308Y-75631463D01*
X115901444Y-75653999D01*
X115940486Y-75699056D01*
X115944951Y-75707820D01*
X116069890Y-75879786D01*
X116220213Y-76030109D01*
X116392179Y-76155048D01*
X116392181Y-76155049D01*
X116392184Y-76155051D01*
X116581588Y-76251557D01*
X116783757Y-76317246D01*
X116993713Y-76350500D01*
X116993714Y-76350500D01*
X117206286Y-76350500D01*
X117206287Y-76350500D01*
X117416243Y-76317246D01*
X117618412Y-76251557D01*
X117807816Y-76155051D01*
X117894138Y-76092335D01*
X117979786Y-76030109D01*
X117979788Y-76030106D01*
X117979792Y-76030104D01*
X118130104Y-75879792D01*
X118130106Y-75879788D01*
X118130109Y-75879786D01*
X118255048Y-75707820D01*
X118255047Y-75707820D01*
X118255051Y-75707816D01*
X118259514Y-75699054D01*
X118307488Y-75648259D01*
X118375308Y-75631463D01*
X118441444Y-75653999D01*
X118480486Y-75699056D01*
X118484951Y-75707820D01*
X118609890Y-75879786D01*
X118760213Y-76030109D01*
X118932179Y-76155048D01*
X118932181Y-76155049D01*
X118932184Y-76155051D01*
X119121588Y-76251557D01*
X119323757Y-76317246D01*
X119533713Y-76350500D01*
X119533714Y-76350500D01*
X119746286Y-76350500D01*
X119746287Y-76350500D01*
X119956243Y-76317246D01*
X120158412Y-76251557D01*
X120347816Y-76155051D01*
X120434138Y-76092335D01*
X120519786Y-76030109D01*
X120519788Y-76030106D01*
X120519792Y-76030104D01*
X120670104Y-75879792D01*
X120670106Y-75879788D01*
X120670109Y-75879786D01*
X120795048Y-75707820D01*
X120795047Y-75707820D01*
X120795051Y-75707816D01*
X120799514Y-75699054D01*
X120847488Y-75648259D01*
X120915308Y-75631463D01*
X120981444Y-75653999D01*
X121020486Y-75699056D01*
X121024951Y-75707820D01*
X121149890Y-75879786D01*
X121300213Y-76030109D01*
X121472179Y-76155048D01*
X121472181Y-76155049D01*
X121472184Y-76155051D01*
X121661588Y-76251557D01*
X121863757Y-76317246D01*
X122073713Y-76350500D01*
X122073714Y-76350500D01*
X122286286Y-76350500D01*
X122286287Y-76350500D01*
X122496243Y-76317246D01*
X122698412Y-76251557D01*
X122887816Y-76155051D01*
X122974138Y-76092335D01*
X123059786Y-76030109D01*
X123059788Y-76030106D01*
X123059792Y-76030104D01*
X123210104Y-75879792D01*
X123210106Y-75879788D01*
X123210109Y-75879786D01*
X123335048Y-75707820D01*
X123335047Y-75707820D01*
X123335051Y-75707816D01*
X123339514Y-75699054D01*
X123387488Y-75648259D01*
X123455308Y-75631463D01*
X123521444Y-75653999D01*
X123560486Y-75699056D01*
X123564951Y-75707820D01*
X123689890Y-75879786D01*
X123840213Y-76030109D01*
X124012179Y-76155048D01*
X124012181Y-76155049D01*
X124012184Y-76155051D01*
X124201588Y-76251557D01*
X124403757Y-76317246D01*
X124613713Y-76350500D01*
X124613714Y-76350500D01*
X124826286Y-76350500D01*
X124826287Y-76350500D01*
X125036243Y-76317246D01*
X125238412Y-76251557D01*
X125427816Y-76155051D01*
X125514138Y-76092335D01*
X125599786Y-76030109D01*
X125599788Y-76030106D01*
X125599792Y-76030104D01*
X125750104Y-75879792D01*
X125750106Y-75879788D01*
X125750109Y-75879786D01*
X125875048Y-75707820D01*
X125875047Y-75707820D01*
X125875051Y-75707816D01*
X125879514Y-75699054D01*
X125927488Y-75648259D01*
X125995308Y-75631463D01*
X126061444Y-75653999D01*
X126100486Y-75699056D01*
X126104951Y-75707820D01*
X126229890Y-75879786D01*
X126380213Y-76030109D01*
X126552179Y-76155048D01*
X126552181Y-76155049D01*
X126552184Y-76155051D01*
X126741588Y-76251557D01*
X126943757Y-76317246D01*
X127153713Y-76350500D01*
X127153714Y-76350500D01*
X127366286Y-76350500D01*
X127366287Y-76350500D01*
X127576243Y-76317246D01*
X127778412Y-76251557D01*
X127967816Y-76155051D01*
X128054138Y-76092335D01*
X128139786Y-76030109D01*
X128139788Y-76030106D01*
X128139792Y-76030104D01*
X128290104Y-75879792D01*
X128290106Y-75879788D01*
X128290109Y-75879786D01*
X128415048Y-75707820D01*
X128415047Y-75707820D01*
X128415051Y-75707816D01*
X128419514Y-75699054D01*
X128467488Y-75648259D01*
X128535308Y-75631463D01*
X128601444Y-75653999D01*
X128640486Y-75699056D01*
X128644951Y-75707820D01*
X128769890Y-75879786D01*
X128920213Y-76030109D01*
X129092179Y-76155048D01*
X129092181Y-76155049D01*
X129092184Y-76155051D01*
X129281588Y-76251557D01*
X129483757Y-76317246D01*
X129693713Y-76350500D01*
X129693714Y-76350500D01*
X129906286Y-76350500D01*
X129906287Y-76350500D01*
X130116243Y-76317246D01*
X130318412Y-76251557D01*
X130507816Y-76155051D01*
X130594138Y-76092335D01*
X130679786Y-76030109D01*
X130679788Y-76030106D01*
X130679792Y-76030104D01*
X130830104Y-75879792D01*
X130830106Y-75879788D01*
X130830109Y-75879786D01*
X130955048Y-75707820D01*
X130955047Y-75707820D01*
X130955051Y-75707816D01*
X130959514Y-75699054D01*
X131007488Y-75648259D01*
X131075308Y-75631463D01*
X131141444Y-75653999D01*
X131180486Y-75699056D01*
X131184951Y-75707820D01*
X131309890Y-75879786D01*
X131460213Y-76030109D01*
X131632179Y-76155048D01*
X131632181Y-76155049D01*
X131632184Y-76155051D01*
X131821588Y-76251557D01*
X132023757Y-76317246D01*
X132233713Y-76350500D01*
X132233714Y-76350500D01*
X132446286Y-76350500D01*
X132446287Y-76350500D01*
X132656243Y-76317246D01*
X132858412Y-76251557D01*
X133047816Y-76155051D01*
X133134138Y-76092335D01*
X133219786Y-76030109D01*
X133219788Y-76030106D01*
X133219792Y-76030104D01*
X133370104Y-75879792D01*
X133370106Y-75879788D01*
X133370109Y-75879786D01*
X133495048Y-75707820D01*
X133495047Y-75707820D01*
X133495051Y-75707816D01*
X133499514Y-75699054D01*
X133547488Y-75648259D01*
X133615308Y-75631463D01*
X133681444Y-75653999D01*
X133720486Y-75699056D01*
X133724951Y-75707820D01*
X133849890Y-75879786D01*
X134000213Y-76030109D01*
X134172179Y-76155048D01*
X134172181Y-76155049D01*
X134172184Y-76155051D01*
X134361588Y-76251557D01*
X134563757Y-76317246D01*
X134773713Y-76350500D01*
X134773714Y-76350500D01*
X134986286Y-76350500D01*
X134986287Y-76350500D01*
X135196243Y-76317246D01*
X135398412Y-76251557D01*
X135587816Y-76155051D01*
X135674138Y-76092335D01*
X135759786Y-76030109D01*
X135759788Y-76030106D01*
X135759792Y-76030104D01*
X135910104Y-75879792D01*
X135910106Y-75879788D01*
X135910109Y-75879786D01*
X136035048Y-75707820D01*
X136035047Y-75707820D01*
X136035051Y-75707816D01*
X136039514Y-75699054D01*
X136087488Y-75648259D01*
X136155308Y-75631463D01*
X136221444Y-75653999D01*
X136260486Y-75699056D01*
X136264951Y-75707820D01*
X136389890Y-75879786D01*
X136540213Y-76030109D01*
X136712179Y-76155048D01*
X136712181Y-76155049D01*
X136712184Y-76155051D01*
X136901588Y-76251557D01*
X137103757Y-76317246D01*
X137313713Y-76350500D01*
X137313714Y-76350500D01*
X137526286Y-76350500D01*
X137526287Y-76350500D01*
X137736243Y-76317246D01*
X137938412Y-76251557D01*
X138127816Y-76155051D01*
X138214138Y-76092335D01*
X138299786Y-76030109D01*
X138299788Y-76030106D01*
X138299792Y-76030104D01*
X138450104Y-75879792D01*
X138450106Y-75879788D01*
X138450109Y-75879786D01*
X138575048Y-75707820D01*
X138575047Y-75707820D01*
X138575051Y-75707816D01*
X138579514Y-75699054D01*
X138627488Y-75648259D01*
X138695308Y-75631463D01*
X138761444Y-75653999D01*
X138800486Y-75699056D01*
X138804951Y-75707820D01*
X138929890Y-75879786D01*
X139080213Y-76030109D01*
X139252179Y-76155048D01*
X139252181Y-76155049D01*
X139252184Y-76155051D01*
X139441588Y-76251557D01*
X139643757Y-76317246D01*
X139853713Y-76350500D01*
X139853714Y-76350500D01*
X140066286Y-76350500D01*
X140066287Y-76350500D01*
X140276243Y-76317246D01*
X140478412Y-76251557D01*
X140667816Y-76155051D01*
X140839792Y-76030104D01*
X140953329Y-75916566D01*
X141014648Y-75883084D01*
X141084340Y-75888068D01*
X141140274Y-75929939D01*
X141157189Y-75960917D01*
X141206202Y-76092328D01*
X141206206Y-76092335D01*
X141292452Y-76207544D01*
X141292455Y-76207547D01*
X141407664Y-76293793D01*
X141407671Y-76293797D01*
X141542517Y-76344091D01*
X141542516Y-76344091D01*
X141549444Y-76344835D01*
X141602127Y-76350500D01*
X143397872Y-76350499D01*
X143457483Y-76344091D01*
X143592331Y-76293796D01*
X143707546Y-76207546D01*
X143793796Y-76092331D01*
X143817003Y-76030110D01*
X143837365Y-75975518D01*
X143844091Y-75957482D01*
X143847052Y-75929939D01*
X143850500Y-75897873D01*
X143850499Y-74102128D01*
X143844091Y-74042517D01*
X143842810Y-74039083D01*
X143793797Y-73907671D01*
X143793793Y-73907664D01*
X143707547Y-73792455D01*
X143707544Y-73792452D01*
X143592335Y-73706206D01*
X143592328Y-73706202D01*
X143457482Y-73655908D01*
X143457483Y-73655908D01*
X143397883Y-73649501D01*
X143397881Y-73649500D01*
X143397873Y-73649500D01*
X143397864Y-73649500D01*
X141602129Y-73649500D01*
X141602123Y-73649501D01*
X141542516Y-73655908D01*
X141407671Y-73706202D01*
X141407664Y-73706206D01*
X141292455Y-73792452D01*
X141292452Y-73792455D01*
X141206206Y-73907664D01*
X141206203Y-73907669D01*
X141157189Y-74039083D01*
X141115317Y-74095016D01*
X141049853Y-74119433D01*
X140981580Y-74104581D01*
X140953326Y-74083430D01*
X140839786Y-73969890D01*
X140667820Y-73844951D01*
X140478414Y-73748444D01*
X140478413Y-73748443D01*
X140478412Y-73748443D01*
X140276243Y-73682754D01*
X140276241Y-73682753D01*
X140276240Y-73682753D01*
X140114957Y-73657208D01*
X140066287Y-73649500D01*
X139853713Y-73649500D01*
X139805042Y-73657208D01*
X139643760Y-73682753D01*
X139441585Y-73748444D01*
X139252179Y-73844951D01*
X139080213Y-73969890D01*
X138929890Y-74120213D01*
X138804949Y-74292182D01*
X138800484Y-74300946D01*
X138752509Y-74351742D01*
X138684688Y-74368536D01*
X138618553Y-74345998D01*
X138579516Y-74300946D01*
X138575050Y-74292182D01*
X138450109Y-74120213D01*
X138299786Y-73969890D01*
X138127820Y-73844951D01*
X137938414Y-73748444D01*
X137938413Y-73748443D01*
X137938412Y-73748443D01*
X137736243Y-73682754D01*
X137736241Y-73682753D01*
X137736240Y-73682753D01*
X137574957Y-73657208D01*
X137526287Y-73649500D01*
X137313713Y-73649500D01*
X137265042Y-73657208D01*
X137103760Y-73682753D01*
X136901585Y-73748444D01*
X136712179Y-73844951D01*
X136540213Y-73969890D01*
X136389890Y-74120213D01*
X136264949Y-74292182D01*
X136260484Y-74300946D01*
X136212509Y-74351742D01*
X136144688Y-74368536D01*
X136078553Y-74345998D01*
X136039516Y-74300946D01*
X136035050Y-74292182D01*
X135910109Y-74120213D01*
X135759786Y-73969890D01*
X135587820Y-73844951D01*
X135398414Y-73748444D01*
X135398413Y-73748443D01*
X135398412Y-73748443D01*
X135196243Y-73682754D01*
X135196241Y-73682753D01*
X135196240Y-73682753D01*
X135034957Y-73657208D01*
X134986287Y-73649500D01*
X134773713Y-73649500D01*
X134725042Y-73657208D01*
X134563760Y-73682753D01*
X134361585Y-73748444D01*
X134172179Y-73844951D01*
X134000213Y-73969890D01*
X133849890Y-74120213D01*
X133724949Y-74292182D01*
X133720484Y-74300946D01*
X133672509Y-74351742D01*
X133604688Y-74368536D01*
X133538553Y-74345998D01*
X133499516Y-74300946D01*
X133495050Y-74292182D01*
X133370109Y-74120213D01*
X133219786Y-73969890D01*
X133047820Y-73844951D01*
X132858414Y-73748444D01*
X132858413Y-73748443D01*
X132858412Y-73748443D01*
X132656243Y-73682754D01*
X132656241Y-73682753D01*
X132656240Y-73682753D01*
X132494957Y-73657208D01*
X132446287Y-73649500D01*
X132233713Y-73649500D01*
X132185042Y-73657208D01*
X132023760Y-73682753D01*
X131821585Y-73748444D01*
X131632179Y-73844951D01*
X131460213Y-73969890D01*
X131309890Y-74120213D01*
X131184949Y-74292182D01*
X131180484Y-74300946D01*
X131132509Y-74351742D01*
X131064688Y-74368536D01*
X130998553Y-74345998D01*
X130959516Y-74300946D01*
X130955050Y-74292182D01*
X130830109Y-74120213D01*
X130679786Y-73969890D01*
X130507820Y-73844951D01*
X130318414Y-73748444D01*
X130318413Y-73748443D01*
X130318412Y-73748443D01*
X130116243Y-73682754D01*
X130116241Y-73682753D01*
X130116240Y-73682753D01*
X129954957Y-73657208D01*
X129906287Y-73649500D01*
X129693713Y-73649500D01*
X129645042Y-73657208D01*
X129483760Y-73682753D01*
X129281585Y-73748444D01*
X129092179Y-73844951D01*
X128920213Y-73969890D01*
X128769890Y-74120213D01*
X128644949Y-74292182D01*
X128640484Y-74300946D01*
X128592509Y-74351742D01*
X128524688Y-74368536D01*
X128458553Y-74345998D01*
X128419516Y-74300946D01*
X128415050Y-74292182D01*
X128290109Y-74120213D01*
X128139786Y-73969890D01*
X127967820Y-73844951D01*
X127778414Y-73748444D01*
X127778413Y-73748443D01*
X127778412Y-73748443D01*
X127576243Y-73682754D01*
X127576241Y-73682753D01*
X127576240Y-73682753D01*
X127414957Y-73657208D01*
X127366287Y-73649500D01*
X127153713Y-73649500D01*
X127105042Y-73657208D01*
X126943760Y-73682753D01*
X126741585Y-73748444D01*
X126552179Y-73844951D01*
X126380213Y-73969890D01*
X126229890Y-74120213D01*
X126104949Y-74292182D01*
X126100484Y-74300946D01*
X126052509Y-74351742D01*
X125984688Y-74368536D01*
X125918553Y-74345998D01*
X125879516Y-74300946D01*
X125875050Y-74292182D01*
X125750109Y-74120213D01*
X125599786Y-73969890D01*
X125427820Y-73844951D01*
X125238414Y-73748444D01*
X125238413Y-73748443D01*
X125238412Y-73748443D01*
X125036243Y-73682754D01*
X125036241Y-73682753D01*
X125036240Y-73682753D01*
X124874957Y-73657208D01*
X124826287Y-73649500D01*
X124613713Y-73649500D01*
X124565042Y-73657208D01*
X124403760Y-73682753D01*
X124201585Y-73748444D01*
X124012179Y-73844951D01*
X123840213Y-73969890D01*
X123689890Y-74120213D01*
X123564949Y-74292182D01*
X123560484Y-74300946D01*
X123512509Y-74351742D01*
X123444688Y-74368536D01*
X123378553Y-74345998D01*
X123339516Y-74300946D01*
X123335050Y-74292182D01*
X123210109Y-74120213D01*
X123059786Y-73969890D01*
X122887820Y-73844951D01*
X122698414Y-73748444D01*
X122698413Y-73748443D01*
X122698412Y-73748443D01*
X122496243Y-73682754D01*
X122496241Y-73682753D01*
X122496240Y-73682753D01*
X122334957Y-73657208D01*
X122286287Y-73649500D01*
X122073713Y-73649500D01*
X122025042Y-73657208D01*
X121863760Y-73682753D01*
X121661585Y-73748444D01*
X121472179Y-73844951D01*
X121300213Y-73969890D01*
X121149890Y-74120213D01*
X121024949Y-74292182D01*
X121020484Y-74300946D01*
X120972509Y-74351742D01*
X120904688Y-74368536D01*
X120838553Y-74345998D01*
X120799516Y-74300946D01*
X120795050Y-74292182D01*
X120670109Y-74120213D01*
X120519786Y-73969890D01*
X120347820Y-73844951D01*
X120158414Y-73748444D01*
X120158413Y-73748443D01*
X120158412Y-73748443D01*
X119956243Y-73682754D01*
X119956241Y-73682753D01*
X119956240Y-73682753D01*
X119794957Y-73657208D01*
X119746287Y-73649500D01*
X119533713Y-73649500D01*
X119377227Y-73674284D01*
X119307934Y-73665329D01*
X119270149Y-73639492D01*
X118735546Y-73104888D01*
X118735545Y-73104887D01*
X118620807Y-73028222D01*
X118493332Y-72975421D01*
X118493322Y-72975418D01*
X118357996Y-72948500D01*
X118357994Y-72948500D01*
X118357993Y-72948500D01*
X113931404Y-72948500D01*
X113931400Y-72948500D01*
X113822987Y-72970065D01*
X113822986Y-72970065D01*
X113796078Y-72975418D01*
X113796068Y-72975420D01*
X113668587Y-73028224D01*
X113553851Y-73104887D01*
X113553850Y-73104888D01*
X113094559Y-73564181D01*
X113033236Y-73597666D01*
X113006878Y-73600500D01*
X111129613Y-73600500D01*
X111062574Y-73580815D01*
X111016819Y-73528011D01*
X111005613Y-73476500D01*
X111005612Y-72399998D01*
X111005611Y-72399981D01*
X110995112Y-72297203D01*
X110995111Y-72297200D01*
X110987448Y-72274076D01*
X110939927Y-72130666D01*
X110847825Y-71981344D01*
X110723769Y-71857288D01*
X110574447Y-71765186D01*
X110407910Y-71710001D01*
X110407908Y-71710000D01*
X110305123Y-71699500D01*
X109105111Y-71699500D01*
X109105094Y-71699501D01*
X109002316Y-71710000D01*
X109002313Y-71710001D01*
X108835781Y-71765185D01*
X108835776Y-71765187D01*
X108686455Y-71857289D01*
X108562402Y-71981342D01*
X108470300Y-72130663D01*
X108470298Y-72130668D01*
X108449830Y-72192438D01*
X108410057Y-72249883D01*
X108345541Y-72276706D01*
X108322396Y-72277052D01*
X108284587Y-72274076D01*
X107605113Y-72953551D01*
X107605113Y-72947339D01*
X107577854Y-72845606D01*
X107525193Y-72754394D01*
X107450719Y-72679920D01*
X107359507Y-72627259D01*
X107257774Y-72600000D01*
X107251559Y-72600000D01*
X107931035Y-71920524D01*
X107931034Y-71920523D01*
X107886472Y-71888147D01*
X107886463Y-71888141D01*
X107704144Y-71795244D01*
X107509530Y-71732009D01*
X107307430Y-71700000D01*
X107102796Y-71700000D01*
X106900695Y-71732009D01*
X106706081Y-71795244D01*
X106523757Y-71888143D01*
X106479190Y-71920523D01*
X106479190Y-71920524D01*
X107158667Y-72600000D01*
X107152452Y-72600000D01*
X107050719Y-72627259D01*
X106959507Y-72679920D01*
X106885033Y-72754394D01*
X106832372Y-72845606D01*
X106805113Y-72947339D01*
X106805113Y-72953553D01*
X106125637Y-72274077D01*
X106125636Y-72274077D01*
X106093256Y-72318644D01*
X106000357Y-72500968D01*
X105937122Y-72695582D01*
X105905113Y-72897682D01*
X105905113Y-73102317D01*
X105937122Y-73304417D01*
X105980586Y-73438181D01*
X105981389Y-73466302D01*
X105985393Y-73494147D01*
X105982373Y-73500758D01*
X105982581Y-73508022D01*
X105968056Y-73532108D01*
X105956368Y-73557703D01*
X105950253Y-73561632D01*
X105946501Y-73567855D01*
X105921258Y-73580266D01*
X105897590Y-73595477D01*
X105887318Y-73596953D01*
X105883800Y-73598684D01*
X105862655Y-73600500D01*
X105682518Y-73600500D01*
X105615479Y-73580815D01*
X105594837Y-73564181D01*
X104110507Y-72079851D01*
X104077022Y-72018528D01*
X104075715Y-71972770D01*
X104079578Y-71948383D01*
X104079578Y-71948381D01*
X104083991Y-71920523D01*
X104100500Y-71816287D01*
X104100500Y-71603713D01*
X104067246Y-71393757D01*
X104001557Y-71191588D01*
X103905051Y-71002184D01*
X103905049Y-71002181D01*
X103905048Y-71002179D01*
X103780109Y-70830213D01*
X103629786Y-70679890D01*
X103457820Y-70554951D01*
X103268414Y-70458444D01*
X103268413Y-70458443D01*
X103268412Y-70458443D01*
X103066243Y-70392754D01*
X103066241Y-70392753D01*
X103066240Y-70392753D01*
X102904957Y-70367208D01*
X102856287Y-70359500D01*
X102643713Y-70359500D01*
X102595042Y-70367208D01*
X102433760Y-70392753D01*
X102231585Y-70458444D01*
X102042179Y-70554951D01*
X101870213Y-70679890D01*
X101719890Y-70830213D01*
X101594951Y-71002179D01*
X101498444Y-71191585D01*
X101432753Y-71393760D01*
X101399500Y-71603713D01*
X101000500Y-71603713D01*
X101000500Y-69167133D01*
X112629500Y-69167133D01*
X112629500Y-69832866D01*
X112663227Y-70045809D01*
X112663246Y-70045926D01*
X112729908Y-70251089D01*
X112827843Y-70443299D01*
X112954641Y-70617821D01*
X113107179Y-70770359D01*
X113281701Y-70897157D01*
X113473911Y-70995092D01*
X113679074Y-71061754D01*
X113746796Y-71072480D01*
X113892134Y-71095500D01*
X113892139Y-71095500D01*
X114107866Y-71095500D01*
X114226230Y-71076752D01*
X114320926Y-71061754D01*
X114526089Y-70995092D01*
X114718299Y-70897157D01*
X114892821Y-70770359D01*
X115045359Y-70617821D01*
X115169682Y-70446704D01*
X115225012Y-70404040D01*
X115294626Y-70398061D01*
X115356420Y-70430667D01*
X115370315Y-70446702D01*
X115494641Y-70617821D01*
X115647179Y-70770359D01*
X115821701Y-70897157D01*
X116013911Y-70995092D01*
X116219074Y-71061754D01*
X116286796Y-71072480D01*
X116432134Y-71095500D01*
X116432139Y-71095500D01*
X116647866Y-71095500D01*
X116766230Y-71076752D01*
X116860926Y-71061754D01*
X117066089Y-70995092D01*
X117258299Y-70897157D01*
X117432821Y-70770359D01*
X117585359Y-70617821D01*
X117709682Y-70446704D01*
X117765012Y-70404040D01*
X117834626Y-70398061D01*
X117896420Y-70430667D01*
X117910315Y-70446702D01*
X118034641Y-70617821D01*
X118187179Y-70770359D01*
X118361701Y-70897157D01*
X118553911Y-70995092D01*
X118759074Y-71061754D01*
X118826796Y-71072480D01*
X118972134Y-71095500D01*
X118972139Y-71095500D01*
X119187866Y-71095500D01*
X119306230Y-71076752D01*
X119400926Y-71061754D01*
X119606089Y-70995092D01*
X119798299Y-70897157D01*
X119972821Y-70770359D01*
X120125359Y-70617821D01*
X120249682Y-70446704D01*
X120305012Y-70404040D01*
X120374626Y-70398061D01*
X120436420Y-70430667D01*
X120450315Y-70446702D01*
X120574641Y-70617821D01*
X120727179Y-70770359D01*
X120901701Y-70897157D01*
X121093911Y-70995092D01*
X121299074Y-71061754D01*
X121366796Y-71072480D01*
X121512134Y-71095500D01*
X121512139Y-71095500D01*
X121727866Y-71095500D01*
X121846230Y-71076752D01*
X121940926Y-71061754D01*
X122146089Y-70995092D01*
X122338299Y-70897157D01*
X122512821Y-70770359D01*
X122654807Y-70628372D01*
X122716126Y-70594890D01*
X122785818Y-70599874D01*
X122841752Y-70641745D01*
X122854864Y-70663645D01*
X122855181Y-70664326D01*
X122855186Y-70664334D01*
X122947288Y-70813656D01*
X123071344Y-70937712D01*
X123220666Y-71029814D01*
X123387203Y-71084999D01*
X123489991Y-71095500D01*
X124830008Y-71095499D01*
X124932797Y-71084999D01*
X125099334Y-71029814D01*
X125248656Y-70937712D01*
X125372712Y-70813656D01*
X125464814Y-70664334D01*
X125519999Y-70497797D01*
X125530500Y-70395009D01*
X125530499Y-68604992D01*
X125530498Y-68604983D01*
X128549500Y-68604983D01*
X128549500Y-70395001D01*
X128549501Y-70395018D01*
X128560000Y-70497796D01*
X128560001Y-70497799D01*
X128615185Y-70664331D01*
X128615187Y-70664336D01*
X128650069Y-70720888D01*
X128707288Y-70813656D01*
X128831344Y-70937712D01*
X128980666Y-71029814D01*
X129147203Y-71084999D01*
X129249991Y-71095500D01*
X130590008Y-71095499D01*
X130692797Y-71084999D01*
X130859334Y-71029814D01*
X131008656Y-70937712D01*
X131132712Y-70813656D01*
X131224814Y-70664334D01*
X131224817Y-70664323D01*
X131225353Y-70663177D01*
X131225934Y-70662516D01*
X131228605Y-70658187D01*
X131229344Y-70658643D01*
X131271521Y-70610734D01*
X131338713Y-70591577D01*
X131405596Y-70611788D01*
X131425420Y-70627892D01*
X131567502Y-70769974D01*
X131741963Y-70896728D01*
X131934098Y-70994627D01*
X132139190Y-71061266D01*
X132210000Y-71072481D01*
X132210000Y-70042709D01*
X132230339Y-70054452D01*
X132381667Y-70095000D01*
X132538333Y-70095000D01*
X132689661Y-70054452D01*
X132710000Y-70042709D01*
X132710000Y-71072480D01*
X132780809Y-71061266D01*
X132985901Y-70994627D01*
X133178036Y-70896728D01*
X133352496Y-70769974D01*
X133352497Y-70769974D01*
X133504974Y-70617497D01*
X133504979Y-70617491D01*
X133629372Y-70446280D01*
X133684702Y-70403614D01*
X133754315Y-70397635D01*
X133816110Y-70430241D01*
X133830008Y-70446279D01*
X133954641Y-70617821D01*
X134107179Y-70770359D01*
X134281701Y-70897157D01*
X134473911Y-70995092D01*
X134679074Y-71061754D01*
X134746796Y-71072480D01*
X134892134Y-71095500D01*
X134892139Y-71095500D01*
X135107866Y-71095500D01*
X135226230Y-71076752D01*
X135320926Y-71061754D01*
X135526089Y-70995092D01*
X135718299Y-70897157D01*
X135892821Y-70770359D01*
X136045359Y-70617821D01*
X136169682Y-70446704D01*
X136225012Y-70404040D01*
X136294626Y-70398061D01*
X136356420Y-70430667D01*
X136370315Y-70446702D01*
X136494641Y-70617821D01*
X136647179Y-70770359D01*
X136821701Y-70897157D01*
X137013911Y-70995092D01*
X137219074Y-71061754D01*
X137286796Y-71072480D01*
X137432134Y-71095500D01*
X137432139Y-71095500D01*
X137647866Y-71095500D01*
X137766230Y-71076752D01*
X137860926Y-71061754D01*
X138066089Y-70995092D01*
X138258299Y-70897157D01*
X138432821Y-70770359D01*
X138585359Y-70617821D01*
X138712157Y-70443299D01*
X138810092Y-70251089D01*
X138876754Y-70045926D01*
X138891752Y-69951230D01*
X138910500Y-69832866D01*
X138910500Y-69167133D01*
X138876754Y-68954077D01*
X138876754Y-68954074D01*
X138810092Y-68748911D01*
X138810000Y-68748730D01*
X138763838Y-68658130D01*
X138763837Y-68658129D01*
X138736758Y-68604983D01*
X142129500Y-68604983D01*
X142129500Y-70395001D01*
X142129501Y-70395018D01*
X142140000Y-70497796D01*
X142140001Y-70497799D01*
X142195185Y-70664331D01*
X142195187Y-70664336D01*
X142230069Y-70720888D01*
X142287288Y-70813656D01*
X142411344Y-70937712D01*
X142560666Y-71029814D01*
X142727203Y-71084999D01*
X142829991Y-71095500D01*
X144170008Y-71095499D01*
X144272797Y-71084999D01*
X144439334Y-71029814D01*
X144588656Y-70937712D01*
X144712712Y-70813656D01*
X144804814Y-70664334D01*
X144804817Y-70664322D01*
X144805129Y-70663657D01*
X144805469Y-70663269D01*
X144808605Y-70658187D01*
X144809473Y-70658722D01*
X144851299Y-70611216D01*
X144918491Y-70592060D01*
X144985373Y-70612272D01*
X145005195Y-70628375D01*
X145147179Y-70770359D01*
X145321701Y-70897157D01*
X145513911Y-70995092D01*
X145719074Y-71061754D01*
X145786796Y-71072480D01*
X145932134Y-71095500D01*
X145932139Y-71095500D01*
X146147866Y-71095500D01*
X146266230Y-71076752D01*
X146360926Y-71061754D01*
X146566089Y-70995092D01*
X146758299Y-70897157D01*
X146932821Y-70770359D01*
X147085359Y-70617821D01*
X147209991Y-70446279D01*
X147265321Y-70403614D01*
X147334934Y-70397635D01*
X147396729Y-70430241D01*
X147410627Y-70446279D01*
X147535025Y-70617496D01*
X147535025Y-70617497D01*
X147687502Y-70769974D01*
X147861963Y-70896728D01*
X148054098Y-70994627D01*
X148259190Y-71061266D01*
X148330000Y-71072481D01*
X148330000Y-70042709D01*
X148350339Y-70054452D01*
X148501667Y-70095000D01*
X148658333Y-70095000D01*
X148809661Y-70054452D01*
X148830000Y-70042709D01*
X148830000Y-71072480D01*
X148900809Y-71061266D01*
X149105901Y-70994627D01*
X149298036Y-70896728D01*
X149472496Y-70769974D01*
X149472497Y-70769974D01*
X149624974Y-70617497D01*
X149624974Y-70617496D01*
X149751728Y-70443036D01*
X149849627Y-70250901D01*
X149916265Y-70045809D01*
X149950000Y-69832820D01*
X149950000Y-69750000D01*
X149122709Y-69750000D01*
X149134452Y-69729661D01*
X149175000Y-69578333D01*
X149175000Y-69421667D01*
X149134452Y-69270339D01*
X149122709Y-69250000D01*
X149950000Y-69250000D01*
X149950000Y-69167179D01*
X149916265Y-68954190D01*
X149849627Y-68749098D01*
X149751728Y-68556963D01*
X149624974Y-68382503D01*
X149624974Y-68382502D01*
X149472497Y-68230025D01*
X149298036Y-68103271D01*
X149105899Y-68005372D01*
X148900805Y-67938733D01*
X148830000Y-67927518D01*
X148830000Y-68957290D01*
X148809661Y-68945548D01*
X148658333Y-68905000D01*
X148501667Y-68905000D01*
X148350339Y-68945548D01*
X148330000Y-68957290D01*
X148330000Y-67927518D01*
X148329999Y-67927518D01*
X148259194Y-67938733D01*
X148054100Y-68005372D01*
X147861963Y-68103271D01*
X147687503Y-68230025D01*
X147687502Y-68230025D01*
X147535024Y-68382503D01*
X147410627Y-68553720D01*
X147355296Y-68596385D01*
X147285683Y-68602364D01*
X147223888Y-68569758D01*
X147209991Y-68553720D01*
X147085359Y-68382179D01*
X146932821Y-68229641D01*
X146758299Y-68102843D01*
X146566089Y-68004908D01*
X146360926Y-67938246D01*
X146360924Y-67938245D01*
X146360922Y-67938245D01*
X146147866Y-67904500D01*
X146147861Y-67904500D01*
X145932139Y-67904500D01*
X145932134Y-67904500D01*
X145719077Y-67938245D01*
X145513908Y-68004909D01*
X145321700Y-68102843D01*
X145147180Y-68229640D01*
X145005195Y-68371625D01*
X144943872Y-68405109D01*
X144874180Y-68400125D01*
X144818247Y-68358253D01*
X144805132Y-68336348D01*
X144804815Y-68335669D01*
X144804814Y-68335668D01*
X144804814Y-68335666D01*
X144712712Y-68186344D01*
X144588656Y-68062288D01*
X144439334Y-67970186D01*
X144272797Y-67915001D01*
X144272795Y-67915000D01*
X144170010Y-67904500D01*
X142829998Y-67904500D01*
X142829981Y-67904501D01*
X142727203Y-67915000D01*
X142727200Y-67915001D01*
X142560668Y-67970185D01*
X142560663Y-67970187D01*
X142411342Y-68062289D01*
X142287289Y-68186342D01*
X142195187Y-68335663D01*
X142195185Y-68335668D01*
X142183270Y-68371625D01*
X142140001Y-68502203D01*
X142140001Y-68502204D01*
X142140000Y-68502204D01*
X142129500Y-68604983D01*
X138736758Y-68604983D01*
X138732160Y-68595959D01*
X138712157Y-68556701D01*
X138585359Y-68382179D01*
X138432821Y-68229641D01*
X138258299Y-68102843D01*
X138066089Y-68004908D01*
X137860926Y-67938246D01*
X137860924Y-67938245D01*
X137860922Y-67938245D01*
X137647866Y-67904500D01*
X137647861Y-67904500D01*
X137432139Y-67904500D01*
X137432134Y-67904500D01*
X137219077Y-67938245D01*
X137013908Y-68004909D01*
X136821700Y-68102843D01*
X136722129Y-68175186D01*
X136647179Y-68229641D01*
X136647177Y-68229643D01*
X136647176Y-68229643D01*
X136494643Y-68382176D01*
X136494643Y-68382177D01*
X136494641Y-68382179D01*
X136417729Y-68488038D01*
X136370318Y-68553294D01*
X136314988Y-68595959D01*
X136245374Y-68601938D01*
X136183579Y-68569332D01*
X136169682Y-68553294D01*
X136147435Y-68522674D01*
X136045359Y-68382179D01*
X135892821Y-68229641D01*
X135718299Y-68102843D01*
X135526089Y-68004908D01*
X135320926Y-67938246D01*
X135320924Y-67938245D01*
X135320922Y-67938245D01*
X135107866Y-67904500D01*
X135107861Y-67904500D01*
X134892139Y-67904500D01*
X134892134Y-67904500D01*
X134679077Y-67938245D01*
X134473908Y-68004909D01*
X134281700Y-68102843D01*
X134182129Y-68175186D01*
X134107179Y-68229641D01*
X134107177Y-68229643D01*
X134107176Y-68229643D01*
X133954642Y-68382177D01*
X133830008Y-68553720D01*
X133774677Y-68596385D01*
X133705064Y-68602364D01*
X133643269Y-68569758D01*
X133629372Y-68553720D01*
X133504974Y-68382503D01*
X133504974Y-68382502D01*
X133352497Y-68230025D01*
X133178036Y-68103271D01*
X132985899Y-68005372D01*
X132780805Y-67938733D01*
X132710000Y-67927518D01*
X132710000Y-68957290D01*
X132689661Y-68945548D01*
X132538333Y-68905000D01*
X132381667Y-68905000D01*
X132230339Y-68945548D01*
X132210000Y-68957290D01*
X132210000Y-67927518D01*
X132209999Y-67927518D01*
X132139194Y-67938733D01*
X131934100Y-68005372D01*
X131741963Y-68103271D01*
X131567506Y-68230022D01*
X131425420Y-68372108D01*
X131364097Y-68405592D01*
X131294405Y-68400608D01*
X131238472Y-68358736D01*
X131225356Y-68336828D01*
X131224816Y-68335670D01*
X131159654Y-68230025D01*
X131132712Y-68186344D01*
X131008656Y-68062288D01*
X130859334Y-67970186D01*
X130692797Y-67915001D01*
X130692795Y-67915000D01*
X130590010Y-67904500D01*
X129249998Y-67904500D01*
X129249981Y-67904501D01*
X129147203Y-67915000D01*
X129147200Y-67915001D01*
X128980668Y-67970185D01*
X128980663Y-67970187D01*
X128831342Y-68062289D01*
X128707289Y-68186342D01*
X128615187Y-68335663D01*
X128615185Y-68335668D01*
X128603270Y-68371625D01*
X128560001Y-68502203D01*
X128560001Y-68502204D01*
X128560000Y-68502204D01*
X128549500Y-68604983D01*
X125530498Y-68604983D01*
X125519999Y-68502203D01*
X125464814Y-68335666D01*
X125372712Y-68186344D01*
X125248656Y-68062288D01*
X125099334Y-67970186D01*
X124932797Y-67915001D01*
X124932795Y-67915000D01*
X124830010Y-67904500D01*
X123489998Y-67904500D01*
X123489981Y-67904501D01*
X123387203Y-67915000D01*
X123387200Y-67915001D01*
X123220668Y-67970185D01*
X123220663Y-67970187D01*
X123071342Y-68062289D01*
X122947289Y-68186342D01*
X122855179Y-68335677D01*
X122854861Y-68336360D01*
X122854518Y-68336748D01*
X122851395Y-68341813D01*
X122850529Y-68341278D01*
X122808683Y-68388794D01*
X122741487Y-68407939D01*
X122674608Y-68387716D01*
X122654804Y-68371624D01*
X122512823Y-68229643D01*
X122512821Y-68229641D01*
X122338299Y-68102843D01*
X122146089Y-68004908D01*
X121940926Y-67938246D01*
X121940924Y-67938245D01*
X121940922Y-67938245D01*
X121727866Y-67904500D01*
X121727861Y-67904500D01*
X121512139Y-67904500D01*
X121512134Y-67904500D01*
X121299077Y-67938245D01*
X121093908Y-68004909D01*
X120901700Y-68102843D01*
X120802129Y-68175186D01*
X120727179Y-68229641D01*
X120727177Y-68229643D01*
X120727176Y-68229643D01*
X120574643Y-68382176D01*
X120574643Y-68382177D01*
X120574641Y-68382179D01*
X120497729Y-68488038D01*
X120450318Y-68553294D01*
X120394988Y-68595959D01*
X120325374Y-68601938D01*
X120263579Y-68569332D01*
X120249682Y-68553294D01*
X120227435Y-68522674D01*
X120125359Y-68382179D01*
X119972821Y-68229641D01*
X119798299Y-68102843D01*
X119606089Y-68004908D01*
X119400926Y-67938246D01*
X119400924Y-67938245D01*
X119400922Y-67938245D01*
X119187866Y-67904500D01*
X119187861Y-67904500D01*
X118972139Y-67904500D01*
X118972134Y-67904500D01*
X118759077Y-67938245D01*
X118553908Y-68004909D01*
X118361700Y-68102843D01*
X118262129Y-68175186D01*
X118187179Y-68229641D01*
X118187177Y-68229643D01*
X118187176Y-68229643D01*
X118034643Y-68382176D01*
X118034643Y-68382177D01*
X118034641Y-68382179D01*
X117957729Y-68488038D01*
X117910318Y-68553294D01*
X117854988Y-68595959D01*
X117785374Y-68601938D01*
X117723579Y-68569332D01*
X117709682Y-68553294D01*
X117687435Y-68522674D01*
X117585359Y-68382179D01*
X117432821Y-68229641D01*
X117258299Y-68102843D01*
X117066089Y-68004908D01*
X116860926Y-67938246D01*
X116860924Y-67938245D01*
X116860922Y-67938245D01*
X116647866Y-67904500D01*
X116647861Y-67904500D01*
X116432139Y-67904500D01*
X116432134Y-67904500D01*
X116219077Y-67938245D01*
X116013908Y-68004909D01*
X115821700Y-68102843D01*
X115722129Y-68175186D01*
X115647179Y-68229641D01*
X115647177Y-68229643D01*
X115647176Y-68229643D01*
X115494643Y-68382176D01*
X115494643Y-68382177D01*
X115494641Y-68382179D01*
X115417729Y-68488038D01*
X115370318Y-68553294D01*
X115314988Y-68595959D01*
X115245374Y-68601938D01*
X115183579Y-68569332D01*
X115169682Y-68553294D01*
X115147435Y-68522674D01*
X115045359Y-68382179D01*
X114892821Y-68229641D01*
X114718299Y-68102843D01*
X114526089Y-68004908D01*
X114320926Y-67938246D01*
X114320924Y-67938245D01*
X114320922Y-67938245D01*
X114107866Y-67904500D01*
X114107861Y-67904500D01*
X113892139Y-67904500D01*
X113892134Y-67904500D01*
X113679077Y-67938245D01*
X113473908Y-68004909D01*
X113281700Y-68102843D01*
X113182129Y-68175186D01*
X113107179Y-68229641D01*
X113107177Y-68229643D01*
X113107176Y-68229643D01*
X112954643Y-68382176D01*
X112954643Y-68382177D01*
X112954641Y-68382179D01*
X112900186Y-68457129D01*
X112827843Y-68556700D01*
X112729909Y-68748908D01*
X112663245Y-68954077D01*
X112629500Y-69167133D01*
X101000500Y-69167133D01*
X101000500Y-66624500D01*
X101020185Y-66557461D01*
X101072989Y-66511706D01*
X101124500Y-66500500D01*
X150375500Y-66500500D01*
X150442539Y-66520185D01*
G37*
%TD.AperFunction*%
%TD*%
M02*
