%TF.GenerationSoftware,KiCad,Pcbnew,9.0.3-9.0.3-0~ubuntu24.04.1*%
%TF.CreationDate,2025-08-13T18:32:02-04:00*%
%TF.ProjectId,EngineControlModule_2025_08,456e6769-6e65-4436-9f6e-74726f6c4d6f,rev?*%
%TF.SameCoordinates,Original*%
%TF.FileFunction,Soldermask,Top*%
%TF.FilePolarity,Negative*%
%FSLAX46Y46*%
G04 Gerber Fmt 4.6, Leading zero omitted, Abs format (unit mm)*
G04 Created by KiCad (PCBNEW 9.0.3-9.0.3-0~ubuntu24.04.1) date 2025-08-13 18:32:02*
%MOMM*%
%LPD*%
G01*
G04 APERTURE LIST*
G04 Aperture macros list*
%AMRoundRect*
0 Rectangle with rounded corners*
0 $1 Rounding radius*
0 $2 $3 $4 $5 $6 $7 $8 $9 X,Y pos of 4 corners*
0 Add a 4 corners polygon primitive as box body*
4,1,4,$2,$3,$4,$5,$6,$7,$8,$9,$2,$3,0*
0 Add four circle primitives for the rounded corners*
1,1,$1+$1,$2,$3*
1,1,$1+$1,$4,$5*
1,1,$1+$1,$6,$7*
1,1,$1+$1,$8,$9*
0 Add four rect primitives between the rounded corners*
20,1,$1+$1,$2,$3,$4,$5,0*
20,1,$1+$1,$4,$5,$6,$7,0*
20,1,$1+$1,$6,$7,$8,$9,0*
20,1,$1+$1,$8,$9,$2,$3,0*%
G04 Aperture macros list end*
%ADD10C,1.600000*%
%ADD11R,1.700000X1.700000*%
%ADD12C,1.700000*%
%ADD13RoundRect,0.250000X0.550000X0.550000X-0.550000X0.550000X-0.550000X-0.550000X0.550000X-0.550000X0*%
%ADD14RoundRect,0.250000X-0.620000X-0.845000X0.620000X-0.845000X0.620000X0.845000X-0.620000X0.845000X0*%
%ADD15O,1.740000X2.190000*%
%ADD16R,1.050000X1.500000*%
%ADD17O,1.050000X1.500000*%
%ADD18RoundRect,0.250000X0.620000X0.845000X-0.620000X0.845000X-0.620000X-0.845000X0.620000X-0.845000X0*%
G04 APERTURE END LIST*
D10*
%TO.C,R4*%
X121810000Y-90000000D03*
X114190000Y-90000000D03*
%TD*%
D11*
%TO.C,J1*%
X102880000Y-78500000D03*
D12*
X105420000Y-78500000D03*
X107960000Y-78500000D03*
X110500000Y-78500000D03*
%TD*%
D11*
%TO.C,J10*%
X108500000Y-88540000D03*
D12*
X108500000Y-86000000D03*
%TD*%
D11*
%TO.C,J4*%
X104500000Y-90080000D03*
D12*
X104500000Y-87540000D03*
X104500000Y-85000000D03*
%TD*%
%TO.C,J6*%
X148500000Y-82000000D03*
X148500000Y-79460000D03*
D11*
X148500000Y-76920000D03*
%TD*%
%TO.C,J9*%
X102750000Y-74250000D03*
D12*
X102750000Y-71710000D03*
%TD*%
D11*
%TO.C,J8*%
X148500000Y-92000000D03*
D12*
X148500000Y-94540000D03*
%TD*%
D11*
%TO.C,J2*%
X104400000Y-95000000D03*
D12*
X106940000Y-95000000D03*
X109480000Y-95000000D03*
X112020000Y-95000000D03*
X114560000Y-95000000D03*
X117100000Y-95000000D03*
X119640000Y-95000000D03*
X122180000Y-95000000D03*
X124720000Y-95000000D03*
X127260000Y-95000000D03*
X129800000Y-95000000D03*
X132340000Y-95000000D03*
X134880000Y-95000000D03*
X137420000Y-95000000D03*
X139960000Y-95000000D03*
X142500000Y-95000000D03*
%TD*%
D11*
%TO.C,J5*%
X142500000Y-75000000D03*
D12*
X139960000Y-75000000D03*
X137420000Y-75000000D03*
X134880000Y-75000000D03*
X132340000Y-75000000D03*
X129800000Y-75000000D03*
X127260000Y-75000000D03*
X124720000Y-75000000D03*
X122180000Y-75000000D03*
X119640000Y-75000000D03*
X117100000Y-75000000D03*
X114560000Y-75000000D03*
%TD*%
D10*
%TO.C,R6*%
X145310000Y-83500000D03*
X137690000Y-83500000D03*
%TD*%
%TO.C,R1*%
X123120000Y-79000000D03*
X115500000Y-79000000D03*
%TD*%
%TO.C,R2*%
X133810000Y-79000000D03*
X126190000Y-79000000D03*
%TD*%
D13*
%TO.C,C1*%
X109705113Y-73000000D03*
D10*
X107205113Y-73000000D03*
%TD*%
D14*
%TO.C,J3*%
X129920000Y-69500000D03*
D15*
X132460000Y-69500000D03*
X135000000Y-69500000D03*
X137540000Y-69500000D03*
%TD*%
D14*
%TO.C,J7*%
X143500000Y-69500000D03*
D15*
X146040000Y-69500000D03*
X148580000Y-69500000D03*
%TD*%
D16*
%TO.C,Q2*%
X121230000Y-84500000D03*
D17*
X122500000Y-84500000D03*
X123770000Y-84500000D03*
%TD*%
D18*
%TO.C,J11*%
X124160000Y-69500000D03*
D15*
X121620000Y-69500000D03*
X119080000Y-69500000D03*
X116540000Y-69500000D03*
X114000000Y-69500000D03*
%TD*%
D10*
%TO.C,R3*%
X124380000Y-90000000D03*
X132000000Y-90000000D03*
%TD*%
D16*
%TO.C,Q1*%
X118000000Y-84000000D03*
D17*
X116730000Y-84000000D03*
X115460000Y-84000000D03*
%TD*%
D10*
%TO.C,R5*%
X144310000Y-79000000D03*
X136690000Y-79000000D03*
%TD*%
D16*
%TO.C,Q3*%
X129270000Y-84000000D03*
D17*
X128000000Y-84000000D03*
X126730000Y-84000000D03*
%TD*%
D16*
%TO.C,Q4*%
X132230000Y-84360000D03*
D17*
X133500000Y-84360000D03*
X134770000Y-84360000D03*
%TD*%
M02*
