M48
; DRILL file {KiCad 9.0.3-9.0.3-0~ubuntu24.04.1} date 2025-08-13T18:32:08-0400
; FORMAT={-:-/ absolute / inch / decimal}
; #@! TF.CreationDate,2025-08-13T18:32:08-04:00
; #@! TF.GenerationSoftware,Kicad,Pcbnew,9.0.3-9.0.3-0~ubuntu24.04.1
; #@! TF.FileFunction,Plated,1,2,PTH
FMAT,2
INCH
; #@! TA.AperFunction,Plated,PTH,ComponentDrill
T1C0.0295
; #@! TA.AperFunction,Plated,PTH,ComponentDrill
T2C0.0315
; #@! TA.AperFunction,Plated,PTH,ComponentDrill
T3C0.0394
; #@! TA.AperFunction,Plated,PTH,ComponentDrill
T4C0.0469
%
G90
G05
T1
X4.5457Y-3.3071
X4.5957Y-3.3071
X4.6457Y-3.3071
X4.7728Y-3.3268
X4.8228Y-3.3268
X4.8728Y-3.3268
X4.9894Y-3.3071
X5.0394Y-3.3071
X5.0894Y-3.3071
X5.2059Y-3.3213
X5.2559Y-3.3213
X5.3059Y-3.3213
T2
X4.2207Y-2.874
X4.3191Y-2.874
X4.4957Y-3.5433
X4.5472Y-3.1102
X4.7957Y-3.5433
X4.8472Y-3.1102
X4.8969Y-3.5433
X4.9681Y-3.1102
X5.1969Y-3.5433
X5.2681Y-3.1102
X5.3815Y-3.1102
X5.4209Y-3.2874
X5.6815Y-3.1102
X5.7209Y-3.2874
T3
X4.0453Y-2.8232
X4.0453Y-2.9232
X4.0504Y-3.0906
X4.1102Y-3.7402
X4.1142Y-3.3465
X4.1142Y-3.4465
X4.1142Y-3.5465
X4.1504Y-3.0906
X4.2102Y-3.7402
X4.2504Y-3.0906
X4.2717Y-3.3858
X4.2717Y-3.4858
X4.3102Y-3.7402
X4.3504Y-3.0906
X4.4102Y-3.7402
X4.5102Y-2.9528
X4.5102Y-3.7402
X4.6102Y-2.9528
X4.6102Y-3.7402
X4.7102Y-2.9528
X4.7102Y-3.7402
X4.8102Y-2.9528
X4.8102Y-3.7402
X4.9102Y-2.9528
X4.9102Y-3.7402
X5.0102Y-2.9528
X5.0102Y-3.7402
X5.1102Y-2.9528
X5.1102Y-3.7402
X5.2102Y-2.9528
X5.2102Y-3.7402
X5.3102Y-2.9528
X5.3102Y-3.7402
X5.4102Y-2.9528
X5.4102Y-3.7402
X5.5102Y-2.9528
X5.5102Y-3.7402
X5.6102Y-2.9528
X5.6102Y-3.7402
X5.8465Y-3.0283
X5.8465Y-3.1283
X5.8465Y-3.2283
X5.8465Y-3.622
X5.8465Y-3.722
T4
X4.4882Y-2.7362
X4.5882Y-2.7362
X4.6882Y-2.7362
X4.7882Y-2.7362
X4.8882Y-2.7362
X5.115Y-2.7362
X5.215Y-2.7362
X5.315Y-2.7362
X5.415Y-2.7362
X5.6496Y-2.7362
X5.7496Y-2.7362
X5.8496Y-2.7362
M30
